<svg width="48" height="48" viewBox="0 0 48 48" fill="none" xmlns="http://www.w3.org/2000/svg">
<circle cx="24" cy="24" r="24" fill="#C80030"/>
<path fill-rule="evenodd" clip-rule="evenodd" d="M19.1427 15.1826L22.7526 20.8134C22.7152 20.8541 22.6871 20.8861 22.6684 20.9094C22.6391 20.9459 22.6084 20.9853 22.5806 21.0286C22.5261 21.1134 22.4424 21.2466 22.3296 21.4282L14.2934 34.384L11.6841 34.3919C10.7738 34.3879 10.0257 33.9473 9.43957 33.0701C8.85348 32.1929 8.85348 31.2071 9.43957 30.1129L19.1427 15.1826Z" fill="white"/>
<path fill-rule="evenodd" clip-rule="evenodd" d="M20.8835 28.3447L17.1035 34.3916H36.4454C37.507 34.215 38.2555 33.7078 38.6907 32.8699C39.126 32.032 39.1018 31.1504 38.6181 30.2249L37.3998 28.3447H20.8835Z" fill="white"/>
<path fill-rule="evenodd" clip-rule="evenodd" d="M28.504 25.9271H35.8178L26.2942 11.2282C25.6921 10.4094 24.9146 10 23.9617 10C23.0088 10 22.257 10.4094 21.7061 11.2282L20.4966 13.0845L28.504 25.9271Z" fill="white"/>
</svg>
