<svg width="48" height="48" viewBox="0 0 48 48" fill="none" xmlns="http://www.w3.org/2000/svg">
<circle cx="24" cy="24" r="24" fill="#333333"/>
<path fill-rule="evenodd" clip-rule="evenodd" d="M15.9294 11V15.2824C15.9294 15.6353 15.9466 15.7454 15.9294 16.4353V23.2306H10V13.6588C10 12.1904 11.1904 11 12.6588 11L15.9294 11Z" fill="white"/>
<path fill-rule="evenodd" clip-rule="evenodd" d="M15.9294 25.1221V31.7527C15.9294 32.4575 15.9294 32.4896 15.9294 33.0703V37.3527L12.6588 37.3527C11.1904 37.3527 10 36.1623 10 34.6939V25.1221H15.9294Z" fill="white"/>
<path fill-rule="evenodd" clip-rule="evenodd" d="M35.3414 11C36.8098 11 38.0002 12.1904 38.0002 13.6588V23.2306H31.7414V18.2471C31.7414 17.5531 31.4431 16.9466 30.7532 16.9294H18.0002V11H35.3414Z" fill="white"/>
<path fill-rule="evenodd" clip-rule="evenodd" d="M35.3285 37.3525C36.8039 37.3525 37.9999 36.1663 37.9999 34.7029V25.1643H31.7116V30.1306C31.7116 30.8222 31.4118 31.4265 30.7187 31.4437H17.9058V37.3525H35.3285Z" fill="white"/>
</svg>
