<svg width="32" height="32" viewBox="0 0 32 32" fill="none" xmlns="http://www.w3.org/2000/svg">
<path fill-rule="evenodd" clip-rule="evenodd" d="M31.3379 7.26992H28.8107C28.6024 7.26992 28.5374 7.29084 28.1303 7.26992H24.1202V0.0615234H29.7688C30.6354 0.0615234 31.3379 1.50869 31.3379 3.29386L31.3379 7.26992Z" fill="#C80030"/>
<path fill-rule="evenodd" clip-rule="evenodd" d="M7.28027 7.27873H3.36732C2.95137 7.27873 2.93243 7.27873 2.58974 7.27873H0.0625763L0.0625792 3.29754C0.0625792 1.51007 0.765073 0.0610352 1.63164 0.0610352H7.28027V7.27873Z" fill="#333333"/>
<path fill-rule="evenodd" clip-rule="evenodd" d="M31.3389 28.9005C31.3389 30.5787 29.9339 31.939 28.2007 31.939H16.9035V24.7213L22.7854 24.7865C23.6045 24.7865 24.1009 24.3068 24.1212 23.5184V9.08301H31.3389V28.9005Z" fill="#333333"/>
<path fill-rule="evenodd" clip-rule="evenodd" d="M0.0625 28.9005C0.0625 30.5787 1.46749 31.939 3.20063 31.939H14.4979V24.7865H8.61598C7.79687 24.7865 7.30047 24.3995 7.28016 23.6112V9.08301H0.0625L0.0625 28.9005Z" fill="#C80030"/>
<path d="M12.167 8.67725C12.167 7.57268 13.0624 6.67725 14.167 6.67725H17.3847C18.4893 6.67725 19.3847 7.57268 19.3847 8.67725V11.8949C19.3847 12.9995 18.4893 13.8949 17.3847 13.8949H14.167C13.0624 13.8949 12.167 12.9995 12.167 11.8949V8.67725Z" fill="#C80030"/>
<rect x="12.167" y="15.6997" width="7.2177" height="7.2177" rx="2" fill="#333333"/>
</svg>
