<svg width="48" height="48" viewBox="0 0 48 48" fill="none" xmlns="http://www.w3.org/2000/svg">
<circle cx="24" cy="24" r="24" fill="#C80030"/>
<path fill-rule="evenodd" clip-rule="evenodd" d="M37.4907 16.1053H35.3503C35.1739 16.1053 35.1188 16.1231 34.774 16.1053H31.3775V10H36.1618C36.8957 10 37.4907 11.2257 37.4907 12.7377L37.4907 16.1053Z" fill="white"/>
<path fill-rule="evenodd" clip-rule="evenodd" d="M17.1138 16.1132H13.7996C13.4473 16.1132 13.4313 16.1132 13.141 16.1132H11.0006L11.0006 12.7412C11.0006 11.2273 11.5956 10 12.3295 10H17.1138V16.1132Z" fill="#FFFFFE"/>
<path fill-rule="evenodd" clip-rule="evenodd" d="M37.4907 34.4265C37.4907 35.8479 36.3007 37.0001 34.8328 37.0001H25.2643V30.8869L30.2461 30.942C30.9399 30.942 31.3603 30.5357 31.3775 29.868V17.6416H37.4907V34.4265Z" fill="#FFFFFE"/>
<path fill-rule="evenodd" clip-rule="evenodd" d="M11 34.4265C11 35.8479 12.19 37.0001 13.6579 37.0001H23.2264V30.942H18.2446C17.5508 30.942 17.1304 30.6143 17.1132 29.9466V17.6416H11V34.4265Z" fill="white"/>
</svg>
