<svg width="626" height="97" viewBox="0 0 626 97" fill="none" xmlns="http://www.w3.org/2000/svg">
<path d="M395.123 84.2218V8.98463H415.032V67.5539H443.506V84.2218H395.123Z" fill="#C80030"/>
<path d="M469.929 85.6108C467.228 85.6108 464.797 85.1478 462.637 84.2218C460.476 83.2186 458.624 81.9068 457.081 80.2863C455.615 78.6658 454.496 76.7753 453.724 74.6146C452.952 72.4539 452.566 70.1775 452.566 67.7854C452.566 61.7664 455.036 57.0593 459.974 53.6639C464.913 50.1915 472.938 47.8765 484.05 46.719C483.587 42.7063 480.886 40.7 475.948 40.7C473.864 40.7 471.665 41.1244 469.35 41.9732C467.035 42.7449 464.373 43.941 461.363 45.5615L454.418 32.5975C458.508 30.1282 462.637 28.2376 466.804 26.9258C470.971 25.614 475.331 24.9581 479.883 24.9581C487.368 24.9581 493.233 27.1187 497.477 31.44C501.799 35.6842 503.959 42.552 503.959 52.0434V84.2218H487.754L486.365 78.6658H485.902C483.587 80.7493 481.118 82.447 478.494 83.7588C475.948 84.9935 473.093 85.6108 469.929 85.6108ZM476.874 70.3319C478.494 70.3319 479.806 69.9846 480.809 69.2901C481.89 68.5185 482.97 67.5539 484.05 66.3964V58.5254C479.266 59.2199 475.986 60.2617 474.212 61.6507C472.437 63.0396 471.549 64.5444 471.549 66.1649C471.549 68.9429 473.324 70.3319 476.874 70.3319Z" fill="#C80030"/>
<path d="M549.117 85.6108C546.57 85.6108 544.062 84.9935 541.593 83.7588C539.124 82.447 536.77 80.5178 534.532 77.9713H534.069L532.449 84.2218H516.939V3.66016H536.847V22.4116L536.384 30.7455C538.391 28.8935 540.629 27.466 543.098 26.4628C545.567 25.4596 548.075 24.9581 550.622 24.9581C554.017 24.9581 557.104 25.6526 559.882 27.0416C562.66 28.4305 565.013 30.3983 566.942 32.9448C568.949 35.4913 570.492 38.5779 571.572 42.2047C572.653 45.8316 573.193 49.8442 573.193 54.2427C573.193 59.2585 572.498 63.7341 571.109 67.6696C569.797 71.5279 568.023 74.8075 565.785 77.5083C563.547 80.132 560.962 82.1383 558.03 83.5273C555.174 84.9163 552.204 85.6108 549.117 85.6108ZM544.255 69.4059C546.57 69.4059 548.577 68.3255 550.274 66.1649C551.972 64.0042 552.821 60.1459 552.821 54.5899C552.821 49.8056 552.126 46.3717 550.737 44.2882C549.426 42.2047 547.419 41.163 544.718 41.163C543.175 41.163 541.786 41.4717 540.551 42.089C539.394 42.7063 538.159 43.7866 536.847 45.33V66.6279C538.005 67.7082 539.201 68.4413 540.436 68.8271C541.67 69.213 542.944 69.4059 544.255 69.4059Z" fill="#C80030"/>
<path d="M601.229 85.6108C597.525 85.6108 593.59 84.8777 589.423 83.4116C585.333 81.9454 581.784 79.9777 578.774 77.5083L587.571 65.2389C592.818 69.0972 597.525 71.0264 601.692 71.0264C603.776 71.0264 605.242 70.7563 606.091 70.2161C607.017 69.5988 607.48 68.7114 607.48 67.5539C607.48 66.7822 607.171 66.1263 606.554 65.5861C605.937 64.9688 605.088 64.4286 604.007 63.9656C603.004 63.4255 601.847 62.9239 600.535 62.4609C599.223 61.9979 597.834 61.4577 596.368 60.8404C594.67 60.1459 592.934 59.3357 591.159 58.4097C589.462 57.4065 587.918 56.2104 586.529 54.8214C585.14 53.4324 583.983 51.8505 583.057 50.0757C582.208 48.2237 581.784 46.1016 581.784 43.7095C581.784 40.8543 582.324 38.2693 583.404 35.9543C584.562 33.6393 586.143 31.6715 588.15 30.051C590.156 28.4305 592.548 27.1959 595.326 26.3471C598.181 25.4211 601.307 24.9581 604.702 24.9581C609.486 24.9581 613.576 25.7683 616.971 27.3888C620.444 28.9321 623.453 30.6684 626 32.5975L617.203 44.404C615.119 42.8607 613.075 41.6646 611.068 40.8157C609.062 39.9669 607.171 39.5425 605.396 39.5425C602.001 39.5425 600.303 40.6228 600.303 42.7835C600.303 43.5551 600.574 44.2111 601.114 44.7512C601.731 45.2914 602.541 45.793 603.544 46.256C604.548 46.719 605.705 47.182 607.017 47.645C608.329 48.0308 609.718 48.4938 611.184 49.034C612.882 49.6513 614.618 50.423 616.393 51.3489C618.167 52.2749 619.749 53.4324 621.138 54.8214C622.605 56.1333 623.762 57.7538 624.611 59.6829C625.537 61.5349 626 63.7727 626 66.3964C626 69.0972 625.46 71.6437 624.379 74.0359C623.299 76.3508 621.717 78.3957 619.634 80.1706C617.55 81.8682 614.965 83.2186 611.878 84.2218C608.792 85.1478 605.242 85.6108 601.229 85.6108Z" fill="#C80030"/>
<path d="M136.495 84.3231V9.08594H158.719C164.429 9.08594 169.638 9.78043 174.345 11.1694C179.13 12.5584 183.219 14.7577 186.615 17.7671C190.01 20.7766 192.634 24.635 194.486 29.3421C196.415 34.0492 197.379 39.721 197.379 46.3573C197.379 52.9936 196.453 58.7039 194.601 63.4882C192.749 68.2725 190.126 72.208 186.73 75.2946C183.412 78.3813 179.438 80.6577 174.808 82.1239C170.255 83.59 165.278 84.3231 159.877 84.3231H136.495ZM156.404 68.3497H157.562C160.262 68.3497 162.809 68.041 165.201 67.4237C167.593 66.7292 169.638 65.5717 171.336 63.9512C173.111 62.3307 174.5 60.0929 175.503 57.2377C176.506 54.3826 177.007 50.7557 177.007 46.3573C177.007 41.9588 176.506 38.3706 175.503 35.5926C174.5 32.8146 173.111 30.6539 171.336 29.1106C169.638 27.5673 167.593 26.5255 165.201 25.9854C162.809 25.368 160.262 25.0594 157.562 25.0594H156.404V68.3497Z" fill="white"/>
<path d="M224.187 85.7121C221.486 85.7121 219.056 85.2491 216.895 84.3231C214.734 83.3199 212.882 82.0081 211.339 80.3876C209.873 78.7671 208.754 76.8765 207.982 74.7159C207.211 72.5552 206.825 70.2788 206.825 67.8867C206.825 61.8677 209.294 57.1606 214.233 53.7652C219.171 50.2928 227.197 47.9778 238.309 46.8203C237.846 42.8076 235.145 40.8013 230.206 40.8013C228.123 40.8013 225.923 41.2257 223.608 42.0745C221.293 42.8462 218.631 44.0423 215.622 45.6628L208.677 32.6988C212.766 30.2295 216.895 28.3389 221.062 27.0271C225.229 25.7153 229.589 25.0594 234.142 25.0594C241.627 25.0594 247.491 27.22 251.735 31.5413C256.057 35.7855 258.217 42.6533 258.217 52.1447V84.3231H242.013L240.624 78.7671H240.161C237.846 80.8506 235.376 82.5483 232.753 83.8601C230.206 85.0948 227.351 85.7121 224.187 85.7121ZM231.132 70.4332C232.753 70.4332 234.064 70.0859 235.068 69.3914C236.148 68.6198 237.228 67.6552 238.309 66.4977V58.6267C233.524 59.3212 230.245 60.363 228.47 61.752C226.695 63.1409 225.808 64.6457 225.808 66.2662C225.808 69.0442 227.582 70.4332 231.132 70.4332Z" fill="white"/>
<path d="M292.78 85.7121C288.999 85.7121 285.758 85.1719 283.057 84.0916C280.434 82.9341 278.235 81.3136 276.46 79.2301C274.762 77.1466 273.489 74.6773 272.64 71.8222C271.868 68.8898 271.483 65.6488 271.483 62.0992V41.9588H263.843V27.1429L272.64 26.4484L274.955 11.4009H291.391V26.4484H304.587V41.9588H291.391V61.752C291.391 64.9929 292.086 67.2308 293.475 68.4654C294.864 69.6229 296.484 70.2017 298.336 70.2017C299.262 70.2017 300.15 70.1245 300.999 69.9702C301.925 69.7387 302.735 69.5072 303.429 69.2757L306.439 83.6286C304.896 84.0916 303.044 84.5546 300.883 85.0176C298.722 85.4806 296.021 85.7121 292.78 85.7121Z" fill="white"/>
<path d="M328.068 85.7121C325.367 85.7121 322.936 85.2491 320.776 84.3231C318.615 83.3199 316.763 82.0081 315.22 80.3876C313.753 78.7671 312.634 76.8765 311.863 74.7159C311.091 72.5552 310.705 70.2788 310.705 67.8867C310.705 61.8677 313.175 57.1606 318.113 53.7652C323.052 50.2928 331.077 47.9778 342.189 46.8203C341.726 42.8076 339.025 40.8013 334.087 40.8013C332.003 40.8013 329.804 41.2257 327.489 42.0745C325.174 42.8462 322.512 44.0423 319.502 45.6628L312.557 32.6988C316.647 30.2295 320.776 28.3389 324.943 27.0271C329.109 25.7153 333.469 25.0594 338.022 25.0594C345.507 25.0594 351.372 27.22 355.616 31.5413C359.937 35.7855 362.098 42.6533 362.098 52.1447V84.3231H345.893L344.504 78.7671H344.041C341.726 80.8506 339.257 82.5483 336.633 83.8601C334.087 85.0948 331.232 85.7121 328.068 85.7121ZM335.013 70.4332C336.633 70.4332 337.945 70.0859 338.948 69.3914C340.029 68.6198 341.109 67.6552 342.189 66.4977V58.6267C337.405 59.3212 334.125 60.363 332.35 61.752C330.576 63.1409 329.688 64.6457 329.688 66.2662C329.688 69.0442 331.463 70.4332 335.013 70.4332Z" fill="white"/>
<path fill-rule="evenodd" clip-rule="evenodd" d="M94.8981 21.9421L87.3035 21.9424C86.6775 21.9424 86.4822 22.0053 85.2587 21.9424L73.2074 21.9428L73.1965 0.269235L90.1718 0.268703C92.7761 0.268621 94.8894 4.61977 94.8921 9.98727L94.8981 21.9421Z" fill="#C80030"/>
<path fill-rule="evenodd" clip-rule="evenodd" d="M22.5549 21.9701L10.7956 21.9705C9.54561 21.9705 9.48868 21.9705 8.45882 21.9705L0.864169 21.9708L0.858142 10.0005C0.855432 4.62607 2.96438 0.269168 5.56861 0.269087L22.5439 0.268555L22.5549 21.9701Z" fill="white"/>
<path fill-rule="evenodd" clip-rule="evenodd" d="M94.8937 86.9842C94.8963 92.03 90.6773 96.1206 85.4704 96.1207L51.5297 96.1218L51.5188 74.4196L69.1901 74.6149C71.651 74.6148 73.1415 73.1724 73.2013 70.8019L73.1795 27.3976L94.8638 27.397L94.8937 86.9842Z" fill="white"/>
<path fill-rule="evenodd" clip-rule="evenodd" d="M0.881524 86.9857C0.884062 92.0315 5.10716 96.1218 10.3141 96.1216L44.2547 96.1206L44.2439 74.6142L26.5727 74.6148C24.1119 74.6149 22.6199 73.4515 22.5577 71.081L22.5358 27.3978L0.851562 27.3984L0.881524 86.9857Z" fill="#C80030"/>
<path d="M37.2485 22.1626C37.2485 21.058 38.144 20.1626 39.2485 20.1626H56.9516C58.0561 20.1626 58.9516 21.058 58.9516 22.1626V39.8656C58.9516 40.9702 58.0561 41.8656 56.9516 41.8656H39.2485C38.144 41.8656 37.2485 40.9702 37.2485 39.8656V22.1626Z" fill="#C80030"/>
<rect x="37.2485" y="47.2915" width="21.703" height="21.703" rx="2" fill="white"/>
</svg>
