<svg width="220" height="40" viewBox="0 0 220 40" fill="none" xmlns="http://www.w3.org/2000/svg">
<path d="M71.1215 30.8275V26.2618H61.4486V21.9128H69.1191C69.2725 21.9128 69.3968 21.7885 69.3968 21.6351V16.7917C69.3968 16.6383 69.2725 16.514 69.1191 16.514H61.4486V12.6898H70.7465V8.12417C70.7465 7.66403 70.3735 7.29102 69.9134 7.29102H55V31.6607H70.2883C70.7484 31.6607 71.1215 31.2876 71.1215 30.8275ZM80.9443 32.1106C81.9691 32.1106 82.9001 31.9044 83.7374 31.4919C84.5747 31.0795 85.3683 30.5359 86.1182 29.8611H86.2681L86.718 31.6607H91.9669V21.238C91.9669 18.1636 91.2733 15.9329 89.8861 14.5457C88.4989 13.1585 86.5931 12.4649 84.1686 12.4649C82.6939 12.4649 81.2817 12.6773 79.932 13.1022C78.5823 13.5271 77.2451 14.1395 75.9204 14.9393L78.1699 19.1384C79.1447 18.6135 80.007 18.2199 80.7568 17.9574C81.5067 17.695 82.219 17.5638 82.8939 17.5638C84.4935 17.5638 85.3683 18.2136 85.5183 19.5133C81.9191 19.8882 79.3197 20.6318 77.72 21.7441C76.1204 22.8563 75.3205 24.3873 75.3205 26.3368C75.3205 27.1117 75.4455 27.849 75.6954 28.5488C75.9454 29.2487 76.3141 29.8611 76.8015 30.3859C77.2888 30.9108 77.8825 31.3295 78.5823 31.6419C79.2822 31.9543 80.0695 32.1106 80.9443 32.1106ZM83.1938 27.1616C82.0441 27.1616 81.4692 26.7117 81.4692 25.8119C81.4692 25.2871 81.7566 24.7997 82.3315 24.3498C82.9064 23.8999 83.9686 23.5624 85.5183 23.3375V25.8869C85.1684 26.2618 84.8247 26.568 84.4873 26.8055C84.1498 27.0429 83.7187 27.1616 83.1938 27.1616ZM102.69 32.1106C103.989 32.1106 105.139 31.9543 106.139 31.6419C107.139 31.3295 107.976 30.8921 108.651 30.3297C109.326 29.7673 109.838 29.105 110.188 28.3426C110.538 27.5803 110.713 26.7617 110.713 25.8869C110.713 25.0371 110.569 24.306 110.282 23.6937C109.994 23.0813 109.619 22.5564 109.157 22.119C108.694 21.6816 108.176 21.3129 107.601 21.013C107.026 20.7131 106.464 20.4631 105.914 20.2632C105.439 20.0882 104.989 19.932 104.564 19.7945C104.139 19.657 103.764 19.5133 103.439 19.3634C103.114 19.2134 102.858 19.0509 102.671 18.876C102.483 18.701 102.39 18.4886 102.39 18.2386C102.39 17.5388 102.939 17.1888 104.039 17.1888C104.614 17.1888 105.226 17.3263 105.876 17.6012C106.526 17.8762 107.189 18.2636 107.863 18.7635L110.713 14.9393C109.888 14.3145 108.919 13.7458 107.807 13.2335C106.695 12.7211 105.364 12.4649 103.814 12.4649C102.715 12.4649 101.708 12.6086 100.796 12.896C99.8839 13.1835 99.1028 13.5896 98.4529 14.1145C97.8031 14.6394 97.2969 15.2768 96.9345 16.0266C96.5721 16.7764 96.3909 17.6137 96.3909 18.5385C96.3909 19.3134 96.5346 19.9945 96.8221 20.5818C97.1095 21.1692 97.4782 21.6878 97.9281 22.1378C98.378 22.5877 98.8841 22.9688 99.4465 23.2812C100.009 23.5937 100.565 23.8624 101.115 24.0873C101.59 24.2873 102.04 24.4622 102.465 24.6122C102.889 24.7622 103.271 24.9184 103.608 25.0809C103.945 25.2433 104.214 25.4183 104.414 25.6057C104.614 25.7932 104.714 26.0119 104.714 26.2618C104.714 26.6368 104.57 26.918 104.283 27.1054C103.995 27.2929 103.514 27.3866 102.839 27.3866C101.49 27.3866 99.9651 26.7617 98.2655 25.512L95.4161 29.4861C96.3909 30.286 97.5469 30.9233 98.8841 31.3982C100.221 31.8731 101.49 32.1106 102.69 32.1106ZM121.585 32.1106C122.635 32.1106 123.51 32.0356 124.21 31.8856C124.91 31.7356 125.509 31.5857 126.009 31.4357L125.035 26.7867C124.81 26.8617 124.553 26.9304 124.266 26.9929C123.979 27.0554 123.685 27.0867 123.385 27.0867C122.785 27.0867 122.26 26.893 121.81 26.5055C121.36 26.1181 121.135 25.3995 121.135 24.3498V17.9387H125.41V12.9148H121.135V8.04085H115.812L115.062 12.9148L112.212 13.1397V17.9387H114.687V24.4622C114.687 25.612 114.818 26.6555 115.081 27.5928C115.343 28.5301 115.755 29.3362 116.318 30.011C116.88 30.6859 117.592 31.2045 118.455 31.5669C119.317 31.9293 120.361 32.1106 121.585 32.1106Z" fill="white"/>
<path d="M148.354 31.6607L150.154 21.9878C150.354 21.038 150.522 20.0757 150.66 19.1009C150.797 18.1261 150.928 17.1888 151.053 16.289H151.203C151.328 17.1888 151.46 18.1261 151.597 19.1009C151.734 20.0757 151.903 21.038 152.103 21.9878L153.978 31.6607H162.151L166.2 7.29102H160.051L158.702 17.9387C158.577 19.1884 158.439 20.4506 158.289 21.7253C158.139 23.0001 158.002 24.2873 157.877 25.587H157.727C157.502 24.2873 157.277 22.9938 157.052 21.7066C156.827 20.4194 156.602 19.1634 156.377 17.9387L154.053 7.29102H148.654L146.329 17.9387C146.104 19.2134 145.879 20.4881 145.655 21.7628C145.43 23.0376 145.205 24.3123 144.98 25.587H144.83C144.705 24.3123 144.567 23.0376 144.417 21.7628L144.272 20.4881C144.177 19.6383 144.088 18.7885 144.005 17.9387L142.655 7.29102H136.057L140.331 31.6607H148.354ZM178.197 32.1106C179.247 32.1106 180.391 31.9293 181.628 31.5669C182.865 31.2045 183.996 30.6609 185.021 29.936L182.921 26.1119C182.246 26.4868 181.603 26.768 180.991 26.9554C180.378 27.1429 179.747 27.2366 179.097 27.2366C178.047 27.2366 177.135 27.0179 176.36 26.5805C175.585 26.1431 175.048 25.362 174.748 24.2373H185.433C185.483 24.0123 185.54 23.6499 185.602 23.15C185.664 22.6501 185.696 22.1128 185.696 21.5379C185.696 20.2882 185.527 19.1134 185.19 18.0137C184.852 16.9139 184.346 15.9516 183.671 15.1268C182.996 14.302 182.147 13.6521 181.122 13.1772C180.097 12.7023 178.897 12.4649 177.523 12.4649C176.373 12.4649 175.261 12.6898 174.186 13.1397C173.111 13.5896 172.155 14.2395 171.318 15.0893C170.48 15.9391 169.805 16.9701 169.293 18.1824C168.781 19.3946 168.525 20.7631 168.525 22.2877C168.525 23.8374 168.774 25.2246 169.274 26.4493C169.774 27.674 170.455 28.7051 171.318 29.5424C172.18 30.3797 173.198 31.017 174.373 31.4545C175.548 31.8919 176.823 32.1106 178.197 32.1106ZM180.222 20.0382H174.673C174.873 19.0884 175.242 18.4011 175.779 17.9762C176.317 17.5513 176.948 17.3388 177.672 17.3388C178.647 17.3388 179.316 17.6075 179.678 18.1449C180.041 18.6823 180.222 19.3134 180.222 20.0382ZM195.744 32.1106C197.043 32.1106 198.193 31.9543 199.193 31.6419C200.193 31.3295 201.03 30.8921 201.705 30.3297C202.38 29.7673 202.892 29.105 203.242 28.3426C203.592 27.5803 203.767 26.7617 203.767 25.8869C203.767 25.0371 203.623 24.306 203.336 23.6937C203.048 23.0813 202.673 22.5564 202.211 22.119C201.748 21.6816 201.23 21.3129 200.655 21.013C200.08 20.7131 199.518 20.4631 198.968 20.2632C198.493 20.0882 198.043 19.932 197.618 19.7945C197.193 19.657 196.818 19.5133 196.493 19.3634C196.168 19.2134 195.912 19.0509 195.725 18.876C195.537 18.701 195.444 18.4886 195.444 18.2386C195.444 17.5388 195.993 17.1888 197.093 17.1888C197.668 17.1888 198.28 17.3263 198.93 17.6012C199.58 17.8762 200.243 18.2636 200.917 18.7635L203.767 14.9393C202.942 14.3145 201.973 13.7458 200.861 13.2335C199.749 12.7211 198.418 12.4649 196.868 12.4649C195.769 12.4649 194.762 12.6086 193.85 12.896C192.938 13.1835 192.157 13.5896 191.507 14.1145C190.857 14.6394 190.351 15.2768 189.989 16.0266C189.626 16.7764 189.445 17.6137 189.445 18.5385C189.445 19.3134 189.589 19.9945 189.876 20.5818C190.163 21.1692 190.532 21.6878 190.982 22.1378C191.432 22.5877 191.938 22.9688 192.5 23.2812C193.063 23.5937 193.619 23.8624 194.169 24.0873C194.644 24.2873 195.094 24.4622 195.519 24.6122C195.943 24.7622 196.325 24.9184 196.662 25.0809C196.999 25.2433 197.268 25.4183 197.468 25.6057C197.668 25.7932 197.768 26.0119 197.768 26.2618C197.768 26.6368 197.624 26.918 197.337 27.1054C197.049 27.2929 196.568 27.3866 195.893 27.3866C194.544 27.3866 193.019 26.7617 191.319 25.512L188.47 29.4861C189.445 30.286 190.601 30.9233 191.938 31.3982C193.275 31.8731 194.544 32.1106 195.744 32.1106ZM214.639 32.1106C215.689 32.1106 216.564 32.0356 217.264 31.8856C217.964 31.7356 218.564 31.5857 219.063 31.4357L218.089 26.7867C217.864 26.8617 217.607 26.9304 217.32 26.9929C217.033 27.0554 216.739 27.0867 216.439 27.0867C215.839 27.0867 215.314 26.893 214.864 26.5055C214.414 26.1181 214.189 25.3995 214.189 24.3498V17.9387H218.464V12.9148H214.189V8.04085H208.866L208.116 12.9148L205.266 13.1397V17.9387H207.741V24.4622C207.741 25.612 207.872 26.6555 208.135 27.5928C208.397 28.5301 208.809 29.3362 209.372 30.011C209.934 30.6859 210.646 31.2045 211.509 31.5669C212.371 31.9293 213.415 32.1106 214.639 32.1106Z" fill="white"/>
<path d="M28.9863 21.0508L33.3923 25.4569L23.2203 35.6294C21.2678 37.5821 18.102 37.5821 16.1494 35.6294L15.2789 34.7589L28.9863 21.0508Z" fill="white"/>
<path d="M35.7293 23.1217C37.6829 21.17 37.6846 18.0041 35.733 16.0504L25.5664 5.87264L21.1582 10.2765L34.8584 23.9918L35.7293 23.1217Z" fill="white"/>
<path d="M16.1491 3.53562C18.1017 1.58295 21.2674 1.58295 23.22 3.53562L24.0905 4.40617L10.3831 18.1142L5.97719 13.7081L16.1491 3.53562Z" fill="white"/>
<path d="M4.40625 15.2344L18.1136 28.9425L13.7077 33.3486L3.53575 23.1762C1.58317 21.2235 1.58318 18.0576 3.53575 16.1049L4.40625 15.2344Z" fill="white"/>
<path d="M17.8274 19.107L19.6382 17.2961L17.4042 15.062C17.2691 14.9273 17.086 14.8516 16.8952 14.8516C16.7044 14.8516 16.5213 14.9273 16.3862 15.062L12.3413 19.107C12.2066 19.242 12.1309 19.4251 12.1309 19.6159C12.1309 19.8067 12.2066 19.9898 12.3413 20.1249L16.3862 24.1698C16.5213 24.3046 16.7044 24.3803 16.8952 24.3803C17.086 24.3803 17.2691 24.3046 17.4042 24.1698L19.6382 21.9357L17.8274 20.1249C17.6926 19.9898 17.6169 19.8067 17.6169 19.6159C17.6169 19.4251 17.6926 19.242 17.8274 19.107Z" fill="white"/>
<path d="M21.8718 15.062L19.6377 17.2961L21.4485 19.107C21.5833 19.242 21.659 19.4251 21.659 19.6159C21.659 19.8067 21.5833 19.9898 21.4485 20.1249L19.6377 21.9357L21.8718 24.1698C22.0069 24.3046 22.1899 24.3803 22.3807 24.3803C22.5716 24.3803 22.7546 24.3046 22.8897 24.1698L26.9346 20.1249C27.0694 19.9898 27.1451 19.8067 27.1451 19.6159C27.1451 19.4251 27.0694 19.242 26.9346 19.107L22.8897 15.062C22.7546 14.9273 22.5716 14.8516 22.3807 14.8516C22.1899 14.8516 22.0069 14.9273 21.8718 15.062Z" fill="white"/>
</svg>
