<svg width="207" height="40" viewBox="0 0 207 40" fill="none" xmlns="http://www.w3.org/2000/svg">
<path d="M63.1215 30.8265V26.2609H53.4486V21.9118H61.1191C61.2725 21.9118 61.3968 21.7875 61.3968 21.6341V16.7907C61.3968 16.6373 61.2725 16.513 61.1191 16.513H53.4486V12.6889H62.7465V8.12319C62.7465 7.66305 62.3735 7.29004 61.9134 7.29004H47V31.6597H62.2883C62.7484 31.6597 63.1215 31.2867 63.1215 30.8265ZM72.9443 32.1096C73.9691 32.1096 74.9001 31.9034 75.7374 31.491C76.5747 31.0786 77.3683 30.5349 78.1182 29.8601H78.2681L78.718 31.6597H83.9669V21.237C83.9669 18.1626 83.2733 15.9319 81.8861 14.5447C80.4989 13.1575 78.5931 12.4639 76.1686 12.4639C74.6939 12.4639 73.2817 12.6764 71.932 13.1013C70.5823 13.5262 69.2451 14.1385 67.9204 14.9384L70.1699 19.1374C71.1447 18.6125 72.007 18.2189 72.7568 17.9564C73.5067 17.694 74.219 17.5628 74.8939 17.5628C76.4935 17.5628 77.3683 18.2126 77.5183 19.5124C73.9191 19.8873 71.3197 20.6309 69.72 21.7431C68.1204 22.8554 67.3205 24.3863 67.3205 26.3359C67.3205 27.1107 67.4455 27.848 67.6954 28.5479C67.9454 29.2477 68.3141 29.8601 68.8015 30.385C69.2888 30.9098 69.8825 31.3285 70.5823 31.6409C71.2822 31.9534 72.0695 32.1096 72.9443 32.1096ZM75.1938 27.1607C74.0441 27.1607 73.4692 26.7108 73.4692 25.811C73.4692 25.2861 73.7566 24.7987 74.3315 24.3488C74.9064 23.8989 75.9686 23.5615 77.5183 23.3365V25.886C77.1684 26.2609 76.8247 26.5671 76.4873 26.8045C76.1498 27.0419 75.7187 27.1607 75.1938 27.1607ZM94.6895 32.1096C95.9892 32.1096 97.139 31.9534 98.1388 31.6409C99.1385 31.3285 99.9758 30.8911 100.651 30.3287C101.326 29.7663 101.838 29.104 102.188 28.3417C102.538 27.5793 102.713 26.7608 102.713 25.886C102.713 25.0361 102.569 24.305 102.282 23.6927C101.994 23.0803 101.619 22.5554 101.157 22.118C100.694 21.6806 100.176 21.312 99.6009 21.012C99.0261 20.7121 98.4637 20.4621 97.9138 20.2622C97.4389 20.0872 96.989 19.931 96.5641 19.7935C96.1392 19.6561 95.7643 19.5124 95.4393 19.3624C95.1144 19.2124 94.8582 19.05 94.6708 18.875C94.4833 18.7 94.3896 18.4876 94.3896 18.2376C94.3896 17.5378 94.9395 17.1879 96.0392 17.1879C96.6141 17.1879 97.2265 17.3253 97.8763 17.6003C98.5262 17.8752 99.1885 18.2626 99.8634 18.7625L102.713 14.9384C101.888 14.3135 100.919 13.7449 99.8071 13.2325C98.6949 12.7201 97.3639 12.4639 95.8143 12.4639C94.7145 12.4639 93.7085 12.6076 92.7962 12.8951C91.8839 13.1825 91.1028 13.5887 90.4529 14.1135C89.8031 14.6384 89.2969 15.2758 88.9345 16.0256C88.5721 16.7755 88.3909 17.6128 88.3909 18.5376C88.3909 19.3124 88.5346 19.9935 88.8221 20.5809C89.1095 21.1682 89.4782 21.6869 89.9281 22.1368C90.378 22.5867 90.8841 22.9678 91.4465 23.2803C92.0089 23.5927 92.565 23.8614 93.1149 24.0863C93.5898 24.2863 94.0397 24.4613 94.4646 24.6112C94.8895 24.7612 95.2706 24.9174 95.6081 25.0799C95.9455 25.2423 96.2142 25.4173 96.4141 25.6048C96.6141 25.7922 96.7141 26.0109 96.7141 26.2609C96.7141 26.6358 96.5703 26.917 96.2829 27.1044C95.9955 27.2919 95.5143 27.3856 94.8395 27.3856C93.4898 27.3856 91.9651 26.7608 90.2655 25.511L87.4161 29.4852C88.3909 30.285 89.5469 30.9223 90.8841 31.3972C92.2213 31.8721 93.4898 32.1096 94.6895 32.1096ZM113.585 32.1096C114.635 32.1096 115.51 32.0346 116.21 31.8846C116.91 31.7347 117.509 31.5847 118.009 31.4347L117.035 26.7858C116.81 26.8607 116.553 26.9295 116.266 26.992C115.979 27.0544 115.685 27.0857 115.385 27.0857C114.785 27.0857 114.26 26.892 113.81 26.5046C113.36 26.1171 113.135 25.3986 113.135 24.3488V17.9377H117.41V12.9138H113.135V8.03987H107.812L107.062 12.9138L104.212 13.1388V17.9377H106.687V24.4613C106.687 25.611 106.818 26.6545 107.081 27.5918C107.343 28.5291 107.755 29.3352 108.318 30.01C108.88 30.6849 109.592 31.2035 110.455 31.566C111.317 31.9284 112.361 32.1096 113.585 32.1096Z" fill="#333333"/>
<path d="M135.297 31.6597L137.097 21.9868C137.297 21.037 137.466 20.0747 137.603 19.0999C137.741 18.1252 137.872 17.1879 137.997 16.2881H138.147C138.272 17.1879 138.403 18.1252 138.54 19.0999C138.678 20.0747 138.847 21.037 139.046 21.9868L140.921 31.6597H149.094L153.143 7.29004H146.995L145.645 17.9377C145.52 19.1874 145.383 20.4496 145.233 21.7244C145.083 22.9991 144.945 24.2863 144.82 25.586H144.67C144.445 24.2863 144.22 22.9928 143.995 21.7056C143.77 20.4184 143.545 19.1624 143.321 17.9377L140.996 7.29004H135.597L133.273 17.9377C133.048 19.2124 132.823 20.4871 132.598 21.7619C132.373 23.0366 132.148 24.3113 131.923 25.586H131.773C131.648 24.3113 131.511 23.0366 131.361 21.7619L131.215 20.4871C131.12 19.6373 131.032 18.7875 130.948 17.9377L129.599 7.29004H123L127.274 31.6597H135.297ZM165.141 32.1096C166.191 32.1096 167.334 31.9284 168.571 31.566C169.808 31.2035 170.939 30.6599 171.964 29.9351L169.865 26.1109C169.19 26.4858 168.546 26.767 167.934 26.9545C167.322 27.1419 166.69 27.2357 166.041 27.2357C164.991 27.2357 164.078 27.017 163.304 26.5795C162.529 26.1421 161.991 25.3611 161.691 24.2363H172.377C172.427 24.0114 172.483 23.6489 172.545 23.1491C172.608 22.6492 172.639 22.1118 172.639 21.5369C172.639 20.2872 172.47 19.1124 172.133 18.0127C171.796 16.9129 171.289 15.9506 170.615 15.1258C169.94 14.301 169.09 13.6511 168.065 13.1762C167.04 12.7013 165.841 12.4639 164.466 12.4639C163.316 12.4639 162.204 12.6889 161.129 13.1388C160.054 13.5887 159.098 14.2385 158.261 15.0883C157.424 15.9381 156.749 16.9692 156.236 18.1814C155.724 19.3936 155.468 20.7621 155.468 22.2867C155.468 23.8364 155.718 25.2236 156.218 26.4483C156.718 27.6731 157.399 28.7041 158.261 29.5414C159.123 30.3787 160.142 31.0161 161.317 31.4535C162.491 31.8909 163.766 32.1096 165.141 32.1096ZM167.165 20.0372H161.617C161.816 19.0874 162.185 18.4001 162.723 17.9752C163.26 17.5503 163.891 17.3378 164.616 17.3378C165.591 17.3378 166.259 17.6065 166.622 18.1439C166.984 18.6813 167.165 19.3124 167.165 20.0372ZM182.687 32.1096C183.987 32.1096 185.136 31.9534 186.136 31.6409C187.136 31.3285 187.973 30.8911 188.648 30.3287C189.323 29.7663 189.835 29.104 190.185 28.3417C190.535 27.5793 190.71 26.7608 190.71 25.886C190.71 25.0361 190.566 24.305 190.279 23.6927C189.992 23.0803 189.617 22.5554 189.154 22.118C188.692 21.6806 188.173 21.312 187.598 21.012C187.023 20.7121 186.461 20.4621 185.911 20.2622C185.436 20.0872 184.986 19.931 184.561 19.7935C184.137 19.6561 183.762 19.5124 183.437 19.3624C183.112 19.2124 182.856 19.05 182.668 18.875C182.481 18.7 182.387 18.4876 182.387 18.2376C182.387 17.5378 182.937 17.1879 184.037 17.1879C184.611 17.1879 185.224 17.3253 185.874 17.6003C186.524 17.8752 187.186 18.2626 187.861 18.7625L190.71 14.9384C189.885 14.3135 188.917 13.7449 187.805 13.2325C186.692 12.7201 185.361 12.4639 183.812 12.4639C182.712 12.4639 181.706 12.6076 180.794 12.8951C179.881 13.1825 179.1 13.5887 178.45 14.1135C177.8 14.6384 177.294 15.2758 176.932 16.0256C176.569 16.7755 176.388 17.6128 176.388 18.5376C176.388 19.3124 176.532 19.9935 176.819 20.5809C177.107 21.1682 177.476 21.6869 177.925 22.1368C178.375 22.5867 178.881 22.9678 179.444 23.2803C180.006 23.5927 180.562 23.8614 181.112 24.0863C181.587 24.2863 182.037 24.4613 182.462 24.6112C182.887 24.7612 183.268 24.9174 183.605 25.0799C183.943 25.2423 184.212 25.4173 184.412 25.6048C184.611 25.7922 184.711 26.0109 184.711 26.2609C184.711 26.6358 184.568 26.917 184.28 27.1044C183.993 27.2919 183.512 27.3856 182.837 27.3856C181.487 27.3856 179.962 26.7608 178.263 25.511L175.413 29.4852C176.388 30.285 177.544 30.9223 178.881 31.3972C180.219 31.8721 181.487 32.1096 182.687 32.1096ZM201.583 32.1096C202.632 32.1096 203.507 32.0346 204.207 31.8846C204.907 31.7347 205.507 31.5847 206.007 31.4347L205.032 26.7858C204.807 26.8607 204.551 26.9295 204.263 26.992C203.976 27.0544 203.682 27.0857 203.382 27.0857C202.782 27.0857 202.258 26.892 201.808 26.5046C201.358 26.1171 201.133 25.3986 201.133 24.3488V17.9377H205.407V12.9138H201.133V8.03987H195.809L195.059 12.9138L192.21 13.1388V17.9377H194.684V24.4613C194.684 25.611 194.815 26.6545 195.078 27.5918C195.34 28.5291 195.753 29.3352 196.315 30.01C196.878 30.6849 197.59 31.2035 198.452 31.566C199.314 31.9284 200.358 32.1096 201.583 32.1096Z" fill="#C80030"/>
<path d="M28.9873 21.0508L33.3934 25.4568L23.2212 35.629C21.2685 37.5817 18.1027 37.5817 16.1501 35.629L15.2796 34.7585L28.9873 21.0508Z" fill="#C80030"/>
<path d="M35.7292 23.1216C37.6829 21.17 37.6845 18.0042 35.7329 16.0505L25.566 5.87303L21.1577 10.2768L34.8583 23.9917L35.7292 23.1216Z" fill="#C80030"/>
<path d="M16.15 3.53553C18.1026 1.58291 21.2685 1.58291 23.2211 3.53553L24.0916 4.40606L10.3839 18.1138L5.97782 13.7077L16.15 3.53553Z" fill="#333333"/>
<path d="M4.40625 15.2334L18.114 28.9411L13.7079 33.3472L3.53572 23.175C1.5831 21.2224 1.58311 18.0565 3.53573 16.1039L4.40625 15.2334Z" fill="#333333"/>
<path d="M17.8274 19.1079L19.6382 17.2971L17.4042 15.063C17.2691 14.9282 17.086 14.8525 16.8952 14.8525C16.7044 14.8525 16.5213 14.9282 16.3862 15.063L12.3413 19.1079C12.2066 19.243 12.1309 19.4261 12.1309 19.6169C12.1309 19.8077 12.2066 19.9908 12.3413 20.1258L16.3862 24.1707C16.5213 24.3055 16.7044 24.3812 16.8952 24.3812C17.086 24.3812 17.2691 24.3055 17.4042 24.1707L19.6382 21.9367L17.8274 20.1258C17.6926 19.9908 17.6169 19.8077 17.6169 19.6169C17.6169 19.4261 17.6926 19.243 17.8274 19.1079Z" fill="#333333"/>
<path d="M21.8718 15.063L19.6377 17.2971L21.4485 19.1079C21.5833 19.243 21.659 19.4261 21.659 19.6169C21.659 19.8077 21.5833 19.9908 21.4485 20.1258L19.6377 21.9367L21.8718 24.1707C22.0069 24.3055 22.1899 24.3812 22.3807 24.3812C22.5716 24.3812 22.7546 24.3055 22.8897 24.1707L26.9346 20.1258C27.0694 19.9908 27.1451 19.8077 27.1451 19.6169C27.1451 19.4261 27.0694 19.243 26.9346 19.1079L22.8897 15.063C22.7546 14.9282 22.5716 14.8525 22.3807 14.8525C22.1899 14.8525 22.0069 14.9282 21.8718 15.063Z" fill="#C80030"/>
</svg>
