<svg width="64" height="64" viewBox="0 0 64 64" fill="none" xmlns="http://www.w3.org/2000/svg">
<path d="M47.2455 34.4L54.4269 41.6L35.6157 60.4599C33.6656 62.415 30.5039 62.415 28.5538 60.4599L24.9033 56.8L47.2455 34.4Z" fill="#C80030"/>
<path d="M60.4672 35.5478C62.4183 33.5937 62.42 30.4238 60.4709 28.4676L41.6695 9.59793L34.4843 16.7942L56.8149 39.2058L60.4672 35.5478Z" fill="#C80030"/>
<path d="M28.5538 3.5401C30.5039 1.58496 33.6656 1.58496 35.6157 3.5401L39.2661 7.2L16.924 29.6L9.74256 22.4L28.5538 3.5401Z" fill="#333333"/>
<path d="M7.1814 24.8933L29.5236 47.2933L22.3421 54.4933L3.53095 35.6334C1.58085 33.6782 1.58085 30.5083 3.53095 28.5532L7.1814 24.8933Z" fill="#333333"/>
<path d="M29.0564 31.2243L32.0078 28.2652L28.3665 24.6144C28.1464 24.3942 27.848 24.2705 27.537 24.2705C27.226 24.2705 26.9276 24.3942 26.7074 24.6144L20.1147 31.2243C19.895 31.445 19.7716 31.7441 19.7716 32.056C19.7716 32.3678 19.895 32.6669 20.1147 32.8877L26.7074 39.4975C26.9276 39.7178 27.226 39.8415 27.537 39.8415C27.848 39.8415 28.1464 39.7178 28.3665 39.4975L32.0078 35.8468L29.0564 32.8877C28.8367 32.6669 28.7133 32.3678 28.7133 32.056C28.7133 31.7441 28.8367 31.445 29.0564 31.2243Z" fill="#333333"/>
<path d="M35.6491 24.6144L32.0078 28.2652L34.9593 31.2243C35.179 31.445 35.3023 31.7441 35.3023 32.056C35.3023 32.3678 35.179 32.6669 34.9593 32.8877L32.0078 35.8468L35.6491 39.4975C35.8693 39.7178 36.1676 39.8415 36.4787 39.8415C36.7897 39.8415 37.088 39.7178 37.3082 39.4975L43.901 32.8877C44.1207 32.6669 44.244 32.3678 44.244 32.056C44.244 31.7441 44.1207 31.445 43.901 31.2243L37.3082 24.6144C37.088 24.3942 36.7897 24.2705 36.4787 24.2705C36.1676 24.2705 35.8693 24.3942 35.6491 24.6144Z" fill="#C80030"/>
</svg>
