<svg width="713" height="128" viewBox="0 0 713 128" fill="none" xmlns="http://www.w3.org/2000/svg">
<path d="M171.264 101.952V45.28H152V29.152H209.792V45.28H190.528V101.952H171.264Z" fill="#333333"/>
<path d="M226.915 103.296C224.302 103.296 221.95 102.848 219.859 101.952C217.768 100.981 215.976 99.712 214.483 98.144C213.064 96.576 211.982 94.7467 211.235 92.656C210.488 90.5653 210.115 88.3627 210.115 86.048C210.115 80.224 212.504 75.6693 217.283 72.384C222.062 69.024 229.827 66.784 240.579 65.664C240.131 61.7813 237.518 59.84 232.739 59.84C230.723 59.84 228.595 60.2507 226.355 61.072C224.115 61.8187 221.539 62.976 218.627 64.544L211.907 52C215.864 49.6107 219.859 47.7813 223.891 46.512C227.923 45.2427 232.142 44.608 236.547 44.608C243.79 44.608 249.464 46.6987 253.571 50.88C257.752 54.9867 259.843 61.632 259.843 70.816V101.952H244.163L242.819 96.576H242.371C240.131 98.592 237.742 100.235 235.203 101.504C232.739 102.699 229.976 103.296 226.915 103.296ZM233.635 88.512C235.203 88.512 236.472 88.176 237.443 87.504C238.488 86.7573 239.534 85.824 240.579 84.704V77.088C235.95 77.76 232.776 78.768 231.059 80.112C229.342 81.456 228.483 82.912 228.483 84.48C228.483 87.168 230.2 88.512 233.635 88.512Z" fill="#333333"/>
<path d="M289.65 103.296C286.364 103.296 283.602 102.811 281.362 101.84C279.196 100.795 277.442 99.3387 276.098 97.472C274.754 95.6053 273.783 93.4027 273.186 90.864C272.663 88.2507 272.402 85.376 272.402 82.24V24H291.666V82.912C291.666 84.8533 292.002 86.16 292.674 86.832C293.42 87.504 294.13 87.84 294.802 87.84C295.175 87.84 295.474 87.84 295.698 87.84C295.996 87.84 296.37 87.7653 296.818 87.616L299.058 101.728C298.012 102.176 296.706 102.549 295.138 102.848C293.644 103.147 291.815 103.296 289.65 103.296Z" fill="#333333"/>
<path d="M331.745 103.296C327.638 103.296 323.83 102.661 320.321 101.392C316.812 100.048 313.75 98.144 311.137 95.68C308.598 93.1413 306.582 90.0427 305.089 86.384C303.596 82.7253 302.849 78.5813 302.849 73.952C302.849 69.3973 303.596 65.328 305.089 61.744C306.657 58.0853 308.673 54.9867 311.137 52.448C313.676 49.9093 316.55 47.968 319.761 46.624C322.972 45.28 326.294 44.608 329.729 44.608C333.836 44.608 337.42 45.3173 340.481 46.736C343.542 48.1547 346.081 50.096 348.097 52.56C350.113 55.024 351.606 57.8987 352.577 61.184C353.622 64.4693 354.145 67.9787 354.145 71.712C354.145 73.4293 354.033 75.0347 353.809 76.528C353.66 78.0213 353.51 79.104 353.361 79.776H321.441C322.337 83.136 323.942 85.488 326.257 86.832C328.572 88.1013 331.297 88.736 334.433 88.736C336.374 88.736 338.241 88.4747 340.033 87.952C341.9 87.3547 343.841 86.496 345.857 85.376L352.129 96.8C349.068 98.9653 345.67 100.608 341.937 101.728C338.278 102.773 334.881 103.296 331.745 103.296ZM321.217 67.232H337.793C337.793 65.0667 337.233 63.2 336.113 61.632C335.068 59.9893 333.089 59.168 330.177 59.168C328.012 59.168 326.108 59.8027 324.465 61.072C322.897 62.3413 321.814 64.3947 321.217 67.232Z" fill="#333333"/>
<path d="M364.714 101.952V45.952H380.394L381.738 52.672H382.186C384.426 50.5067 386.965 48.64 389.802 47.072C392.714 45.4293 396.074 44.608 399.882 44.608C406.005 44.608 410.448 46.6987 413.21 50.88C415.973 54.9867 417.354 60.512 417.354 67.456V101.952H398.09V69.92C398.09 66.336 397.642 63.9467 396.746 62.752C395.85 61.5573 394.432 60.96 392.49 60.96C390.698 60.96 389.205 61.3333 388.01 62.08C386.816 62.8267 385.472 63.872 383.978 65.216V101.952H364.714Z" fill="#333333"/>
<path d="M452.974 103.296C449.315 103.296 446.179 102.773 443.566 101.728C441.027 100.608 438.899 99.04 437.182 97.024C435.539 95.008 434.307 92.6187 433.486 89.856C432.739 87.0187 432.366 83.8827 432.366 80.448V60.96H424.974V46.624L433.486 45.952L435.726 31.392H451.63V45.952H464.398V60.96H451.63V80.112C451.63 83.248 452.302 85.4133 453.646 86.608C454.99 87.728 456.558 88.288 458.35 88.288C459.246 88.288 460.104 88.2133 460.926 88.064C461.822 87.84 462.606 87.616 463.278 87.392L466.19 101.28C464.696 101.728 462.904 102.176 460.814 102.624C458.723 103.072 456.11 103.296 452.974 103.296Z" fill="#333333"/>
<path d="M489.376 103.952V31.152H508.64V87.824H536.192V103.952H489.376Z" fill="#C80030"/>
<path d="M561.759 105.296C559.145 105.296 556.793 104.848 554.703 103.952C552.612 102.981 550.82 101.712 549.327 100.144C547.908 98.576 546.825 96.7467 546.079 94.656C545.332 92.5653 544.959 90.3627 544.959 88.048C544.959 82.224 547.348 77.6693 552.127 74.384C556.905 71.024 564.671 68.784 575.423 67.664C574.975 63.7813 572.361 61.84 567.583 61.84C565.567 61.84 563.439 62.2507 561.199 63.072C558.959 63.8187 556.383 64.976 553.471 66.544L546.751 54C550.708 51.6107 554.703 49.7813 558.735 48.512C562.767 47.2427 566.985 46.608 571.391 46.608C578.633 46.608 584.308 48.6987 588.415 52.88C592.596 56.9867 594.687 63.632 594.687 72.816V103.952H579.007L577.663 98.576H577.215C574.975 100.592 572.585 102.235 570.047 103.504C567.583 104.699 564.82 105.296 561.759 105.296ZM568.479 90.512C570.047 90.512 571.316 90.176 572.287 89.504C573.332 88.7573 574.377 87.824 575.423 86.704V79.088C570.793 79.76 567.62 80.768 565.903 82.112C564.185 83.456 563.327 84.912 563.327 86.48C563.327 89.168 565.044 90.512 568.479 90.512Z" fill="#C80030"/>
<path d="M638.381 105.296C635.917 105.296 633.491 104.699 631.101 103.504C628.712 102.235 626.435 100.368 624.269 97.904H623.821L622.253 103.952H607.245V26H626.509V44.144L626.061 52.208C628.003 50.416 630.168 49.0347 632.557 48.064C634.947 47.0933 637.373 46.608 639.837 46.608C643.123 46.608 646.109 47.28 648.797 48.624C651.485 49.968 653.763 51.872 655.629 54.336C657.571 56.8 659.064 59.7867 660.109 63.296C661.155 66.8053 661.677 70.688 661.677 74.944C661.677 79.7973 661.005 84.128 659.661 87.936C658.392 91.6693 656.675 94.8427 654.509 97.456C652.344 99.9947 649.843 101.936 647.005 103.28C644.243 104.624 641.368 105.296 638.381 105.296ZM633.677 89.616C635.917 89.616 637.859 88.5707 639.501 86.48C641.144 84.3893 641.965 80.656 641.965 75.28C641.965 70.6507 641.293 67.328 639.949 65.312C638.68 63.296 636.739 62.288 634.125 62.288C632.632 62.288 631.288 62.5867 630.093 63.184C628.973 63.7813 627.779 64.8267 626.509 66.32V86.928C627.629 87.9733 628.787 88.6827 629.981 89.056C631.176 89.4293 632.408 89.616 633.677 89.616Z" fill="#C80030"/>
<path d="M688.806 105.296C685.222 105.296 681.414 104.587 677.382 103.168C673.425 101.749 669.99 99.8453 667.078 97.456L675.59 85.584C680.667 89.3173 685.222 91.184 689.254 91.184C691.27 91.184 692.689 90.9227 693.51 90.4C694.406 89.8027 694.854 88.944 694.854 87.824C694.854 87.0773 694.555 86.4427 693.958 85.92C693.361 85.3227 692.539 84.8 691.494 84.352C690.523 83.8293 689.403 83.344 688.134 82.896C686.865 82.448 685.521 81.9253 684.102 81.328C682.459 80.656 680.779 79.872 679.062 78.976C677.419 78.0053 675.926 76.848 674.582 75.504C673.238 74.16 672.118 72.6293 671.222 70.912C670.401 69.12 669.99 67.0667 669.99 64.752C669.99 61.9893 670.513 59.488 671.558 57.248C672.678 55.008 674.209 53.104 676.15 51.536C678.091 49.968 680.406 48.7733 683.094 47.952C685.857 47.056 688.881 46.608 692.166 46.608C696.795 46.608 700.753 47.392 704.038 48.96C707.398 50.4533 710.31 52.1333 712.774 54L704.262 65.424C702.246 63.9307 700.267 62.7733 698.326 61.952C696.385 61.1307 694.555 60.72 692.838 60.72C689.553 60.72 687.91 61.7653 687.91 63.856C687.91 64.6027 688.171 65.2373 688.694 65.76C689.291 66.2827 690.075 66.768 691.046 67.216C692.017 67.664 693.137 68.112 694.406 68.56C695.675 68.9333 697.019 69.3813 698.438 69.904C700.081 70.5013 701.761 71.248 703.478 72.144C705.195 73.04 706.726 74.16 708.07 75.504C709.489 76.7733 710.609 78.3413 711.43 80.208C712.326 82 712.774 84.1653 712.774 86.704C712.774 89.3173 712.251 91.7813 711.206 94.096C710.161 96.336 708.63 98.3147 706.614 100.032C704.598 101.675 702.097 102.981 699.11 103.952C696.123 104.848 692.689 105.296 688.806 105.296Z" fill="#C80030"/>
<path fill-rule="evenodd" clip-rule="evenodd" d="M67.4839 118L67.4839 109.3L67.4839 99.7169C84.1957 97.7336 97.7268 84.1995 99.7097 67.4839L108.855 67.4839L118 67.4839C118 94.7741 96.1691 117.428 69.022 118L67.4839 118Z" fill="#333333"/>
<path fill-rule="evenodd" clip-rule="evenodd" d="M60.5161 10.0117L60.5161 18.712L60.5161 28.2948C43.8043 30.2781 30.2732 43.8123 28.2903 60.5278L19.1452 60.5278L10 60.5278C10 33.2376 31.8309 10.5835 58.978 10.0117L60.5161 10.0117Z" fill="#333333"/>
<path fill-rule="evenodd" clip-rule="evenodd" d="M118 60.5161L109.3 60.5161L99.7169 60.5161C97.7336 43.8043 84.1995 30.2732 67.4839 28.2903L67.4839 19.1452L67.4839 10C94.7741 10 117.428 31.8309 118 58.978L118 60.5161Z" fill="#C80030"/>
<path fill-rule="evenodd" clip-rule="evenodd" d="M9.99998 67.4839L18.7003 67.4839L28.2831 67.4839C30.2664 84.1957 43.8005 97.7268 60.5161 99.7097L60.5161 108.855L60.5161 118C33.2259 118 10.5718 96.1691 10 69.022L9.99998 67.4839Z" fill="#C80030"/>
<path fill-rule="evenodd" clip-rule="evenodd" d="M84.3235 81.8601L81.2474 78.7841L77.8594 75.3961C83.0667 68.7864 83.0657 59.2174 77.8569 52.6065L81.0902 49.3732L84.3235 46.1399C93.972 55.7884 94.263 71.5162 84.8672 81.3163L84.3235 81.8601Z" fill="#C80030"/>
<path fill-rule="evenodd" clip-rule="evenodd" d="M43.6804 46.1438L46.7565 49.2198L50.1445 52.6078C44.9372 59.2175 44.9382 68.7865 50.1471 75.3974L46.9138 78.6307L43.6805 81.864C34.0319 72.2155 33.7409 56.4877 43.1367 46.6876L43.6804 46.1438Z" fill="#C80030"/>
<path fill-rule="evenodd" clip-rule="evenodd" d="M81.8602 43.6766L78.7841 46.7526L75.3961 50.1406C68.7864 44.9333 59.2173 44.9344 52.6064 50.1432L49.3731 46.9099L46.1398 43.6766C55.7884 34.028 71.5163 33.737 81.3164 43.1328L81.8602 43.6766Z" fill="#333333"/>
<path fill-rule="evenodd" clip-rule="evenodd" d="M46.1398 84.3273L49.2159 81.2513L52.6039 77.8633C59.2136 83.0706 68.7827 83.0695 75.3936 77.8607L78.6269 81.094L81.8602 84.3273C72.2116 93.9759 56.4837 94.2669 46.6836 84.8711L46.1398 84.3273Z" fill="#333333"/>
</svg>
