<svg width="48" height="48" viewBox="0 0 48 48" fill="none" xmlns="http://www.w3.org/2000/svg">
<circle cx="24" cy="24" r="24" fill="#333333"/>
<path fill-rule="evenodd" clip-rule="evenodd" d="M24.9032 38L24.9032 35.7444L24.9032 33.2599C29.2359 32.7458 32.744 29.2369 33.2581 24.9032L35.629 24.9032L38 24.9032C38 31.9785 32.3401 37.8518 25.302 38L24.9032 38Z" fill="white"/>
<path fill-rule="evenodd" clip-rule="evenodd" d="M23.0968 10.0029V12.2586V14.743C18.7641 15.2572 15.256 18.766 14.7419 23.0997H12.371H10C10 16.0245 15.6599 10.1512 22.698 10.0029L23.0968 10.0029Z" fill="white"/>
<path fill-rule="evenodd" clip-rule="evenodd" d="M38 23.0968L35.7444 23.0968L33.2599 23.0968C32.7458 18.7641 29.2369 15.256 24.9032 14.7419L24.9032 12.371L24.9032 10C31.9785 10 37.8518 15.6599 38 22.698L38 23.0968Z" fill="white"/>
<path fill-rule="evenodd" clip-rule="evenodd" d="M9.99999 24.9032L12.2556 24.9032L14.7401 24.9032C15.2542 29.2359 18.7631 32.744 23.0968 33.2581L23.0968 35.629L23.0968 38C16.0215 38 10.1482 32.3401 10 25.302L9.99999 24.9032Z" fill="white"/>
<path fill-rule="evenodd" clip-rule="evenodd" d="M29.2693 28.6304L28.4718 27.8329L27.5934 26.9545C28.9434 25.2409 28.9432 22.7601 27.5927 21.0461L28.431 20.2079L29.2692 19.3696C31.7707 21.8711 31.8462 25.9487 29.4102 28.4894L29.2693 28.6304Z" fill="white"/>
<path fill-rule="evenodd" clip-rule="evenodd" d="M18.732 19.3706L19.5295 20.1681L20.4078 21.0464C19.0578 22.7601 19.0581 25.2409 20.4085 26.9549L19.5702 27.7931L18.732 28.6314C16.2305 26.1299 16.155 22.0523 18.591 19.5116L18.732 19.3706Z" fill="white"/>
<path fill-rule="evenodd" clip-rule="evenodd" d="M28.6304 18.731L27.8329 19.5285L26.9545 20.4069C25.2409 19.0568 22.7601 19.0571 21.0461 20.4075L20.2079 19.5693L19.3696 18.731C21.8711 16.2295 25.9487 16.1541 28.4894 18.59L28.6304 18.731Z" fill="white"/>
<path fill-rule="evenodd" clip-rule="evenodd" d="M19.3696 29.269L20.1671 28.4715L21.0455 27.5931C22.7591 28.9432 25.2399 28.9429 26.9539 27.5925L27.7921 28.4307L28.6304 29.269C26.1289 31.7705 22.0513 31.8459 19.5106 29.41L19.3696 29.269Z" fill="white"/>
</svg>
