<svg width="550" height="321" viewBox="0 0 550 321" fill="none" xmlns="http://www.w3.org/2000/svg">
<circle cx="270" cy="158" r="143" transform="rotate(5.65933 270 158)" stroke="#D3D3D3" stroke-width="2" stroke-miterlimit="16" stroke-dasharray="10 20"/>
<circle cx="270" cy="158" r="143" stroke="#C80030" stroke-width="2" stroke-miterlimit="16" stroke-dasharray="10 20"/>
<path d="M463.404 50V40.9H466.68C467.156 40.9 467.604 40.9373 468.024 41.012C468.444 41.0773 468.808 41.194 469.116 41.362C469.424 41.53 469.667 41.7633 469.844 42.062C470.031 42.3513 470.124 42.72 470.124 43.168C470.124 43.364 470.096 43.5647 470.04 43.77C469.984 43.966 469.905 44.1573 469.802 44.344C469.709 44.5213 469.592 44.68 469.452 44.82C469.312 44.96 469.154 45.0627 468.976 45.128V45.184C469.415 45.3147 469.784 45.5527 470.082 45.898C470.39 46.234 470.544 46.7053 470.544 47.312C470.544 47.7787 470.446 48.1847 470.25 48.53C470.064 48.866 469.807 49.146 469.48 49.37C469.163 49.5847 468.785 49.7433 468.346 49.846C467.908 49.9487 467.446 50 466.96 50H463.404ZM465.812 44.456H466.624C467.016 44.456 467.306 44.372 467.492 44.204C467.679 44.036 467.772 43.812 467.772 43.532C467.772 43.252 467.679 43.0513 467.492 42.93C467.306 42.8087 467.016 42.748 466.624 42.748H465.812V44.456ZM465.812 48.152H466.792C467.726 48.152 468.192 47.816 468.192 47.144C468.192 46.808 468.076 46.57 467.842 46.43C467.618 46.29 467.268 46.22 466.792 46.22H465.812V48.152ZM473.909 50.168C473.526 50.168 473.195 50.1027 472.915 49.972C472.644 49.832 472.42 49.6407 472.243 49.398C472.065 49.146 471.935 48.8473 471.851 48.502C471.767 48.1473 471.725 47.7507 471.725 47.312V43H474.133V47.004C474.133 47.452 474.189 47.7507 474.301 47.9C474.413 48.0493 474.59 48.124 474.833 48.124C475.057 48.124 475.239 48.0773 475.379 47.984C475.528 47.8907 475.682 47.732 475.841 47.508V43H478.249V50H476.289L476.121 49.076H476.065C475.785 49.412 475.472 49.678 475.127 49.874C474.791 50.07 474.385 50.168 473.909 50.168ZM482.031 50.168C481.583 50.168 481.107 50.0793 480.603 49.902C480.108 49.7247 479.679 49.4867 479.315 49.188L480.379 47.704C481.013 48.1707 481.583 48.404 482.087 48.404C482.339 48.404 482.516 48.3713 482.619 48.306C482.731 48.2313 482.787 48.124 482.787 47.984C482.787 47.8907 482.749 47.8113 482.675 47.746C482.6 47.6713 482.497 47.606 482.367 47.55C482.245 47.4847 482.105 47.424 481.947 47.368C481.788 47.312 481.62 47.2467 481.443 47.172C481.237 47.088 481.027 46.99 480.812 46.878C480.607 46.7567 480.421 46.612 480.253 46.444C480.085 46.276 479.945 46.0847 479.833 45.87C479.73 45.646 479.679 45.3893 479.679 45.1C479.679 44.7547 479.744 44.442 479.875 44.162C480.015 43.882 480.206 43.644 480.449 43.448C480.691 43.252 480.981 43.1027 481.317 43C481.662 42.888 482.04 42.832 482.451 42.832C483.029 42.832 483.524 42.93 483.935 43.126C484.355 43.3127 484.719 43.5227 485.027 43.756L483.963 45.184C483.711 44.9973 483.463 44.8527 483.221 44.75C482.978 44.6473 482.749 44.596 482.535 44.596C482.124 44.596 481.919 44.7267 481.919 44.988C481.919 45.0813 481.951 45.1607 482.017 45.226C482.091 45.2913 482.189 45.352 482.311 45.408C482.432 45.464 482.572 45.52 482.731 45.576C482.889 45.6227 483.057 45.6787 483.235 45.744C483.44 45.8187 483.65 45.912 483.865 46.024C484.079 46.136 484.271 46.276 484.439 46.444C484.616 46.6027 484.756 46.7987 484.859 47.032C484.971 47.256 485.027 47.5267 485.027 47.844C485.027 48.1707 484.961 48.4787 484.831 48.768C484.7 49.048 484.509 49.2953 484.257 49.51C484.005 49.7153 483.692 49.8787 483.319 50C482.945 50.112 482.516 50.168 482.031 50.168ZM486.205 50V43H488.613V50H486.205ZM487.409 42.132C487.017 42.132 486.695 42.02 486.443 41.796C486.191 41.572 486.065 41.2827 486.065 40.928C486.065 40.5733 486.191 40.284 486.443 40.06C486.695 39.836 487.017 39.724 487.409 39.724C487.801 39.724 488.123 39.836 488.375 40.06C488.627 40.284 488.753 40.5733 488.753 40.928C488.753 41.2827 488.627 41.572 488.375 41.796C488.123 42.02 487.801 42.132 487.409 42.132ZM490.238 50V43H492.198L492.366 43.84H492.422C492.702 43.5693 493.019 43.336 493.374 43.14C493.738 42.9347 494.158 42.832 494.634 42.832C495.399 42.832 495.954 43.0933 496.3 43.616C496.645 44.1293 496.818 44.82 496.818 45.688V50H494.41V45.996C494.41 45.548 494.354 45.2493 494.242 45.1C494.13 44.9507 493.952 44.876 493.71 44.876C493.486 44.876 493.299 44.9227 493.15 45.016C493 45.1093 492.832 45.24 492.646 45.408V50H490.238ZM501.634 50.168C501.121 50.168 500.645 50.0887 500.206 49.93C499.768 49.762 499.385 49.524 499.058 49.216C498.741 48.8987 498.489 48.5113 498.302 48.054C498.116 47.5967 498.022 47.0787 498.022 46.5C498.022 45.9307 498.116 45.422 498.302 44.974C498.498 44.5167 498.75 44.1293 499.058 43.812C499.376 43.4947 499.735 43.252 500.136 43.084C500.538 42.916 500.953 42.832 501.382 42.832C501.896 42.832 502.344 42.9207 502.726 43.098C503.109 43.2753 503.426 43.518 503.678 43.826C503.93 44.134 504.117 44.4933 504.238 44.904C504.369 45.3147 504.434 45.7533 504.434 46.22C504.434 46.4347 504.42 46.6353 504.392 46.822C504.374 47.0087 504.355 47.144 504.336 47.228H500.346C500.458 47.648 500.659 47.942 500.948 48.11C501.238 48.2687 501.578 48.348 501.97 48.348C502.213 48.348 502.446 48.3153 502.67 48.25C502.904 48.1753 503.146 48.068 503.398 47.928L504.182 49.356C503.8 49.6267 503.375 49.832 502.908 49.972C502.451 50.1027 502.026 50.168 501.634 50.168ZM500.318 45.66H502.39C502.39 45.3893 502.32 45.156 502.18 44.96C502.05 44.7547 501.802 44.652 501.438 44.652C501.168 44.652 500.93 44.7313 500.724 44.89C500.528 45.0487 500.393 45.3053 500.318 45.66ZM507.911 50.168C507.463 50.168 506.987 50.0793 506.483 49.902C505.989 49.7247 505.559 49.4867 505.195 49.188L506.259 47.704C506.894 48.1707 507.463 48.404 507.967 48.404C508.219 48.404 508.397 48.3713 508.499 48.306C508.611 48.2313 508.667 48.124 508.667 47.984C508.667 47.8907 508.63 47.8113 508.555 47.746C508.481 47.6713 508.378 47.606 508.247 47.55C508.126 47.4847 507.986 47.424 507.827 47.368C507.669 47.312 507.501 47.2467 507.323 47.172C507.118 47.088 506.908 46.99 506.693 46.878C506.488 46.7567 506.301 46.612 506.133 46.444C505.965 46.276 505.825 46.0847 505.713 45.87C505.611 45.646 505.559 45.3893 505.559 45.1C505.559 44.7547 505.625 44.442 505.755 44.162C505.895 43.882 506.087 43.644 506.329 43.448C506.572 43.252 506.861 43.1027 507.197 43C507.543 42.888 507.921 42.832 508.331 42.832C508.91 42.832 509.405 42.93 509.815 43.126C510.235 43.3127 510.599 43.5227 510.907 43.756L509.843 45.184C509.591 44.9973 509.344 44.8527 509.101 44.75C508.859 44.6473 508.63 44.596 508.415 44.596C508.005 44.596 507.799 44.7267 507.799 44.988C507.799 45.0813 507.832 45.1607 507.897 45.226C507.972 45.2913 508.07 45.352 508.191 45.408C508.313 45.464 508.453 45.52 508.611 45.576C508.77 45.6227 508.938 45.6787 509.115 45.744C509.321 45.8187 509.531 45.912 509.745 46.024C509.96 46.136 510.151 46.276 510.319 46.444C510.497 46.6027 510.637 46.7987 510.739 47.032C510.851 47.256 510.907 47.5267 510.907 47.844C510.907 48.1707 510.842 48.4787 510.711 48.768C510.581 49.048 510.389 49.2953 510.137 49.51C509.885 49.7153 509.573 49.8787 509.199 50C508.826 50.112 508.397 50.168 507.911 50.168ZM514.241 50.168C513.793 50.168 513.317 50.0793 512.813 49.902C512.319 49.7247 511.889 49.4867 511.525 49.188L512.589 47.704C513.224 48.1707 513.793 48.404 514.297 48.404C514.549 48.404 514.727 48.3713 514.829 48.306C514.941 48.2313 514.997 48.124 514.997 47.984C514.997 47.8907 514.96 47.8113 514.885 47.746C514.811 47.6713 514.708 47.606 514.577 47.55C514.456 47.4847 514.316 47.424 514.157 47.368C513.999 47.312 513.831 47.2467 513.653 47.172C513.448 47.088 513.238 46.99 513.023 46.878C512.818 46.7567 512.631 46.612 512.463 46.444C512.295 46.276 512.155 46.0847 512.043 45.87C511.941 45.646 511.889 45.3893 511.889 45.1C511.889 44.7547 511.955 44.442 512.085 44.162C512.225 43.882 512.417 43.644 512.659 43.448C512.902 43.252 513.191 43.1027 513.527 43C513.873 42.888 514.251 42.832 514.661 42.832C515.24 42.832 515.735 42.93 516.145 43.126C516.565 43.3127 516.929 43.5227 517.237 43.756L516.173 45.184C515.921 44.9973 515.674 44.8527 515.431 44.75C515.189 44.6473 514.96 44.596 514.745 44.596C514.335 44.596 514.129 44.7267 514.129 44.988C514.129 45.0813 514.162 45.1607 514.227 45.226C514.302 45.2913 514.4 45.352 514.521 45.408C514.643 45.464 514.783 45.52 514.941 45.576C515.1 45.6227 515.268 45.6787 515.445 45.744C515.651 45.8187 515.861 45.912 516.075 46.024C516.29 46.136 516.481 46.276 516.649 46.444C516.827 46.6027 516.967 46.7987 517.069 47.032C517.181 47.256 517.237 47.5267 517.237 47.844C517.237 48.1707 517.172 48.4787 517.041 48.768C516.911 49.048 516.719 49.2953 516.467 49.51C516.215 49.7153 515.903 49.8787 515.529 50C515.156 50.112 514.727 50.168 514.241 50.168ZM453.653 70.168C453.327 70.168 453.033 70.112 452.771 70C452.51 69.8787 452.286 69.72 452.099 69.524C451.922 69.328 451.787 69.0993 451.693 68.838C451.6 68.5767 451.553 68.3013 451.553 68.012C451.553 67.284 451.852 66.7147 452.449 66.304C453.047 65.884 454.017 65.604 455.361 65.464C455.305 64.9787 454.979 64.736 454.381 64.736C454.129 64.736 453.863 64.7873 453.583 64.89C453.303 64.9833 452.981 65.128 452.617 65.324L451.777 63.756C452.272 63.4573 452.771 63.2287 453.275 63.07C453.779 62.9113 454.307 62.832 454.857 62.832C455.763 62.832 456.472 63.0933 456.985 63.616C457.508 64.1293 457.769 64.96 457.769 66.108V70H455.809L455.641 69.328H455.585C455.305 69.58 455.007 69.7853 454.689 69.944C454.381 70.0933 454.036 70.168 453.653 70.168ZM454.493 68.32C454.689 68.32 454.848 68.278 454.969 68.194C455.1 68.1007 455.231 67.984 455.361 67.844V66.892C454.783 66.976 454.386 67.102 454.171 67.27C453.957 67.438 453.849 67.62 453.849 67.816C453.849 68.152 454.064 68.32 454.493 68.32ZM459.339 70V63H461.299L461.467 64.204H461.523C461.785 63.728 462.093 63.3827 462.447 63.168C462.811 62.944 463.166 62.832 463.511 62.832C463.726 62.832 463.899 62.846 464.029 62.874C464.16 62.8927 464.277 62.9253 464.379 62.972L463.987 65.044C463.857 65.016 463.731 64.9927 463.609 64.974C463.497 64.946 463.362 64.932 463.203 64.932C462.951 64.932 462.685 65.0207 462.405 65.198C462.135 65.366 461.915 65.6693 461.747 66.108V70H459.339ZM468.218 70.168C467.724 70.168 467.262 70.0887 466.832 69.93C466.403 69.762 466.03 69.524 465.712 69.216C465.395 68.8987 465.143 68.5113 464.956 68.054C464.779 67.5967 464.69 67.0787 464.69 66.5C464.69 65.9213 464.793 65.4033 464.998 64.946C465.204 64.4887 465.479 64.106 465.824 63.798C466.17 63.4807 466.566 63.2427 467.014 63.084C467.472 62.916 467.948 62.832 468.442 62.832C468.862 62.832 469.24 62.8973 469.576 63.028C469.912 63.1587 470.216 63.336 470.486 63.56L469.366 65.1C469.208 64.9693 469.068 64.8807 468.946 64.834C468.834 64.7873 468.713 64.764 468.582 64.764C468.134 64.764 467.784 64.9227 467.532 65.24C467.28 65.548 467.154 65.968 467.154 66.5C467.154 67.032 467.28 67.4567 467.532 67.774C467.794 68.082 468.116 68.236 468.498 68.236C468.694 68.236 468.886 68.194 469.072 68.11C469.268 68.026 469.45 67.9187 469.618 67.788L470.542 69.356C470.188 69.664 469.8 69.8787 469.38 70C468.97 70.112 468.582 70.168 468.218 70.168ZM471.658 70V60.256H474.066V62.524L473.954 63.728C474.196 63.5133 474.486 63.3127 474.822 63.126C475.167 62.93 475.578 62.832 476.054 62.832C476.819 62.832 477.374 63.0933 477.72 63.616C478.065 64.1293 478.238 64.82 478.238 65.688V70H475.83V65.996C475.83 65.548 475.774 65.2493 475.662 65.1C475.55 64.9507 475.372 64.876 475.13 64.876C474.906 64.876 474.719 64.9227 474.57 65.016C474.42 65.1093 474.252 65.24 474.066 65.408V70H471.658ZM479.806 70V63H482.214V70H479.806ZM481.01 62.132C480.618 62.132 480.296 62.02 480.044 61.796C479.792 61.572 479.666 61.2827 479.666 60.928C479.666 60.5733 479.792 60.284 480.044 60.06C480.296 59.836 480.618 59.724 481.01 59.724C481.402 59.724 481.724 59.836 481.976 60.06C482.228 60.284 482.354 60.5733 482.354 60.928C482.354 61.2827 482.228 61.572 481.976 61.796C481.724 62.02 481.402 62.132 481.01 62.132ZM486.723 70.168C486.266 70.168 485.874 70.1027 485.547 69.972C485.23 69.832 484.964 69.636 484.749 69.384C484.544 69.132 484.39 68.8333 484.287 68.488C484.194 68.1333 484.147 67.7413 484.147 67.312V64.876H483.223V63.084L484.287 63L484.567 61.18H486.555V63H488.151V64.876H486.555V67.27C486.555 67.662 486.639 67.9327 486.807 68.082C486.975 68.222 487.171 68.292 487.395 68.292C487.507 68.292 487.615 68.2827 487.717 68.264C487.829 68.236 487.927 68.208 488.011 68.18L488.375 69.916C488.189 69.972 487.965 70.028 487.703 70.084C487.442 70.14 487.115 70.168 486.723 70.168ZM492.419 70.168C491.906 70.168 491.43 70.0887 490.991 69.93C490.553 69.762 490.17 69.524 489.843 69.216C489.526 68.8987 489.274 68.5113 489.087 68.054C488.901 67.5967 488.807 67.0787 488.807 66.5C488.807 65.9307 488.901 65.422 489.087 64.974C489.283 64.5167 489.535 64.1293 489.843 63.812C490.161 63.4947 490.52 63.252 490.921 63.084C491.323 62.916 491.738 62.832 492.167 62.832C492.681 62.832 493.129 62.9207 493.511 63.098C493.894 63.2753 494.211 63.518 494.463 63.826C494.715 64.134 494.902 64.4933 495.023 64.904C495.154 65.3147 495.219 65.7533 495.219 66.22C495.219 66.4347 495.205 66.6353 495.177 66.822C495.159 67.0087 495.14 67.144 495.121 67.228H491.131C491.243 67.648 491.444 67.942 491.733 68.11C492.023 68.2687 492.363 68.348 492.755 68.348C492.998 68.348 493.231 68.3153 493.455 68.25C493.689 68.1753 493.931 68.068 494.183 67.928L494.967 69.356C494.585 69.6267 494.16 69.832 493.693 69.972C493.236 70.1027 492.811 70.168 492.419 70.168ZM491.103 65.66H493.175C493.175 65.3893 493.105 65.156 492.965 64.96C492.835 64.7547 492.587 64.652 492.223 64.652C491.953 64.652 491.715 64.7313 491.509 64.89C491.313 65.0487 491.178 65.3053 491.103 65.66ZM499.705 70.168C499.21 70.168 498.748 70.0887 498.319 69.93C497.889 69.762 497.516 69.524 497.199 69.216C496.881 68.8987 496.629 68.5113 496.443 68.054C496.265 67.5967 496.177 67.0787 496.177 66.5C496.177 65.9213 496.279 65.4033 496.485 64.946C496.69 64.4887 496.965 64.106 497.311 63.798C497.656 63.4807 498.053 63.2427 498.501 63.084C498.958 62.916 499.434 62.832 499.929 62.832C500.349 62.832 500.727 62.8973 501.063 63.028C501.399 63.1587 501.702 63.336 501.973 63.56L500.853 65.1C500.694 64.9693 500.554 64.8807 500.433 64.834C500.321 64.7873 500.199 64.764 500.069 64.764C499.621 64.764 499.271 64.9227 499.019 65.24C498.767 65.548 498.641 65.968 498.641 66.5C498.641 67.032 498.767 67.4567 499.019 67.774C499.28 68.082 499.602 68.236 499.985 68.236C500.181 68.236 500.372 68.194 500.559 68.11C500.755 68.026 500.937 67.9187 501.105 67.788L502.029 69.356C501.674 69.664 501.287 69.8787 500.867 70C500.456 70.112 500.069 70.168 499.705 70.168ZM505.891 70.168C505.434 70.168 505.042 70.1027 504.715 69.972C504.398 69.832 504.132 69.636 503.917 69.384C503.712 69.132 503.558 68.8333 503.455 68.488C503.362 68.1333 503.315 67.7413 503.315 67.312V64.876H502.391V63.084L503.455 63L503.735 61.18H505.723V63H507.319V64.876H505.723V67.27C505.723 67.662 505.807 67.9327 505.975 68.082C506.143 68.222 506.339 68.292 506.563 68.292C506.675 68.292 506.783 68.2827 506.885 68.264C506.997 68.236 507.095 68.208 507.179 68.18L507.543 69.916C507.357 69.972 507.133 70.028 506.871 70.084C506.61 70.14 506.283 70.168 505.891 70.168ZM510.741 70.168C510.358 70.168 510.027 70.1027 509.747 69.972C509.476 69.832 509.252 69.6407 509.075 69.398C508.897 69.146 508.767 68.8473 508.683 68.502C508.599 68.1473 508.557 67.7507 508.557 67.312V63H510.965V67.004C510.965 67.452 511.021 67.7507 511.133 67.9C511.245 68.0493 511.422 68.124 511.665 68.124C511.889 68.124 512.071 68.0773 512.211 67.984C512.36 67.8907 512.514 67.732 512.673 67.508V63H515.081V70H513.121L512.953 69.076H512.897C512.617 69.412 512.304 69.678 511.959 69.874C511.623 70.07 511.217 70.168 510.741 70.168ZM516.707 70V63H518.667L518.835 64.204H518.891C519.152 63.728 519.46 63.3827 519.815 63.168C520.179 62.944 520.533 62.832 520.879 62.832C521.093 62.832 521.266 62.846 521.397 62.874C521.527 62.8927 521.644 62.9253 521.747 62.972L521.355 65.044C521.224 65.016 521.098 64.9927 520.977 64.974C520.865 64.946 520.729 64.932 520.571 64.932C520.319 64.932 520.053 65.0207 519.773 65.198C519.502 65.366 519.283 65.6693 519.115 66.108V70H516.707ZM525.669 70.168C525.156 70.168 524.68 70.0887 524.241 69.93C523.803 69.762 523.42 69.524 523.093 69.216C522.776 68.8987 522.524 68.5113 522.337 68.054C522.151 67.5967 522.057 67.0787 522.057 66.5C522.057 65.9307 522.151 65.422 522.337 64.974C522.533 64.5167 522.785 64.1293 523.093 63.812C523.411 63.4947 523.77 63.252 524.171 63.084C524.573 62.916 524.988 62.832 525.417 62.832C525.931 62.832 526.379 62.9207 526.761 63.098C527.144 63.2753 527.461 63.518 527.713 63.826C527.965 64.134 528.152 64.4933 528.273 64.904C528.404 65.3147 528.469 65.7533 528.469 66.22C528.469 66.4347 528.455 66.6353 528.427 66.822C528.409 67.0087 528.39 67.144 528.371 67.228H524.381C524.493 67.648 524.694 67.942 524.983 68.11C525.273 68.2687 525.613 68.348 526.005 68.348C526.248 68.348 526.481 68.3153 526.705 68.25C526.939 68.1753 527.181 68.068 527.433 67.928L528.217 69.356C527.835 69.6267 527.41 69.832 526.943 69.972C526.486 70.1027 526.061 70.168 525.669 70.168ZM524.353 65.66H526.425C526.425 65.3893 526.355 65.156 526.215 64.96C526.085 64.7547 525.837 64.652 525.473 64.652C525.203 64.652 524.965 64.7313 524.759 64.89C524.563 65.0487 524.428 65.3053 524.353 65.66Z" fill="#333333"/>
<g filter="url(#filter0_d)">
<circle cx="370" cy="54" r="40" fill="white"/>
</g>
<path d="M367.713 59.1426C367.282 59.1426 366.932 59.4923 366.932 59.9241V59.9373C366.932 60.3688 367.282 60.7188 367.713 60.7188C368.145 60.7188 368.494 60.3691 368.494 59.9373V59.9241C368.494 59.4923 368.145 59.1426 367.713 59.1426Z" fill="#333333" fill-opacity="0.5"/>
<path d="M372.813 59.1426C372.382 59.1426 372.032 59.4923 372.032 59.9241V59.9373C372.032 60.3688 372.382 60.7188 372.813 60.7188C373.245 60.7188 373.595 60.3691 373.595 59.9373V59.9241C373.595 59.4923 373.245 59.1426 372.813 59.1426Z" fill="#333333" fill-opacity="0.5"/>
<path d="M388.027 67.9477V65.7632C388.027 65.3317 387.677 64.982 387.245 64.982H385.423V53.6307H386.69C387.439 53.6307 388.049 53.021 388.049 52.2718V50.546H388.8C389.231 50.546 389.582 50.196 389.582 49.7644V46.8171C389.582 46.3855 389.231 46.0355 388.8 46.0355H387.978V44.4669C387.978 44.2408 387.88 44.0253 387.709 43.877L376.557 34.1917C376.415 34.0681 376.233 34 376.044 34H363.521C363.333 34 363.151 34.0681 363.009 34.1917L359.694 37.0728C359.368 37.356 359.333 37.8495 359.617 38.1751C359.9 38.501 360.393 38.5355 360.719 38.2523L363.813 35.5628H375.753L386.415 44.8233V46.0355H377.865C377.867 46.0263 377.867 46.0172 377.869 46.008C377.96 45.5249 378.008 45.0269 378.008 44.5179C378.008 40.1044 374.416 36.5137 369.999 36.5137C365.583 36.5137 361.989 40.1044 361.989 44.5179C361.989 45.0333 362.039 45.5375 362.133 46.026C362.133 46.0294 362.133 46.0321 362.134 46.0355H353.151V44.8233L356.212 42.165C356.538 41.8818 356.573 41.3883 356.29 41.0624C356.007 40.7367 355.513 40.702 355.187 40.9848L351.857 43.877C351.686 44.0253 351.588 44.2408 351.588 44.4669V46.0355H351.362C350.93 46.0355 350.58 46.3855 350.58 46.8171V49.7644C350.58 50.196 350.93 50.546 351.362 50.546H352.157V52.2718C352.157 53.021 352.767 53.6307 353.517 53.6307H354.792V64.982H352.752C352.321 64.982 351.971 65.3317 351.971 65.7635V67.948C350.861 68.0884 350 69.0366 350 70.1822C350 71.4258 351.012 72.4374 352.256 72.4374H387.744C388.988 72.4374 390 71.4258 390 70.1822C390 69.0359 389.138 68.0872 388.027 67.9477ZM383.86 64.982H382.123V53.6307H383.86V64.982ZM376.241 64.982V54.6305C376.241 54.1989 375.891 53.8492 375.46 53.8492H365.067C364.636 53.8492 364.286 54.1989 364.286 54.6305V64.982H359.655V53.6307H360.924C361.674 53.6307 362.283 53.021 362.283 52.2718V50.546H364.735C366.144 51.7758 367.986 52.522 369.999 52.522C372.012 52.522 373.854 51.7758 375.262 50.546H377.923V52.2718C377.923 53.021 378.534 53.6307 379.284 53.6307H380.56V64.982H376.241ZM371.044 64.982V55.412H374.678V64.982H371.044ZM365.849 64.982V55.412H369.481V64.982H365.849ZM386.486 52.0676H379.485V50.546H386.486V52.0676ZM377.393 47.5986H388.018V48.9832H376.646C376.94 48.5474 377.19 48.0829 377.393 47.5986ZM369.999 38.0768C373.554 38.0768 376.446 40.9662 376.446 44.5179C376.446 48.0695 373.554 50.9592 369.999 50.9592C366.444 50.9592 363.552 48.0695 363.552 44.5179C363.552 40.9662 366.444 38.0768 369.999 38.0768ZM352.143 47.5986H362.605C362.807 48.0829 363.058 48.5471 363.351 48.9832H352.143V47.5986ZM353.72 50.546H360.72V52.0676H353.72V50.546ZM356.355 53.6307H358.092V64.982H356.355V53.6307ZM386.464 66.5448V67.9294H353.534V66.5448H386.464ZM387.743 70.8746H352.256C351.874 70.8746 351.563 70.564 351.563 70.1822C351.563 69.8016 351.874 69.4922 352.256 69.4922H387.744C388.126 69.4922 388.437 69.8016 388.437 70.1822C388.437 70.564 388.126 70.8746 387.743 70.8746Z" fill="#333333" fill-opacity="0.5"/>
<path d="M372.516 45.7241C372.516 46.3436 372.337 46.8438 371.978 47.2176C371.619 47.5917 371.185 47.8395 370.674 47.9592V48.8753C370.674 49.2626 370.344 49.5809 369.956 49.5809C369.569 49.5809 369.252 49.2623 369.252 48.8753V47.9656C368.933 47.8926 368.645 47.7755 368.388 47.6116C368.125 47.4456 367.941 47.2975 367.839 47.1691L367.682 46.9655C367.033 46.1156 368.105 45.2086 368.729 45.8635C368.807 45.9432 368.884 46.0384 368.977 46.14C369.239 46.4299 369.622 46.4766 369.932 46.4766C370.523 46.4766 370.818 46.2331 370.818 45.7463C370.818 45.5715 370.707 45.4366 370.483 45.3414C370.259 45.244 369.987 45.1598 369.668 45.0823C369.349 45.0072 369.031 44.9053 368.712 44.7792C368.393 44.6511 368.123 44.4319 367.899 44.1198C367.675 43.81 367.562 43.4163 367.562 42.9381C367.562 42.4581 367.717 42.0308 368.019 41.646C368.315 41.2654 368.745 41.0063 369.263 40.9069L369.265 40.0838C369.265 39.6965 369.582 39.3779 369.97 39.3779C370.357 39.3779 370.674 39.6965 370.674 40.0838V40.9157C370.897 40.9642 371.101 41.0329 371.285 41.1193C371.469 41.2078 371.595 41.2786 371.668 41.3338L371.774 41.4312C372.702 42.1239 371.808 43.3544 371.008 42.6815C370.465 42.2255 369.239 42.126 369.239 42.9604C369.239 43.1374 369.321 43.279 369.484 43.3852C369.646 43.4935 369.848 43.5643 370.087 43.5997C370.328 43.6376 370.589 43.6971 370.877 43.7789C371.165 43.8631 371.429 43.9604 371.668 44.0734C371.907 44.1838 372.109 44.381 372.272 44.6642C372.434 44.9474 372.516 45.3014 372.516 45.7241Z" fill="#333333" fill-opacity="0.5"/>
<path d="M358.087 40.3032C357.858 40.3032 357.631 40.2028 357.477 40.0099C357.207 39.673 357.262 39.1811 357.599 38.9116L357.61 38.9027C357.947 38.633 358.439 38.6879 358.709 39.0248C358.978 39.3617 358.923 39.8534 358.586 40.1231L358.575 40.132C358.431 40.2473 358.259 40.3032 358.087 40.3032Z" fill="#333333" fill-opacity="0.5"/>
<path d="M466.87 257V247.9H470.202C470.697 247.9 471.168 247.951 471.616 248.054C472.064 248.147 472.456 248.315 472.792 248.558C473.128 248.791 473.394 249.104 473.59 249.496C473.796 249.879 473.898 250.355 473.898 250.924C473.898 251.484 473.796 251.965 473.59 252.366C473.394 252.767 473.128 253.099 472.792 253.36C472.456 253.612 472.069 253.803 471.63 253.934C471.192 254.055 470.734 254.116 470.258 254.116H469.278V257H466.87ZM469.278 252.212H470.146C470.622 252.212 470.972 252.1 471.196 251.876C471.43 251.652 471.546 251.335 471.546 250.924C471.546 250.513 471.42 250.224 471.168 250.056C470.916 249.888 470.557 249.804 470.09 249.804H469.278V252.212ZM475.192 257V250H477.152L477.32 251.204H477.376C477.637 250.728 477.945 250.383 478.3 250.168C478.664 249.944 479.019 249.832 479.364 249.832C479.579 249.832 479.751 249.846 479.882 249.874C480.013 249.893 480.129 249.925 480.232 249.972L479.84 252.044C479.709 252.016 479.583 251.993 479.462 251.974C479.35 251.946 479.215 251.932 479.056 251.932C478.804 251.932 478.538 252.021 478.258 252.198C477.987 252.366 477.768 252.669 477.6 253.108V257H475.192ZM484.015 257.168C483.567 257.168 483.133 257.089 482.713 256.93C482.293 256.762 481.919 256.524 481.593 256.216C481.275 255.899 481.019 255.511 480.823 255.054C480.636 254.597 480.543 254.079 480.543 253.5C480.543 252.921 480.636 252.403 480.823 251.946C481.019 251.489 481.275 251.106 481.593 250.798C481.919 250.481 482.293 250.243 482.713 250.084C483.133 249.916 483.567 249.832 484.015 249.832C484.463 249.832 484.892 249.916 485.303 250.084C485.723 250.243 486.091 250.481 486.409 250.798C486.735 251.106 486.997 251.489 487.193 251.946C487.389 252.403 487.487 252.921 487.487 253.5C487.487 254.079 487.389 254.597 487.193 255.054C486.997 255.511 486.735 255.899 486.409 256.216C486.091 256.524 485.723 256.762 485.303 256.93C484.892 257.089 484.463 257.168 484.015 257.168ZM484.015 255.236C484.379 255.236 484.635 255.082 484.785 254.774C484.943 254.457 485.023 254.032 485.023 253.5C485.023 252.968 484.943 252.548 484.785 252.24C484.635 251.923 484.379 251.764 484.015 251.764C483.651 251.764 483.389 251.923 483.231 252.24C483.081 252.548 483.007 252.968 483.007 253.5C483.007 254.032 483.081 254.457 483.231 254.774C483.389 255.082 483.651 255.236 484.015 255.236ZM491.905 257.168C491.41 257.168 490.948 257.089 490.519 256.93C490.089 256.762 489.716 256.524 489.399 256.216C489.081 255.899 488.829 255.511 488.643 255.054C488.465 254.597 488.377 254.079 488.377 253.5C488.377 252.921 488.479 252.403 488.685 251.946C488.89 251.489 489.165 251.106 489.511 250.798C489.856 250.481 490.253 250.243 490.701 250.084C491.158 249.916 491.634 249.832 492.129 249.832C492.549 249.832 492.927 249.897 493.263 250.028C493.599 250.159 493.902 250.336 494.173 250.56L493.053 252.1C492.894 251.969 492.754 251.881 492.633 251.834C492.521 251.787 492.399 251.764 492.269 251.764C491.821 251.764 491.471 251.923 491.219 252.24C490.967 252.548 490.841 252.968 490.841 253.5C490.841 254.032 490.967 254.457 491.219 254.774C491.48 255.082 491.802 255.236 492.185 255.236C492.381 255.236 492.572 255.194 492.759 255.11C492.955 255.026 493.137 254.919 493.305 254.788L494.229 256.356C493.874 256.664 493.487 256.879 493.067 257C492.656 257.112 492.269 257.168 491.905 257.168ZM498.168 257.168C497.655 257.168 497.179 257.089 496.74 256.93C496.302 256.762 495.919 256.524 495.592 256.216C495.275 255.899 495.023 255.511 494.836 255.054C494.65 254.597 494.556 254.079 494.556 253.5C494.556 252.931 494.65 252.422 494.836 251.974C495.032 251.517 495.284 251.129 495.592 250.812C495.91 250.495 496.269 250.252 496.67 250.084C497.072 249.916 497.487 249.832 497.916 249.832C498.43 249.832 498.878 249.921 499.26 250.098C499.643 250.275 499.96 250.518 500.212 250.826C500.464 251.134 500.651 251.493 500.772 251.904C500.903 252.315 500.968 252.753 500.968 253.22C500.968 253.435 500.954 253.635 500.926 253.822C500.908 254.009 500.889 254.144 500.87 254.228H496.88C496.992 254.648 497.193 254.942 497.482 255.11C497.772 255.269 498.112 255.348 498.504 255.348C498.747 255.348 498.98 255.315 499.204 255.25C499.438 255.175 499.68 255.068 499.932 254.928L500.716 256.356C500.334 256.627 499.909 256.832 499.442 256.972C498.985 257.103 498.56 257.168 498.168 257.168ZM496.852 252.66H498.924C498.924 252.389 498.854 252.156 498.714 251.96C498.584 251.755 498.336 251.652 497.972 251.652C497.702 251.652 497.464 251.731 497.258 251.89C497.062 252.049 496.927 252.305 496.852 252.66ZM504.446 257.168C503.998 257.168 503.522 257.079 503.018 256.902C502.523 256.725 502.094 256.487 501.73 256.188L502.794 254.704C503.428 255.171 503.998 255.404 504.502 255.404C504.754 255.404 504.931 255.371 505.034 255.306C505.146 255.231 505.202 255.124 505.202 254.984C505.202 254.891 505.164 254.811 505.09 254.746C505.015 254.671 504.912 254.606 504.782 254.55C504.66 254.485 504.52 254.424 504.362 254.368C504.203 254.312 504.035 254.247 503.858 254.172C503.652 254.088 503.442 253.99 503.228 253.878C503.022 253.757 502.836 253.612 502.668 253.444C502.5 253.276 502.36 253.085 502.248 252.87C502.145 252.646 502.094 252.389 502.094 252.1C502.094 251.755 502.159 251.442 502.29 251.162C502.43 250.882 502.621 250.644 502.864 250.448C503.106 250.252 503.396 250.103 503.732 250C504.077 249.888 504.455 249.832 504.866 249.832C505.444 249.832 505.939 249.93 506.35 250.126C506.77 250.313 507.134 250.523 507.442 250.756L506.378 252.184C506.126 251.997 505.878 251.853 505.636 251.75C505.393 251.647 505.164 251.596 504.95 251.596C504.539 251.596 504.334 251.727 504.334 251.988C504.334 252.081 504.366 252.161 504.432 252.226C504.506 252.291 504.604 252.352 504.726 252.408C504.847 252.464 504.987 252.52 505.146 252.576C505.304 252.623 505.472 252.679 505.65 252.744C505.855 252.819 506.065 252.912 506.28 253.024C506.494 253.136 506.686 253.276 506.854 253.444C507.031 253.603 507.171 253.799 507.274 254.032C507.386 254.256 507.442 254.527 507.442 254.844C507.442 255.171 507.376 255.479 507.246 255.768C507.115 256.048 506.924 256.295 506.672 256.51C506.42 256.715 506.107 256.879 505.734 257C505.36 257.112 504.931 257.168 504.446 257.168ZM510.776 257.168C510.328 257.168 509.852 257.079 509.348 256.902C508.853 256.725 508.424 256.487 508.06 256.188L509.124 254.704C509.758 255.171 510.328 255.404 510.832 255.404C511.084 255.404 511.261 255.371 511.364 255.306C511.476 255.231 511.532 255.124 511.532 254.984C511.532 254.891 511.494 254.811 511.42 254.746C511.345 254.671 511.242 254.606 511.112 254.55C510.99 254.485 510.85 254.424 510.692 254.368C510.533 254.312 510.365 254.247 510.188 254.172C509.982 254.088 509.772 253.99 509.558 253.878C509.352 253.757 509.166 253.612 508.998 253.444C508.83 253.276 508.69 253.085 508.578 252.87C508.475 252.646 508.424 252.389 508.424 252.1C508.424 251.755 508.489 251.442 508.62 251.162C508.76 250.882 508.951 250.644 509.194 250.448C509.436 250.252 509.726 250.103 510.062 250C510.407 249.888 510.785 249.832 511.196 249.832C511.774 249.832 512.269 249.93 512.68 250.126C513.1 250.313 513.464 250.523 513.772 250.756L512.708 252.184C512.456 251.997 512.208 251.853 511.966 251.75C511.723 251.647 511.494 251.596 511.28 251.596C510.869 251.596 510.664 251.727 510.664 251.988C510.664 252.081 510.696 252.161 510.762 252.226C510.836 252.291 510.934 252.352 511.056 252.408C511.177 252.464 511.317 252.52 511.476 252.576C511.634 252.623 511.802 252.679 511.98 252.744C512.185 252.819 512.395 252.912 512.61 253.024C512.824 253.136 513.016 253.276 513.184 253.444C513.361 253.603 513.501 253.799 513.604 254.032C513.716 254.256 513.772 254.527 513.772 254.844C513.772 255.171 513.706 255.479 513.576 255.768C513.445 256.048 513.254 256.295 513.002 256.51C512.75 256.715 512.437 256.879 512.064 257C511.69 257.112 511.261 257.168 510.776 257.168ZM447.889 277V270H450.297V277H447.889ZM449.093 269.132C448.701 269.132 448.379 269.02 448.127 268.796C447.875 268.572 447.749 268.283 447.749 267.928C447.749 267.573 447.875 267.284 448.127 267.06C448.379 266.836 448.701 266.724 449.093 266.724C449.485 266.724 449.807 266.836 450.059 267.06C450.311 267.284 450.437 267.573 450.437 267.928C450.437 268.283 450.311 268.572 450.059 268.796C449.807 269.02 449.485 269.132 449.093 269.132ZM451.922 277V270H453.882L454.05 270.854H454.106C454.386 270.583 454.685 270.345 455.002 270.14C455.329 269.935 455.73 269.832 456.206 269.832C456.682 269.832 457.074 269.93 457.382 270.126C457.7 270.313 457.952 270.588 458.138 270.952C458.428 270.653 458.74 270.392 459.076 270.168C459.412 269.944 459.818 269.832 460.294 269.832C461.06 269.832 461.62 270.093 461.974 270.616C462.329 271.129 462.506 271.82 462.506 272.688V277H460.098V272.996C460.098 272.548 460.042 272.249 459.93 272.1C459.818 271.951 459.641 271.876 459.398 271.876C459.1 271.876 458.773 272.053 458.418 272.408V277H456.01V272.996C456.01 272.548 455.954 272.249 455.842 272.1C455.73 271.951 455.553 271.876 455.31 271.876C455.012 271.876 454.685 272.053 454.33 272.408V277H451.922ZM464.077 279.464V270H466.037L466.205 270.644H466.261C466.522 270.401 466.816 270.205 467.143 270.056C467.469 269.907 467.81 269.832 468.165 269.832C468.575 269.832 468.949 269.916 469.285 270.084C469.621 270.252 469.905 270.49 470.139 270.798C470.381 271.106 470.563 271.479 470.685 271.918C470.815 272.357 470.881 272.847 470.881 273.388C470.881 273.995 470.797 274.531 470.629 274.998C470.47 275.465 470.255 275.861 469.985 276.188C469.714 276.505 469.401 276.748 469.047 276.916C468.701 277.084 468.342 277.168 467.969 277.168C467.39 277.168 466.867 276.935 466.401 276.468L466.485 277.532V279.464H464.077ZM467.381 275.208C467.661 275.208 467.903 275.077 468.109 274.816C468.314 274.555 468.417 274.088 468.417 273.416C468.417 272.837 468.333 272.422 468.165 272.17C468.006 271.918 467.763 271.792 467.437 271.792C467.25 271.792 467.082 271.829 466.933 271.904C466.793 271.979 466.643 272.109 466.485 272.296V274.872C466.625 275.003 466.769 275.091 466.919 275.138C467.068 275.185 467.222 275.208 467.381 275.208ZM472.198 277V270H474.158L474.326 271.204H474.382C474.643 270.728 474.951 270.383 475.306 270.168C475.67 269.944 476.024 269.832 476.37 269.832C476.584 269.832 476.757 269.846 476.888 269.874C477.018 269.893 477.135 269.925 477.238 269.972L476.846 272.044C476.715 272.016 476.589 271.993 476.468 271.974C476.356 271.946 476.22 271.932 476.062 271.932C475.81 271.932 475.544 272.021 475.264 272.198C474.993 272.366 474.774 272.669 474.606 273.108V277H472.198ZM481.021 277.168C480.573 277.168 480.139 277.089 479.719 276.93C479.299 276.762 478.925 276.524 478.599 276.216C478.281 275.899 478.025 275.511 477.829 275.054C477.642 274.597 477.549 274.079 477.549 273.5C477.549 272.921 477.642 272.403 477.829 271.946C478.025 271.489 478.281 271.106 478.599 270.798C478.925 270.481 479.299 270.243 479.719 270.084C480.139 269.916 480.573 269.832 481.021 269.832C481.469 269.832 481.898 269.916 482.309 270.084C482.729 270.243 483.097 270.481 483.415 270.798C483.741 271.106 484.003 271.489 484.199 271.946C484.395 272.403 484.493 272.921 484.493 273.5C484.493 274.079 484.395 274.597 484.199 275.054C484.003 275.511 483.741 275.899 483.415 276.216C483.097 276.524 482.729 276.762 482.309 276.93C481.898 277.089 481.469 277.168 481.021 277.168ZM481.021 275.236C481.385 275.236 481.641 275.082 481.791 274.774C481.949 274.457 482.029 274.032 482.029 273.5C482.029 272.968 481.949 272.548 481.791 272.24C481.641 271.923 481.385 271.764 481.021 271.764C480.657 271.764 480.395 271.923 480.237 272.24C480.087 272.548 480.013 272.968 480.013 273.5C480.013 274.032 480.087 274.457 480.237 274.774C480.395 275.082 480.657 275.236 481.021 275.236ZM487.262 277L484.966 270H487.374L488.13 273.052C488.298 273.752 488.466 274.48 488.634 275.236H488.69C488.858 274.48 489.026 273.752 489.194 273.052L489.95 270H492.246L490.034 277H487.262ZM496.336 277.168C495.823 277.168 495.347 277.089 494.908 276.93C494.47 276.762 494.087 276.524 493.76 276.216C493.443 275.899 493.191 275.511 493.004 275.054C492.818 274.597 492.724 274.079 492.724 273.5C492.724 272.931 492.818 272.422 493.004 271.974C493.2 271.517 493.452 271.129 493.76 270.812C494.078 270.495 494.437 270.252 494.838 270.084C495.24 269.916 495.655 269.832 496.084 269.832C496.598 269.832 497.046 269.921 497.428 270.098C497.811 270.275 498.128 270.518 498.38 270.826C498.632 271.134 498.819 271.493 498.94 271.904C499.071 272.315 499.136 272.753 499.136 273.22C499.136 273.435 499.122 273.635 499.094 273.822C499.076 274.009 499.057 274.144 499.038 274.228H495.048C495.16 274.648 495.361 274.942 495.65 275.11C495.94 275.269 496.28 275.348 496.672 275.348C496.915 275.348 497.148 275.315 497.372 275.25C497.606 275.175 497.848 275.068 498.1 274.928L498.884 276.356C498.502 276.627 498.077 276.832 497.61 276.972C497.153 277.103 496.728 277.168 496.336 277.168ZM495.02 272.66H497.092C497.092 272.389 497.022 272.156 496.882 271.96C496.752 271.755 496.504 271.652 496.14 271.652C495.87 271.652 495.632 271.731 495.426 271.89C495.23 272.049 495.095 272.305 495.02 272.66ZM500.458 277V270H502.418L502.586 270.854H502.642C502.922 270.583 503.22 270.345 503.538 270.14C503.864 269.935 504.266 269.832 504.742 269.832C505.218 269.832 505.61 269.93 505.918 270.126C506.235 270.313 506.487 270.588 506.674 270.952C506.963 270.653 507.276 270.392 507.612 270.168C507.948 269.944 508.354 269.832 508.83 269.832C509.595 269.832 510.155 270.093 510.51 270.616C510.864 271.129 511.042 271.82 511.042 272.688V277H508.634V272.996C508.634 272.548 508.578 272.249 508.466 272.1C508.354 271.951 508.176 271.876 507.934 271.876C507.635 271.876 507.308 272.053 506.954 272.408V277H504.546V272.996C504.546 272.548 504.49 272.249 504.378 272.1C504.266 271.951 504.088 271.876 503.846 271.876C503.547 271.876 503.22 272.053 502.866 272.408V277H500.458ZM515.86 277.168C515.346 277.168 514.87 277.089 514.432 276.93C513.993 276.762 513.61 276.524 513.284 276.216C512.966 275.899 512.714 275.511 512.528 275.054C512.341 274.597 512.248 274.079 512.248 273.5C512.248 272.931 512.341 272.422 512.528 271.974C512.724 271.517 512.976 271.129 513.284 270.812C513.601 270.495 513.96 270.252 514.362 270.084C514.763 269.916 515.178 269.832 515.608 269.832C516.121 269.832 516.569 269.921 516.952 270.098C517.334 270.275 517.652 270.518 517.904 270.826C518.156 271.134 518.342 271.493 518.464 271.904C518.594 272.315 518.66 272.753 518.66 273.22C518.66 273.435 518.646 273.635 518.618 273.822C518.599 274.009 518.58 274.144 518.562 274.228H514.572C514.684 274.648 514.884 274.942 515.174 275.11C515.463 275.269 515.804 275.348 516.196 275.348C516.438 275.348 516.672 275.315 516.896 275.25C517.129 275.175 517.372 275.068 517.624 274.928L518.408 276.356C518.025 276.627 517.6 276.832 517.134 276.972C516.676 277.103 516.252 277.168 515.86 277.168ZM514.544 272.66H516.616C516.616 272.389 516.546 272.156 516.406 271.96C516.275 271.755 516.028 271.652 515.664 271.652C515.393 271.652 515.155 271.731 514.95 271.89C514.754 272.049 514.618 272.305 514.544 272.66ZM519.981 277V270H521.941L522.109 270.84H522.165C522.445 270.569 522.762 270.336 523.117 270.14C523.481 269.935 523.901 269.832 524.377 269.832C525.142 269.832 525.698 270.093 526.043 270.616C526.388 271.129 526.561 271.82 526.561 272.688V277H524.153V272.996C524.153 272.548 524.097 272.249 523.985 272.1C523.873 271.951 523.696 271.876 523.453 271.876C523.229 271.876 523.042 271.923 522.893 272.016C522.744 272.109 522.576 272.24 522.389 272.408V277H519.981ZM531.013 277.168C530.556 277.168 530.164 277.103 529.837 276.972C529.52 276.832 529.254 276.636 529.039 276.384C528.834 276.132 528.68 275.833 528.577 275.488C528.484 275.133 528.437 274.741 528.437 274.312V271.876H527.513V270.084L528.577 270L528.857 268.18H530.845V270H532.441V271.876H530.845V274.27C530.845 274.662 530.929 274.933 531.097 275.082C531.265 275.222 531.461 275.292 531.685 275.292C531.797 275.292 531.905 275.283 532.007 275.264C532.119 275.236 532.217 275.208 532.301 275.18L532.665 276.916C532.479 276.972 532.255 277.028 531.993 277.084C531.732 277.14 531.405 277.168 531.013 277.168Z" fill="#333333"/>
<g filter="url(#filter1_d)">
<circle cx="370" cy="262" r="40" fill="white"/>
</g>
<path d="M390 275.404V270.531L388.134 270.054C388.121 270.023 388.108 269.991 388.094 269.96L389.077 268.304L385.631 264.858L383.975 265.841C383.943 265.827 383.912 265.814 383.881 265.801L383.404 263.936H378.531L378.054 265.802C378.023 265.815 377.991 265.828 377.96 265.841L376.304 264.859L372.858 268.305L373.841 269.961C373.827 269.992 373.814 270.024 373.801 270.055L371.936 270.532V275.404L373.802 275.881C373.815 275.913 373.828 275.944 373.841 275.976L372.859 277.632L376.305 281.077L377.961 280.095C377.992 280.108 378.024 280.121 378.055 280.134L378.532 282H383.404L383.881 280.134C383.913 280.121 383.944 280.108 383.976 280.094L385.632 281.077L389.077 277.631L388.095 275.975C388.108 275.943 388.121 275.912 388.134 275.881L390 275.404ZM387.456 277.428L385.428 279.456L384.049 278.638L383.739 278.787C383.539 278.881 383.334 278.967 383.124 279.041L382.799 279.157L382.403 280.71H379.534L379.138 279.157L378.812 279.041C378.602 278.968 378.397 278.882 378.198 278.787L377.887 278.638L376.508 279.456L374.48 277.428L375.298 276.049L375.15 275.739C375.055 275.539 374.969 275.334 374.895 275.124L374.78 274.799L373.226 274.403V271.534L374.779 271.138L374.894 270.812C374.968 270.602 375.054 270.397 375.149 270.198L375.297 269.887L374.479 268.508L376.508 266.48L377.887 267.298L378.197 267.15C378.397 267.055 378.601 266.969 378.812 266.895L379.137 266.78L379.533 265.226H382.402L382.798 266.779L383.123 266.894C383.334 266.968 383.539 267.054 383.738 267.149L384.048 267.297L385.427 266.479L387.456 268.508L386.638 269.887L386.786 270.197C386.881 270.397 386.966 270.601 387.041 270.812L387.156 271.137L388.71 271.533V274.402L387.157 274.798L387.041 275.123C386.968 275.334 386.882 275.539 386.787 275.738L386.638 276.048L387.456 277.428Z" fill="#333333" fill-opacity="0.5"/>
<path d="M380.968 267.807C378.122 267.807 375.807 270.122 375.807 272.968C375.807 275.814 378.122 278.129 380.968 278.129C383.814 278.129 386.129 275.814 386.129 272.968C386.129 270.122 383.814 267.807 380.968 267.807ZM380.968 276.839C378.833 276.839 377.097 275.103 377.097 272.968C377.097 270.833 378.833 269.097 380.968 269.097C383.103 269.097 384.839 270.833 384.839 272.968C384.839 275.103 383.103 276.839 380.968 276.839Z" fill="#333333" fill-opacity="0.5"/>
<path d="M380.967 270.387C379.544 270.387 378.387 271.544 378.387 272.967C378.387 274.391 379.544 275.548 380.967 275.548C382.391 275.548 383.548 274.391 383.548 272.967C383.548 271.544 382.391 270.387 380.967 270.387ZM380.967 274.258C380.256 274.258 379.677 273.679 379.677 272.967C379.677 272.256 380.256 271.677 380.967 271.677C381.679 271.677 382.258 272.256 382.258 272.967C382.258 273.679 381.679 274.258 380.967 274.258Z" fill="#333333" fill-opacity="0.5"/>
<path d="M366.339 252.924C366.555 253.557 366.931 254.116 367.419 254.555V255.102L364.351 256.252C363.099 256.721 362.258 257.935 362.258 259.272V262.645H377.742V259.272C377.742 257.935 376.9 256.721 375.649 256.252L372.58 255.101V254.555C373.069 254.117 373.445 253.558 373.661 252.924C374.877 252.715 375.806 251.661 375.806 250.387V247.806C375.806 244.605 373.202 242 370 242C366.798 242 364.193 244.605 364.193 247.806V250.387C364.193 251.661 365.123 252.715 366.339 252.924ZM371.29 255.37L370 257.52L368.709 255.37V255.323C369.114 255.466 369.547 255.548 370 255.548C370.453 255.548 370.886 255.466 371.29 255.323V255.37ZM367.787 256.341L369.088 258.508L367.796 259.154L366.961 256.651L367.787 256.341ZM376.451 259.272V261.355H363.548V259.272C363.548 258.47 364.053 257.742 364.804 257.46L365.753 257.105L367.042 260.974L370 259.496L372.957 260.974L374.247 257.105L375.196 257.461C375.947 257.742 376.451 258.47 376.451 259.272ZM373.038 256.651L372.204 259.155L370.911 258.509L372.212 256.341L373.038 256.651ZM370 254.258C368.576 254.258 367.419 253.101 367.419 251.677V249.053C368.364 248.953 369.255 248.609 370 248.023C370.745 248.61 371.636 248.953 372.58 249.053V251.677C372.58 253.101 371.423 254.258 370 254.258ZM373.871 251.498V249.277C374.255 249.501 374.516 249.912 374.516 250.388C374.516 250.863 374.255 251.274 373.871 251.498ZM370 243.29C372.489 243.29 374.516 245.316 374.516 247.806V248.165C374.135 247.943 373.698 247.806 373.226 247.806H373.115C372.11 247.806 371.166 247.416 370.456 246.705L370 246.248L369.544 246.705C368.833 247.416 367.889 247.806 366.885 247.806H366.774C366.302 247.806 365.865 247.943 365.484 248.165V247.806C365.484 245.316 367.51 243.29 370 243.29ZM366.129 249.276V251.498C365.745 251.274 365.484 250.862 365.484 250.386C365.484 249.911 365.745 249.5 366.129 249.276Z" fill="#333333" fill-opacity="0.5"/>
<path d="M350 282H362.903V265.226H350V282ZM351.29 266.516H361.613V280.709H351.29V266.516Z" fill="#333333" fill-opacity="0.5"/>
<path d="M352.581 267.807H360.323V269.097H352.581V267.807Z" fill="#333333" fill-opacity="0.5"/>
<path d="M352.581 270.387H353.871V271.677H352.581V270.387Z" fill="#333333" fill-opacity="0.5"/>
<path d="M355.161 270.387H360.322V271.677H355.161V270.387Z" fill="#333333" fill-opacity="0.5"/>
<path d="M352.581 272.968H360.323V274.258H352.581V272.968Z" fill="#333333" fill-opacity="0.5"/>
<path d="M352.581 275.549H360.323V276.839H352.581V275.549Z" fill="#333333" fill-opacity="0.5"/>
<path d="M359.032 278.129H360.323V279.419H359.032V278.129Z" fill="#333333" fill-opacity="0.5"/>
<path d="M352.581 278.129H357.742V279.419H352.581V278.129Z" fill="#333333" fill-opacity="0.5"/>
<path d="M367.23 270.843L366.318 269.931L363.281 272.967L366.318 276.004L367.23 275.092L365.751 273.613H370.645V272.322H365.751L367.23 270.843Z" fill="#333333" fill-opacity="0.5"/>
<path d="M357.097 252.322C357.097 251.967 357.386 251.677 357.742 251.677H360.701L359.221 253.156L360.134 254.069L363.171 251.032L360.134 247.995L359.221 248.907L360.701 250.387H357.742C356.675 250.387 355.807 251.255 355.807 252.322V263.935H357.097V252.322Z" fill="#333333" fill-opacity="0.5"/>
<path d="M380.968 252.322V260.442L379.488 258.963L378.576 259.875L381.613 262.912L384.65 259.875L383.737 258.963L382.258 260.442V252.322C382.258 251.255 381.389 250.387 380.322 250.387H377.097V251.677H380.322C380.678 251.677 380.968 251.967 380.968 252.322Z" fill="#333333" fill-opacity="0.5"/>
<path d="M13.4838 267.168C12.9051 267.168 12.3078 267.065 11.6918 266.86C11.0851 266.645 10.5345 266.314 10.0398 265.866L11.4118 264.214C11.7385 264.475 12.0885 264.69 12.4618 264.858C12.8445 265.017 13.2038 265.096 13.5398 265.096C13.9038 265.096 14.1651 265.04 14.3238 264.928C14.4918 264.816 14.5758 264.657 14.5758 264.452C14.5758 264.34 14.5478 264.247 14.4918 264.172C14.4358 264.097 14.3518 264.027 14.2398 263.962C14.1371 263.897 14.0111 263.836 13.8618 263.78C13.7125 263.715 13.5398 263.645 13.3438 263.57L12.2098 263.094C11.9671 263.001 11.7338 262.879 11.5098 262.73C11.2858 262.571 11.0898 262.389 10.9218 262.184C10.7538 261.969 10.6185 261.727 10.5158 261.456C10.4225 261.185 10.3758 260.887 10.3758 260.56C10.3758 260.168 10.4598 259.804 10.6278 259.468C10.7958 259.123 11.0291 258.824 11.3278 258.572C11.6265 258.311 11.9811 258.105 12.3918 257.956C12.8118 257.807 13.2691 257.732 13.7638 257.732C14.2865 257.732 14.8138 257.83 15.3458 258.026C15.8871 258.222 16.3678 258.53 16.7878 258.95L15.5838 260.462C15.2758 260.247 14.9771 260.084 14.6878 259.972C14.4078 259.86 14.0998 259.804 13.7638 259.804C13.4651 259.804 13.2318 259.855 13.0638 259.958C12.8958 260.061 12.8118 260.215 12.8118 260.42C12.8118 260.635 12.9285 260.803 13.1618 260.924C13.4045 261.036 13.7358 261.171 14.1558 261.33L15.2618 261.764C15.8311 261.988 16.2698 262.301 16.5778 262.702C16.8858 263.103 17.0398 263.621 17.0398 264.256C17.0398 264.639 16.9605 265.007 16.8018 265.362C16.6431 265.717 16.4098 266.029 16.1018 266.3C15.8031 266.561 15.4345 266.771 14.9958 266.93C14.5571 267.089 14.0531 267.168 13.4838 267.168ZM19.3421 269.632C19.0995 269.632 18.8988 269.618 18.7401 269.59C18.5908 269.571 18.4368 269.539 18.2781 269.492L18.6981 267.672C18.7635 267.691 18.8335 267.709 18.9081 267.728C18.9921 267.747 19.0715 267.756 19.1461 267.756C19.4728 267.756 19.7155 267.691 19.8741 267.56C20.0421 267.439 20.1635 267.271 20.2381 267.056L20.3221 266.748L17.6621 260H20.0701L20.9101 262.688C21.0128 263.015 21.1015 263.341 21.1761 263.668C21.2508 263.985 21.3301 264.321 21.4141 264.676H21.4701C21.5448 264.34 21.6148 264.009 21.6801 263.682C21.7548 263.355 21.8341 263.024 21.9181 262.688L22.6181 260H24.9141L22.5621 266.888C22.3755 267.364 22.1841 267.775 21.9881 268.12C21.8015 268.465 21.5821 268.75 21.3301 268.974C21.0781 269.198 20.7888 269.361 20.4621 269.464C20.1448 269.576 19.7715 269.632 19.3421 269.632ZM28.05 267.168C27.602 267.168 27.126 267.079 26.622 266.902C26.1274 266.725 25.698 266.487 25.334 266.188L26.398 264.704C27.0327 265.171 27.602 265.404 28.106 265.404C28.358 265.404 28.5354 265.371 28.638 265.306C28.75 265.231 28.806 265.124 28.806 264.984C28.806 264.891 28.7687 264.811 28.694 264.746C28.6194 264.671 28.5167 264.606 28.386 264.55C28.2647 264.485 28.1247 264.424 27.966 264.368C27.8074 264.312 27.6394 264.247 27.462 264.172C27.2567 264.088 27.0467 263.99 26.832 263.878C26.6267 263.757 26.44 263.612 26.272 263.444C26.104 263.276 25.964 263.085 25.852 262.87C25.7494 262.646 25.698 262.389 25.698 262.1C25.698 261.755 25.7634 261.442 25.894 261.162C26.034 260.882 26.2254 260.644 26.468 260.448C26.7107 260.252 27 260.103 27.336 260C27.6814 259.888 28.0594 259.832 28.47 259.832C29.0487 259.832 29.5434 259.93 29.954 260.126C30.374 260.313 30.738 260.523 31.046 260.756L29.982 262.184C29.73 261.997 29.4827 261.853 29.24 261.75C28.9974 261.647 28.7687 261.596 28.554 261.596C28.1434 261.596 27.938 261.727 27.938 261.988C27.938 262.081 27.9707 262.161 28.036 262.226C28.1107 262.291 28.2087 262.352 28.33 262.408C28.4514 262.464 28.5914 262.52 28.75 262.576C28.9087 262.623 29.0767 262.679 29.254 262.744C29.4594 262.819 29.6694 262.912 29.884 263.024C30.0987 263.136 30.29 263.276 30.458 263.444C30.6354 263.603 30.7754 263.799 30.878 264.032C30.99 264.256 31.046 264.527 31.046 264.844C31.046 265.171 30.9807 265.479 30.85 265.768C30.7194 266.048 30.528 266.295 30.276 266.51C30.024 266.715 29.7114 266.879 29.338 267C28.9647 267.112 28.5354 267.168 28.05 267.168ZM34.8347 267.168C34.3773 267.168 33.9853 267.103 33.6587 266.972C33.3413 266.832 33.0753 266.636 32.8607 266.384C32.6553 266.132 32.5013 265.833 32.3987 265.488C32.3053 265.133 32.2587 264.741 32.2587 264.312V261.876H31.3347V260.084L32.3987 260L32.6787 258.18H34.6667V260H36.2627V261.876H34.6667V264.27C34.6667 264.662 34.7507 264.933 34.9187 265.082C35.0867 265.222 35.2827 265.292 35.5067 265.292C35.6187 265.292 35.726 265.283 35.8287 265.264C35.9407 265.236 36.0387 265.208 36.1227 265.18L36.4867 266.916C36.3 266.972 36.076 267.028 35.8147 267.084C35.5533 267.14 35.2267 267.168 34.8347 267.168ZM40.5307 267.168C40.0174 267.168 39.5414 267.089 39.1027 266.93C38.664 266.762 38.2814 266.524 37.9547 266.216C37.6374 265.899 37.3854 265.511 37.1987 265.054C37.012 264.597 36.9187 264.079 36.9187 263.5C36.9187 262.931 37.012 262.422 37.1987 261.974C37.3947 261.517 37.6467 261.129 37.9547 260.812C38.272 260.495 38.6314 260.252 39.0327 260.084C39.434 259.916 39.8494 259.832 40.2787 259.832C40.792 259.832 41.24 259.921 41.6227 260.098C42.0054 260.275 42.3227 260.518 42.5747 260.826C42.8267 261.134 43.0134 261.493 43.1347 261.904C43.2654 262.315 43.3307 262.753 43.3307 263.22C43.3307 263.435 43.3167 263.635 43.2887 263.822C43.27 264.009 43.2514 264.144 43.2327 264.228H39.2427C39.3547 264.648 39.5554 264.942 39.8447 265.11C40.134 265.269 40.4747 265.348 40.8667 265.348C41.1094 265.348 41.3427 265.315 41.5667 265.25C41.8 265.175 42.0427 265.068 42.2947 264.928L43.0787 266.356C42.696 266.627 42.2714 266.832 41.8047 266.972C41.3474 267.103 40.9227 267.168 40.5307 267.168ZM39.2147 262.66H41.2867C41.2867 262.389 41.2167 262.156 41.0767 261.96C40.946 261.755 40.6987 261.652 40.3347 261.652C40.064 261.652 39.826 261.731 39.6207 261.89C39.4247 262.049 39.2894 262.305 39.2147 262.66ZM44.6518 267V260H46.6118L46.7798 260.854H46.8358C47.1158 260.583 47.4145 260.345 47.7318 260.14C48.0585 259.935 48.4598 259.832 48.9358 259.832C49.4118 259.832 49.8038 259.93 50.1118 260.126C50.4292 260.313 50.6812 260.588 50.8678 260.952C51.1572 260.653 51.4698 260.392 51.8058 260.168C52.1418 259.944 52.5478 259.832 53.0238 259.832C53.7892 259.832 54.3492 260.093 54.7038 260.616C55.0585 261.129 55.2358 261.82 55.2358 262.688V267H52.8278V262.996C52.8278 262.548 52.7718 262.249 52.6598 262.1C52.5478 261.951 52.3705 261.876 52.1278 261.876C51.8292 261.876 51.5025 262.053 51.1478 262.408V267H48.7398V262.996C48.7398 262.548 48.6838 262.249 48.5718 262.1C48.4598 261.951 48.2825 261.876 48.0398 261.876C47.7412 261.876 47.4145 262.053 47.0598 262.408V267H44.6518ZM61.4289 267.168C61.1022 267.168 60.8082 267.112 60.5469 267C60.2855 266.879 60.0615 266.72 59.8749 266.524C59.6975 266.328 59.5622 266.099 59.4689 265.838C59.3755 265.577 59.3289 265.301 59.3289 265.012C59.3289 264.284 59.6275 263.715 60.2249 263.304C60.8222 262.884 61.7929 262.604 63.1369 262.464C63.0809 261.979 62.7542 261.736 62.1569 261.736C61.9049 261.736 61.6389 261.787 61.3589 261.89C61.0789 261.983 60.7569 262.128 60.3929 262.324L59.5529 260.756C60.0475 260.457 60.5469 260.229 61.0509 260.07C61.5549 259.911 62.0822 259.832 62.6329 259.832C63.5382 259.832 64.2475 260.093 64.7609 260.616C65.2835 261.129 65.5449 261.96 65.5449 263.108V267H63.5849L63.4169 266.328H63.3609C63.0809 266.58 62.7822 266.785 62.4649 266.944C62.1569 267.093 61.8115 267.168 61.4289 267.168ZM62.2689 265.32C62.4649 265.32 62.6235 265.278 62.7449 265.194C62.8755 265.101 63.0062 264.984 63.1369 264.844V263.892C62.5582 263.976 62.1615 264.102 61.9469 264.27C61.7322 264.438 61.6249 264.62 61.6249 264.816C61.6249 265.152 61.8395 265.32 62.2689 265.32ZM67.1147 267V260H69.0747L69.2427 260.84H69.2987C69.5787 260.569 69.8961 260.336 70.2507 260.14C70.6147 259.935 71.0347 259.832 71.5107 259.832C72.2761 259.832 72.8314 260.093 73.1767 260.616C73.5221 261.129 73.6947 261.82 73.6947 262.688V267H71.2867V262.996C71.2867 262.548 71.2307 262.249 71.1187 262.1C71.0067 261.951 70.8294 261.876 70.5867 261.876C70.3627 261.876 70.1761 261.923 70.0267 262.016C69.8774 262.109 69.7094 262.24 69.5227 262.408V267H67.1147ZM77.0832 267.168C76.7565 267.168 76.4625 267.112 76.2012 267C75.9398 266.879 75.7158 266.72 75.5292 266.524C75.3518 266.328 75.2165 266.099 75.1232 265.838C75.0298 265.577 74.9832 265.301 74.9832 265.012C74.9832 264.284 75.2818 263.715 75.8792 263.304C76.4765 262.884 77.4472 262.604 78.7912 262.464C78.7352 261.979 78.4085 261.736 77.8112 261.736C77.5592 261.736 77.2932 261.787 77.0132 261.89C76.7332 261.983 76.4112 262.128 76.0472 262.324L75.2072 260.756C75.7018 260.457 76.2012 260.229 76.7052 260.07C77.2092 259.911 77.7365 259.832 78.2872 259.832C79.1925 259.832 79.9018 260.093 80.4152 260.616C80.9378 261.129 81.1992 261.96 81.1992 263.108V267H79.2392L79.0712 266.328H79.0152C78.7352 266.58 78.4365 266.785 78.1192 266.944C77.8112 267.093 77.4658 267.168 77.0832 267.168ZM77.9232 265.32C78.1192 265.32 78.2778 265.278 78.3992 265.194C78.5298 265.101 78.6605 264.984 78.7912 264.844V263.892C78.2125 263.976 77.8158 264.102 77.6012 264.27C77.3865 264.438 77.2792 264.62 77.2792 264.816C77.2792 265.152 77.4938 265.32 77.9232 265.32ZM84.925 267.168C84.5144 267.168 84.169 267.107 83.889 266.986C83.6184 266.855 83.399 266.673 83.231 266.44C83.063 266.207 82.9417 265.931 82.867 265.614C82.8017 265.287 82.769 264.928 82.769 264.536V257.256H85.177V264.62C85.177 264.863 85.219 265.026 85.303 265.11C85.3964 265.194 85.485 265.236 85.569 265.236C85.6157 265.236 85.653 265.236 85.681 265.236C85.7184 265.236 85.765 265.227 85.821 265.208L86.101 266.972C85.9704 267.028 85.807 267.075 85.611 267.112C85.4244 267.149 85.1957 267.168 84.925 267.168ZM87.975 269.632C87.7323 269.632 87.5316 269.618 87.373 269.59C87.2236 269.571 87.0696 269.539 86.911 269.492L87.331 267.672C87.3963 267.691 87.4663 267.709 87.541 267.728C87.625 267.747 87.7043 267.756 87.779 267.756C88.1056 267.756 88.3483 267.691 88.507 267.56C88.675 267.439 88.7963 267.271 88.871 267.056L88.955 266.748L86.295 260H88.703L89.543 262.688C89.6456 263.015 89.7343 263.341 89.809 263.668C89.8836 263.985 89.963 264.321 90.047 264.676H90.103C90.1776 264.34 90.2476 264.009 90.313 263.682C90.3876 263.355 90.467 263.024 90.551 262.688L91.251 260H93.547L91.195 266.888C91.0083 267.364 90.817 267.775 90.621 268.12C90.4343 268.465 90.215 268.75 89.963 268.974C89.711 269.198 89.4216 269.361 89.095 269.464C88.7776 269.576 88.4043 269.632 87.975 269.632ZM96.6828 267.168C96.2348 267.168 95.7588 267.079 95.2548 266.902C94.7602 266.725 94.3308 266.487 93.9668 266.188L95.0308 264.704C95.6655 265.171 96.2348 265.404 96.7388 265.404C96.9908 265.404 97.1682 265.371 97.2708 265.306C97.3828 265.231 97.4388 265.124 97.4388 264.984C97.4388 264.891 97.4015 264.811 97.3268 264.746C97.2522 264.671 97.1495 264.606 97.0188 264.55C96.8975 264.485 96.7575 264.424 96.5988 264.368C96.4402 264.312 96.2722 264.247 96.0948 264.172C95.8895 264.088 95.6795 263.99 95.4648 263.878C95.2595 263.757 95.0728 263.612 94.9048 263.444C94.7368 263.276 94.5968 263.085 94.4848 262.87C94.3822 262.646 94.3308 262.389 94.3308 262.1C94.3308 261.755 94.3962 261.442 94.5268 261.162C94.6668 260.882 94.8582 260.644 95.1008 260.448C95.3435 260.252 95.6328 260.103 95.9688 260C96.3142 259.888 96.6922 259.832 97.1028 259.832C97.6815 259.832 98.1762 259.93 98.5868 260.126C99.0068 260.313 99.3708 260.523 99.6788 260.756L98.6148 262.184C98.3628 261.997 98.1155 261.853 97.8728 261.75C97.6302 261.647 97.4015 261.596 97.1868 261.596C96.7762 261.596 96.5708 261.727 96.5708 261.988C96.5708 262.081 96.6035 262.161 96.6688 262.226C96.7435 262.291 96.8415 262.352 96.9628 262.408C97.0842 262.464 97.2242 262.52 97.3828 262.576C97.5415 262.623 97.7095 262.679 97.8868 262.744C98.0922 262.819 98.3022 262.912 98.5168 263.024C98.7315 263.136 98.9228 263.276 99.0908 263.444C99.2682 263.603 99.4082 263.799 99.5108 264.032C99.6228 264.256 99.6788 264.527 99.6788 264.844C99.6788 265.171 99.6135 265.479 99.4828 265.768C99.3522 266.048 99.1608 266.295 98.9088 266.51C98.6568 266.715 98.3442 266.879 97.9708 267C97.5975 267.112 97.1682 267.168 96.6828 267.168ZM100.857 267V260H103.265V267H100.857ZM102.061 259.132C101.669 259.132 101.347 259.02 101.095 258.796C100.843 258.572 100.717 258.283 100.717 257.928C100.717 257.573 100.843 257.284 101.095 257.06C101.347 256.836 101.669 256.724 102.061 256.724C102.453 256.724 102.775 256.836 103.027 257.06C103.279 257.284 103.405 257.573 103.405 257.928C103.405 258.283 103.279 258.572 103.027 258.796C102.775 259.02 102.453 259.132 102.061 259.132ZM107.046 267.168C106.598 267.168 106.122 267.079 105.618 266.902C105.123 266.725 104.694 266.487 104.33 266.188L105.394 264.704C106.029 265.171 106.598 265.404 107.102 265.404C107.354 265.404 107.531 265.371 107.634 265.306C107.746 265.231 107.802 265.124 107.802 264.984C107.802 264.891 107.765 264.811 107.69 264.746C107.615 264.671 107.513 264.606 107.382 264.55C107.261 264.485 107.121 264.424 106.962 264.368C106.803 264.312 106.635 264.247 106.458 264.172C106.253 264.088 106.043 263.99 105.828 263.878C105.623 263.757 105.436 263.612 105.268 263.444C105.1 263.276 104.96 263.085 104.848 262.87C104.745 262.646 104.694 262.389 104.694 262.1C104.694 261.755 104.759 261.442 104.89 261.162C105.03 260.882 105.221 260.644 105.464 260.448C105.707 260.252 105.996 260.103 106.332 260C106.677 259.888 107.055 259.832 107.466 259.832C108.045 259.832 108.539 259.93 108.95 260.126C109.37 260.313 109.734 260.523 110.042 260.756L108.978 262.184C108.726 261.997 108.479 261.853 108.236 261.75C107.993 261.647 107.765 261.596 107.55 261.596C107.139 261.596 106.934 261.727 106.934 261.988C106.934 262.081 106.967 262.161 107.032 262.226C107.107 262.291 107.205 262.352 107.326 262.408C107.447 262.464 107.587 262.52 107.746 262.576C107.905 262.623 108.073 262.679 108.25 262.744C108.455 262.819 108.665 262.912 108.88 263.024C109.095 263.136 109.286 263.276 109.454 263.444C109.631 263.603 109.771 263.799 109.874 264.032C109.986 264.256 110.042 264.527 110.042 264.844C110.042 265.171 109.977 265.479 109.846 265.768C109.715 266.048 109.524 266.295 109.272 266.51C109.02 266.715 108.707 266.879 108.334 267C107.961 267.112 107.531 267.168 107.046 267.168Z" fill="#333333"/>
<g filter="url(#filter2_d)">
<circle cx="180" cy="262" r="40" fill="white"/>
</g>
<path d="M185.517 252.396C186.594 252.396 187.47 251.519 187.47 250.442C187.47 249.366 186.594 248.489 185.517 248.489C184.44 248.489 183.564 249.366 183.564 250.442C183.564 250.882 183.71 251.289 183.956 251.615L180.747 256.1C180.556 256.037 180.352 256.002 180.139 256.002C179.626 256.002 179.159 256.202 178.81 256.527L176.671 255.313C176.699 255.18 176.715 255.043 176.715 254.902C176.715 253.825 175.838 252.949 174.762 252.949C173.685 252.949 172.808 253.825 172.808 254.902C172.808 255.043 172.824 255.18 172.852 255.313L170.713 256.527C170.364 256.202 169.897 256.003 169.384 256.003C168.307 256.003 167.431 256.879 167.431 257.956C167.431 259.033 168.307 259.909 169.384 259.909C170.461 259.909 171.337 259.033 171.337 257.956C171.337 257.815 171.322 257.678 171.293 257.545L173.432 256.331C173.781 256.656 174.248 256.855 174.762 256.855C175.275 256.855 175.742 256.656 176.091 256.331L178.23 257.545C178.201 257.678 178.186 257.815 178.186 257.956C178.186 259.033 179.062 259.909 180.139 259.909C181.216 259.909 182.092 259.033 182.092 257.956C182.092 257.516 181.946 257.11 181.7 256.783L184.909 252.298C185.1 252.361 185.305 252.396 185.517 252.396ZM185.517 249.661C185.948 249.661 186.298 250.012 186.298 250.442C186.298 250.873 185.948 251.224 185.517 251.224C185.086 251.224 184.736 250.873 184.736 250.442C184.736 250.012 185.086 249.661 185.517 249.661ZM169.384 258.737C168.953 258.737 168.602 258.386 168.602 257.956C168.602 257.525 168.953 257.174 169.384 257.174C169.814 257.174 170.165 257.525 170.165 257.956C170.165 258.386 169.814 258.737 169.384 258.737ZM174.761 255.683C174.331 255.683 173.98 255.333 173.98 254.902C173.98 254.471 174.331 254.121 174.761 254.121C175.192 254.121 175.543 254.471 175.543 254.902C175.543 255.333 175.192 255.683 174.761 255.683ZM180.139 258.737C179.708 258.737 179.358 258.386 179.358 257.956C179.358 257.525 179.708 257.174 180.139 257.174C180.57 257.174 180.921 257.525 180.921 257.956C180.921 258.386 180.57 258.737 180.139 258.737Z" fill="#333333" fill-opacity="0.5"/>
<path d="M192.718 271.451H188.618H166.283H161.657C161.39 271.451 161.172 271.233 161.172 270.966V246.792C161.172 246.524 161.39 246.307 161.657 246.307H164.42C164.743 246.307 165.006 246.044 165.006 245.721C165.006 245.397 164.743 245.135 164.42 245.135H161.657C160.744 245.135 160 245.878 160 246.792V270.966C160 271.879 160.744 272.623 161.657 272.623H165.698V273.912C165.698 274.647 166.295 275.245 167.03 275.245H172.895L170.134 280.635C169.986 280.923 170.1 281.276 170.388 281.424C170.474 281.468 170.565 281.488 170.655 281.488C170.868 281.488 171.073 281.372 171.177 281.169L174.212 275.245H180.69L183.724 281.169C183.828 281.372 184.034 281.488 184.246 281.488C184.336 281.488 184.428 281.468 184.513 281.424C184.801 281.276 184.915 280.923 184.767 280.635L182.006 275.245H187.872C188.606 275.245 189.204 274.647 189.204 273.912V272.623H192.718C193.042 272.623 193.304 272.361 193.304 272.037C193.304 271.713 193.042 271.451 192.718 271.451ZM188.032 273.912C188.032 274.001 187.96 274.073 187.872 274.073H167.03C166.941 274.073 166.869 274.001 166.869 273.912V272.623H188.032V273.912Z" fill="#333333" fill-opacity="0.5"/>
<path d="M166.763 246.306H174.784H180.116H193.243C193.511 246.306 193.729 246.524 193.729 246.792V252.363C193.729 252.687 193.991 252.949 194.315 252.949C194.638 252.949 194.901 252.687 194.901 252.363V246.792C194.901 245.878 194.157 245.134 193.243 245.134H180.702V243.983C180.702 243.172 180.043 242.513 179.232 242.513H175.668C174.858 242.513 174.198 243.172 174.198 243.983V245.134H166.763C166.439 245.134 166.177 245.397 166.177 245.72C166.177 246.044 166.439 246.306 166.763 246.306ZM175.37 243.983C175.37 243.818 175.504 243.685 175.668 243.685H179.232C179.396 243.685 179.53 243.818 179.53 243.983V245.134H175.37V243.983H175.37Z" fill="#333333" fill-opacity="0.5"/>
<path d="M168.195 262.904C167.872 262.904 167.609 263.167 167.609 263.49V268.668C167.609 268.991 167.872 269.254 168.195 269.254H170.572C170.896 269.254 171.158 268.991 171.158 268.668V263.49C171.158 263.167 170.896 262.904 170.572 262.904H168.195ZM169.986 268.082H168.781V264.076H169.986V268.082Z" fill="#333333" fill-opacity="0.5"/>
<path d="M173.573 259.91C173.25 259.91 172.987 260.172 172.987 260.496V268.668C172.987 268.992 173.25 269.254 173.573 269.254H175.95C176.274 269.254 176.536 268.992 176.536 268.668V260.496C176.536 260.172 176.274 259.91 175.95 259.91H173.573ZM175.364 268.082H174.159V261.082H175.364V268.082Z" fill="#333333" fill-opacity="0.5"/>
<path d="M178.951 262.904C178.628 262.904 178.365 263.167 178.365 263.49V268.668C178.365 268.991 178.628 269.254 178.951 269.254H181.328C181.652 269.254 181.914 268.991 181.914 268.668V263.49C181.914 263.167 181.652 262.904 181.328 262.904H178.951ZM180.742 268.082H179.537V264.076H180.742V268.082Z" fill="#333333" fill-opacity="0.5"/>
<path d="M184.329 266.362C184.006 266.362 183.743 266.625 183.743 266.948V268.668C183.743 268.992 184.006 269.254 184.329 269.254H186.706C187.03 269.254 187.292 268.992 187.292 268.668C187.292 268.345 187.03 268.082 186.706 268.082H184.915V266.948C184.915 266.625 184.653 266.362 184.329 266.362Z" fill="#333333" fill-opacity="0.5"/>
<path d="M199.701 272.002L196.339 266.179C197.191 265.271 197.811 264.162 198.142 262.926C198.672 260.95 198.4 258.886 197.377 257.115C195.266 253.458 190.573 252.2 186.916 254.312C183.258 256.423 182.001 261.116 184.112 264.773C185.135 266.545 186.787 267.812 188.763 268.341C189.422 268.518 190.092 268.606 190.757 268.606C191.339 268.606 191.917 268.539 192.482 268.406L195.843 274.229C196.255 274.943 197.005 275.342 197.775 275.342C198.153 275.342 198.535 275.246 198.885 275.044C199.572 274.648 199.999 273.908 199.999 273.114C199.999 272.725 199.896 272.34 199.701 272.002ZM189.066 267.209C187.392 266.761 185.994 265.688 185.127 264.187C183.339 261.09 184.404 257.115 187.501 255.326C188.52 254.738 189.634 254.459 190.734 254.459C192.977 254.459 195.162 255.622 196.362 257.701C197.228 259.201 197.459 260.949 197.01 262.623C196.562 264.296 195.488 265.695 193.988 266.561C192.487 267.428 190.739 267.658 189.066 267.209ZM198.3 274.029C197.795 274.32 197.149 274.147 196.858 273.643L193.624 268.041C193.948 267.909 194.266 267.754 194.574 267.576C194.882 267.398 195.175 267.2 195.451 266.985L198.686 272.587C198.778 272.748 198.828 272.931 198.828 273.114C198.828 273.491 198.625 273.841 198.3 274.029Z" fill="#333333" fill-opacity="0.5"/>
<path d="M196.058 262.595C196.472 261.263 196.373 259.836 195.781 258.578C195.643 258.286 195.294 258.16 195.001 258.298C194.708 258.436 194.582 258.785 194.72 259.078C195.188 260.07 195.265 261.196 194.939 262.248C194.61 263.305 193.901 264.193 192.941 264.747C191.925 265.334 190.742 265.49 189.609 265.186C188.476 264.883 187.529 264.156 186.942 263.14C185.732 261.043 186.453 258.352 188.55 257.142C190.083 256.256 191.986 256.375 193.397 257.443C193.656 257.638 194.023 257.587 194.218 257.329C194.413 257.071 194.363 256.704 194.104 256.508C192.316 255.155 189.906 255.005 187.964 256.127C186.677 256.87 185.756 258.069 185.372 259.505C184.987 260.94 185.184 262.439 185.927 263.726C186.67 265.013 187.87 265.933 189.305 266.318C189.785 266.447 190.271 266.51 190.754 266.51C191.718 266.51 192.67 266.257 193.527 265.762C194.743 265.06 195.642 263.936 196.058 262.595Z" fill="#333333" fill-opacity="0.5"/>
<path d="M27.9152 50V40.9H33.7952V42.916H30.3232V44.344H33.2912V46.36H30.3232V47.984H33.9352V50H27.9152ZM35.4985 50V43H37.4585L37.6265 43.84H37.6825C37.9625 43.5693 38.2799 43.336 38.6345 43.14C38.9985 42.9347 39.4185 42.832 39.8945 42.832C40.6599 42.832 41.2152 43.0933 41.5605 43.616C41.9059 44.1293 42.0785 44.82 42.0785 45.688V50H39.6705V45.996C39.6705 45.548 39.6145 45.2493 39.5025 45.1C39.3905 44.9507 39.2132 44.876 38.9705 44.876C38.7465 44.876 38.5599 44.9227 38.4105 45.016C38.2612 45.1093 38.0932 45.24 37.9065 45.408V50H35.4985ZM46.531 50.168C46.0736 50.168 45.6816 50.1027 45.355 49.972C45.0376 49.832 44.7716 49.636 44.557 49.384C44.3516 49.132 44.1976 48.8333 44.095 48.488C44.0016 48.1333 43.955 47.7413 43.955 47.312V44.876H43.031V43.084L44.095 43L44.375 41.18H46.363V43H47.959V44.876H46.363V47.27C46.363 47.662 46.447 47.9327 46.615 48.082C46.783 48.222 46.979 48.292 47.203 48.292C47.315 48.292 47.4223 48.2827 47.525 48.264C47.637 48.236 47.735 48.208 47.819 48.18L48.183 49.916C47.9963 49.972 47.7723 50.028 47.511 50.084C47.2496 50.14 46.923 50.168 46.531 50.168ZM52.227 50.168C51.7137 50.168 51.2377 50.0887 50.799 49.93C50.3603 49.762 49.9777 49.524 49.651 49.216C49.3337 48.8987 49.0817 48.5113 48.895 48.054C48.7083 47.5967 48.615 47.0787 48.615 46.5C48.615 45.9307 48.7083 45.422 48.895 44.974C49.091 44.5167 49.343 44.1293 49.651 43.812C49.9683 43.4947 50.3277 43.252 50.729 43.084C51.1303 42.916 51.5457 42.832 51.975 42.832C52.4883 42.832 52.9363 42.9207 53.319 43.098C53.7017 43.2753 54.019 43.518 54.271 43.826C54.523 44.134 54.7097 44.4933 54.831 44.904C54.9617 45.3147 55.027 45.7533 55.027 46.22C55.027 46.4347 55.013 46.6353 54.985 46.822C54.9663 47.0087 54.9477 47.144 54.929 47.228H50.939C51.051 47.648 51.2517 47.942 51.541 48.11C51.8303 48.2687 52.171 48.348 52.563 48.348C52.8057 48.348 53.039 48.3153 53.263 48.25C53.4963 48.1753 53.739 48.068 53.991 47.928L54.775 49.356C54.3923 49.6267 53.9677 49.832 53.501 49.972C53.0437 50.1027 52.619 50.168 52.227 50.168ZM50.911 45.66H52.983C52.983 45.3893 52.913 45.156 52.773 44.96C52.6423 44.7547 52.395 44.652 52.031 44.652C51.7603 44.652 51.5223 44.7313 51.317 44.89C51.121 45.0487 50.9857 45.3053 50.911 45.66ZM56.3481 50V43H58.3081L58.4761 44.204H58.5321C58.7935 43.728 59.1015 43.3827 59.4561 43.168C59.8201 42.944 60.1748 42.832 60.5201 42.832C60.7348 42.832 60.9075 42.846 61.0381 42.874C61.1688 42.8927 61.2855 42.9253 61.3881 42.972L60.9961 45.044C60.8655 45.016 60.7395 44.9927 60.6181 44.974C60.5061 44.946 60.3708 44.932 60.2121 44.932C59.9601 44.932 59.6941 45.0207 59.4141 45.198C59.1435 45.366 58.9241 45.6693 58.7561 46.108V50H56.3481ZM62.1997 52.464V43H64.1597L64.3277 43.644H64.3837C64.645 43.4013 64.939 43.2053 65.2657 43.056C65.5924 42.9067 65.933 42.832 66.2877 42.832C66.6984 42.832 67.0717 42.916 67.4077 43.084C67.7437 43.252 68.0284 43.49 68.2617 43.798C68.5044 44.106 68.6864 44.4793 68.8077 44.918C68.9384 45.3567 69.0037 45.8467 69.0037 46.388C69.0037 46.9947 68.9197 47.5313 68.7517 47.998C68.593 48.4647 68.3784 48.8613 68.1077 49.188C67.837 49.5053 67.5244 49.748 67.1697 49.916C66.8244 50.084 66.465 50.168 66.0917 50.168C65.513 50.168 64.9904 49.9347 64.5237 49.468L64.6077 50.532V52.464H62.1997ZM65.5037 48.208C65.7837 48.208 66.0264 48.0773 66.2317 47.816C66.437 47.5547 66.5397 47.088 66.5397 46.416C66.5397 45.8373 66.4557 45.422 66.2877 45.17C66.129 44.918 65.8864 44.792 65.5597 44.792C65.373 44.792 65.205 44.8293 65.0557 44.904C64.9157 44.9787 64.7664 45.1093 64.6077 45.296V47.872C64.7477 48.0027 64.8924 48.0913 65.0417 48.138C65.191 48.1847 65.345 48.208 65.5037 48.208ZM70.3208 50V43H72.2808L72.4488 44.204H72.5048C72.7661 43.728 73.0741 43.3827 73.4288 43.168C73.7928 42.944 74.1475 42.832 74.4928 42.832C74.7075 42.832 74.8801 42.846 75.0108 42.874C75.1415 42.8927 75.2581 42.9253 75.3608 42.972L74.9688 45.044C74.8381 45.016 74.7121 44.9927 74.5908 44.974C74.4788 44.946 74.3435 44.932 74.1848 44.932C73.9328 44.932 73.6668 45.0207 73.3868 45.198C73.1161 45.366 72.8968 45.6693 72.7288 46.108V50H70.3208ZM76.1724 50V43H78.5804V50H76.1724ZM77.3764 42.132C76.9844 42.132 76.6624 42.02 76.4104 41.796C76.1584 41.572 76.0324 41.2827 76.0324 40.928C76.0324 40.5733 76.1584 40.284 76.4104 40.06C76.6624 39.836 76.9844 39.724 77.3764 39.724C77.7684 39.724 78.0904 39.836 78.3424 40.06C78.5944 40.284 78.7204 40.5733 78.7204 40.928C78.7204 41.2827 78.5944 41.572 78.3424 41.796C78.0904 42.02 77.7684 42.132 77.3764 42.132ZM82.3616 50.168C81.9136 50.168 81.4376 50.0793 80.9336 49.902C80.4389 49.7247 80.0096 49.4867 79.6456 49.188L80.7096 47.704C81.3442 48.1707 81.9136 48.404 82.4176 48.404C82.6696 48.404 82.8469 48.3713 82.9496 48.306C83.0616 48.2313 83.1176 48.124 83.1176 47.984C83.1176 47.8907 83.0802 47.8113 83.0056 47.746C82.9309 47.6713 82.8282 47.606 82.6976 47.55C82.5762 47.4847 82.4362 47.424 82.2776 47.368C82.1189 47.312 81.9509 47.2467 81.7736 47.172C81.5682 47.088 81.3582 46.99 81.1436 46.878C80.9382 46.7567 80.7516 46.612 80.5836 46.444C80.4156 46.276 80.2756 46.0847 80.1636 45.87C80.0609 45.646 80.0096 45.3893 80.0096 45.1C80.0096 44.7547 80.0749 44.442 80.2056 44.162C80.3456 43.882 80.5369 43.644 80.7796 43.448C81.0222 43.252 81.3116 43.1027 81.6476 43C81.9929 42.888 82.3709 42.832 82.7816 42.832C83.3602 42.832 83.8549 42.93 84.2656 43.126C84.6856 43.3127 85.0496 43.5227 85.3576 43.756L84.2936 45.184C84.0416 44.9973 83.7942 44.8527 83.5516 44.75C83.3089 44.6473 83.0802 44.596 82.8656 44.596C82.4549 44.596 82.2496 44.7267 82.2496 44.988C82.2496 45.0813 82.2822 45.1607 82.3476 45.226C82.4222 45.2913 82.5202 45.352 82.6416 45.408C82.7629 45.464 82.9029 45.52 83.0616 45.576C83.2202 45.6227 83.3882 45.6787 83.5656 45.744C83.7709 45.8187 83.9809 45.912 84.1956 46.024C84.4102 46.136 84.6016 46.276 84.7696 46.444C84.9469 46.6027 85.0869 46.7987 85.1896 47.032C85.3016 47.256 85.3576 47.5267 85.3576 47.844C85.3576 48.1707 85.2922 48.4787 85.1616 48.768C85.0309 49.048 84.8396 49.2953 84.5876 49.51C84.3356 49.7153 84.0229 49.8787 83.6496 50C83.2762 50.112 82.8469 50.168 82.3616 50.168ZM89.7836 50.168C89.2703 50.168 88.7943 50.0887 88.3556 49.93C87.917 49.762 87.5343 49.524 87.2076 49.216C86.8903 48.8987 86.6383 48.5113 86.4516 48.054C86.265 47.5967 86.1716 47.0787 86.1716 46.5C86.1716 45.9307 86.265 45.422 86.4516 44.974C86.6476 44.5167 86.8996 44.1293 87.2076 43.812C87.525 43.4947 87.8843 43.252 88.2856 43.084C88.687 42.916 89.1023 42.832 89.5316 42.832C90.045 42.832 90.493 42.9207 90.8756 43.098C91.2583 43.2753 91.5756 43.518 91.8276 43.826C92.0796 44.134 92.2663 44.4933 92.3876 44.904C92.5183 45.3147 92.5836 45.7533 92.5836 46.22C92.5836 46.4347 92.5696 46.6353 92.5416 46.822C92.523 47.0087 92.5043 47.144 92.4856 47.228H88.4956C88.6076 47.648 88.8083 47.942 89.0976 48.11C89.387 48.2687 89.7276 48.348 90.1196 48.348C90.3623 48.348 90.5956 48.3153 90.8196 48.25C91.053 48.1753 91.2956 48.068 91.5476 47.928L92.3316 49.356C91.949 49.6267 91.5243 49.832 91.0576 49.972C90.6003 50.1027 90.1756 50.168 89.7836 50.168ZM88.4676 45.66H90.5396C90.5396 45.3893 90.4696 45.156 90.3296 44.96C90.199 44.7547 89.9516 44.652 89.5876 44.652C89.317 44.652 89.079 44.7313 88.8736 44.89C88.6776 45.0487 88.5423 45.3053 88.4676 45.66ZM36.8263 70.168C36.4997 70.168 36.2057 70.112 35.9443 70C35.683 69.8787 35.459 69.72 35.2723 69.524C35.095 69.328 34.9597 69.0993 34.8663 68.838C34.773 68.5767 34.7263 68.3013 34.7263 68.012C34.7263 67.284 35.025 66.7147 35.6223 66.304C36.2197 65.884 37.1903 65.604 38.5343 65.464C38.4783 64.9787 38.1517 64.736 37.5543 64.736C37.3023 64.736 37.0363 64.7873 36.7563 64.89C36.4763 64.9833 36.1543 65.128 35.7903 65.324L34.9503 63.756C35.445 63.4573 35.9443 63.2287 36.4483 63.07C36.9523 62.9113 37.4797 62.832 38.0303 62.832C38.9357 62.832 39.645 63.0933 40.1583 63.616C40.681 64.1293 40.9423 64.96 40.9423 66.108V70H38.9823L38.8143 69.328H38.7583C38.4783 69.58 38.1797 69.7853 37.8623 69.944C37.5543 70.0933 37.209 70.168 36.8263 70.168ZM37.6663 68.32C37.8623 68.32 38.021 68.278 38.1423 68.194C38.273 68.1007 38.4037 67.984 38.5343 67.844V66.892C37.9557 66.976 37.559 67.102 37.3443 67.27C37.1297 67.438 37.0223 67.62 37.0223 67.816C37.0223 68.152 37.237 68.32 37.6663 68.32ZM42.5122 70V63H44.4722L44.6402 63.84H44.6962C44.9762 63.5693 45.2935 63.336 45.6482 63.14C46.0122 62.9347 46.4322 62.832 46.9082 62.832C47.6735 62.832 48.2289 63.0933 48.5742 63.616C48.9195 64.1293 49.0922 64.82 49.0922 65.688V70H46.6842V65.996C46.6842 65.548 46.6282 65.2493 46.5162 65.1C46.4042 64.9507 46.2269 64.876 45.9842 64.876C45.7602 64.876 45.5735 64.9227 45.4242 65.016C45.2749 65.1093 45.1069 65.24 44.9202 65.408V70H42.5122ZM52.4806 70.168C52.154 70.168 51.86 70.112 51.5986 70C51.3373 69.8787 51.1133 69.72 50.9266 69.524C50.7493 69.328 50.614 69.0993 50.5206 68.838C50.4273 68.5767 50.3806 68.3013 50.3806 68.012C50.3806 67.284 50.6793 66.7147 51.2766 66.304C51.874 65.884 52.8446 65.604 54.1886 65.464C54.1326 64.9787 53.806 64.736 53.2086 64.736C52.9566 64.736 52.6906 64.7873 52.4106 64.89C52.1306 64.9833 51.8086 65.128 51.4446 65.324L50.6046 63.756C51.0993 63.4573 51.5986 63.2287 52.1026 63.07C52.6066 62.9113 53.134 62.832 53.6846 62.832C54.59 62.832 55.2993 63.0933 55.8126 63.616C56.3353 64.1293 56.5966 64.96 56.5966 66.108V70H54.6366L54.4686 69.328H54.4126C54.1326 69.58 53.834 69.7853 53.5166 69.944C53.2086 70.0933 52.8633 70.168 52.4806 70.168ZM53.3206 68.32C53.5166 68.32 53.6753 68.278 53.7966 68.194C53.9273 68.1007 54.058 67.984 54.1886 67.844V66.892C53.61 66.976 53.2133 67.102 52.9986 67.27C52.784 67.438 52.6766 67.62 52.6766 67.816C52.6766 68.152 52.8913 68.32 53.3206 68.32ZM60.3225 70.168C59.9118 70.168 59.5665 70.1073 59.2865 69.986C59.0158 69.8553 58.7965 69.6733 58.6285 69.44C58.4605 69.2067 58.3392 68.9313 58.2645 68.614C58.1992 68.2873 58.1665 67.928 58.1665 67.536V60.256H60.5745V67.62C60.5745 67.8627 60.6165 68.026 60.7005 68.11C60.7938 68.194 60.8825 68.236 60.9665 68.236C61.0132 68.236 61.0505 68.236 61.0785 68.236C61.1158 68.236 61.1625 68.2267 61.2185 68.208L61.4985 69.972C61.3678 70.028 61.2045 70.0747 61.0085 70.112C60.8218 70.1493 60.5932 70.168 60.3225 70.168ZM63.3724 72.632C63.1297 72.632 62.9291 72.618 62.7704 72.59C62.6211 72.5713 62.4671 72.5387 62.3084 72.492L62.7284 70.672C62.7937 70.6907 62.8637 70.7093 62.9384 70.728C63.0224 70.7467 63.1017 70.756 63.1764 70.756C63.5031 70.756 63.7457 70.6907 63.9044 70.56C64.0724 70.4387 64.1937 70.2707 64.2684 70.056L64.3524 69.748L61.6924 63H64.1004L64.9404 65.688C65.0431 66.0147 65.1317 66.3413 65.2064 66.668C65.2811 66.9853 65.3604 67.3213 65.4444 67.676H65.5004C65.5751 67.34 65.6451 67.0087 65.7104 66.682C65.7851 66.3553 65.8644 66.024 65.9484 65.688L66.6484 63H68.9444L66.5924 69.888C66.4057 70.364 66.2144 70.7747 66.0184 71.12C65.8317 71.4653 65.6124 71.75 65.3604 71.974C65.1084 72.198 64.8191 72.3613 64.4924 72.464C64.1751 72.576 63.8017 72.632 63.3724 72.632ZM72.0803 70.168C71.6323 70.168 71.1563 70.0793 70.6523 69.902C70.1576 69.7247 69.7283 69.4867 69.3643 69.188L70.4283 67.704C71.063 68.1707 71.6323 68.404 72.1363 68.404C72.3883 68.404 72.5656 68.3713 72.6683 68.306C72.7803 68.2313 72.8363 68.124 72.8363 67.984C72.8363 67.8907 72.799 67.8113 72.7243 67.746C72.6496 67.6713 72.547 67.606 72.4163 67.55C72.295 67.4847 72.155 67.424 71.9963 67.368C71.8376 67.312 71.6696 67.2467 71.4923 67.172C71.287 67.088 71.077 66.99 70.8623 66.878C70.657 66.7567 70.4703 66.612 70.3023 66.444C70.1343 66.276 69.9943 66.0847 69.8823 65.87C69.7796 65.646 69.7283 65.3893 69.7283 65.1C69.7283 64.7547 69.7936 64.442 69.9243 64.162C70.0643 63.882 70.2556 63.644 70.4983 63.448C70.741 63.252 71.0303 63.1027 71.3663 63C71.7116 62.888 72.0896 62.832 72.5003 62.832C73.079 62.832 73.5736 62.93 73.9843 63.126C74.4043 63.3127 74.7683 63.5227 75.0763 63.756L74.0123 65.184C73.7603 64.9973 73.513 64.8527 73.2703 64.75C73.0276 64.6473 72.799 64.596 72.5843 64.596C72.1736 64.596 71.9683 64.7267 71.9683 64.988C71.9683 65.0813 72.001 65.1607 72.0663 65.226C72.141 65.2913 72.239 65.352 72.3603 65.408C72.4816 65.464 72.6216 65.52 72.7803 65.576C72.939 65.6227 73.107 65.6787 73.2843 65.744C73.4896 65.8187 73.6996 65.912 73.9143 66.024C74.129 66.136 74.3203 66.276 74.4883 66.444C74.6656 66.6027 74.8056 66.7987 74.9083 67.032C75.0203 67.256 75.0763 67.5267 75.0763 67.844C75.0763 68.1707 75.011 68.4787 74.8803 68.768C74.7496 69.048 74.5583 69.2953 74.3063 69.51C74.0543 69.7153 73.7416 69.8787 73.3683 70C72.995 70.112 72.5656 70.168 72.0803 70.168ZM76.2544 70V63H78.6624V70H76.2544ZM77.4584 62.132C77.0664 62.132 76.7444 62.02 76.4924 61.796C76.2404 61.572 76.1144 61.2827 76.1144 60.928C76.1144 60.5733 76.2404 60.284 76.4924 60.06C76.7444 59.836 77.0664 59.724 77.4584 59.724C77.8504 59.724 78.1724 59.836 78.4244 60.06C78.6764 60.284 78.8024 60.5733 78.8024 60.928C78.8024 61.2827 78.6764 61.572 78.4244 61.796C78.1724 62.02 77.8504 62.132 77.4584 62.132ZM82.4436 70.168C81.9956 70.168 81.5196 70.0793 81.0156 69.902C80.5209 69.7247 80.0916 69.4867 79.7276 69.188L80.7916 67.704C81.4263 68.1707 81.9956 68.404 82.4996 68.404C82.7516 68.404 82.9289 68.3713 83.0316 68.306C83.1436 68.2313 83.1996 68.124 83.1996 67.984C83.1996 67.8907 83.1623 67.8113 83.0876 67.746C83.0129 67.6713 82.9103 67.606 82.7796 67.55C82.6583 67.4847 82.5183 67.424 82.3596 67.368C82.2009 67.312 82.0329 67.2467 81.8556 67.172C81.6503 67.088 81.4403 66.99 81.2256 66.878C81.0203 66.7567 80.8336 66.612 80.6656 66.444C80.4976 66.276 80.3576 66.0847 80.2456 65.87C80.1429 65.646 80.0916 65.3893 80.0916 65.1C80.0916 64.7547 80.1569 64.442 80.2876 64.162C80.4276 63.882 80.6189 63.644 80.8616 63.448C81.1043 63.252 81.3936 63.1027 81.7296 63C82.0749 62.888 82.4529 62.832 82.8636 62.832C83.4423 62.832 83.9369 62.93 84.3476 63.126C84.7676 63.3127 85.1316 63.5227 85.4396 63.756L84.3756 65.184C84.1236 64.9973 83.8763 64.8527 83.6336 64.75C83.3909 64.6473 83.1623 64.596 82.9476 64.596C82.5369 64.596 82.3316 64.7267 82.3316 64.988C82.3316 65.0813 82.3643 65.1607 82.4296 65.226C82.5043 65.2913 82.6023 65.352 82.7236 65.408C82.8449 65.464 82.9849 65.52 83.1436 65.576C83.3023 65.6227 83.4703 65.6787 83.6476 65.744C83.8529 65.8187 84.0629 65.912 84.2776 66.024C84.4923 66.136 84.6836 66.276 84.8516 66.444C85.0289 66.6027 85.1689 66.7987 85.2716 67.032C85.3836 67.256 85.4396 67.5267 85.4396 67.844C85.4396 68.1707 85.3743 68.4787 85.2436 68.768C85.1129 69.048 84.9216 69.2953 84.6696 69.51C84.4176 69.7153 84.1049 69.8787 83.7316 70C83.3583 70.112 82.9289 70.168 82.4436 70.168Z" fill="#333333"/>
<g filter="url(#filter3_d)">
<circle cx="180" cy="55" r="40" fill="white"/>
</g>
<path d="M199.11 37.721C199.009 37.6015 198.865 37.5269 198.71 37.5136L190.005 36.7701L189.847 35.5156C189.806 35.1929 189.511 34.9641 189.189 35.0047L181.113 36.02C181.082 36.0117 181.049 36.0054 181.015 36.0025L169.915 35.0544C169.596 35.0263 169.306 35.2721 169.278 35.5911L169.113 37.5286L160.515 38.6095C160.197 38.6495 159.965 38.949 160.004 39.2673L164.393 74.1742C164.413 74.3334 164.379 74.4864 164.444 74.6404C164.535 74.8561 164.752 75 164.987 75H193.886C194.211 75 194.475 74.7365 194.475 74.4111V73.644L195.615 73.7414C195.935 73.7691 196.225 73.5239 196.252 73.2047L199.246 38.1508C199.26 37.995 199.211 37.8405 199.11 37.721ZM164.398 64.7674L161.247 39.7047L164.398 39.3086V64.7674ZM170.402 36.2783L175.557 36.7185L170.308 37.3784L170.402 36.2783ZM188.751 36.2469L189.052 38.6404H169.713L188.751 36.2469ZM195.129 72.5175L194.475 72.4617V55.2496C194.475 54.9243 194.211 54.6606 193.886 54.6606C193.56 54.6606 193.297 54.9242 193.297 55.2496V73.822H165.576V39.8184H193.297V52.5011C193.297 52.8265 193.56 53.09 193.886 53.09C194.211 53.09 194.475 52.8265 194.475 52.5011V39.2294C194.475 38.9041 194.211 38.6404 193.886 38.6404H190.24L190.155 37.9652L198.023 38.6372L195.129 72.5175Z" fill="#333333" fill-opacity="0.5"/>
<path d="M190.744 41.7812H187.603C187.406 41.7812 187.222 41.8796 187.113 42.0435L185.78 44.0432C184.345 43.0153 182.588 42.4095 180.693 42.4095C180.367 42.4095 180.104 42.673 180.104 42.9984V51.1656C180.104 51.4909 180.367 51.7546 180.693 51.7546H188.86C189.185 51.7546 189.449 51.491 189.449 51.1656C189.449 48.658 188.389 46.3937 186.694 44.7959L187.918 42.9592H190.744C191.07 42.9592 191.333 42.6956 191.333 42.3702C191.333 42.0448 191.07 41.7812 190.744 41.7812ZM188.248 50.5766H181.281V43.6101C182.71 43.7204 184.028 44.2298 185.126 45.0247L184.6 45.813C184.436 46.0591 184.484 46.4 184.711 46.5904C184.976 46.8134 185.388 46.7545 185.58 46.4665L186.03 45.7918C187.282 47.0357 188.104 48.7126 188.248 50.5766Z" fill="#333333" fill-opacity="0.5"/>
<path d="M190.745 61.2571H185.417L184.478 59.7552C185.999 58.1794 186.936 56.0366 186.936 53.679C186.936 53.3536 186.673 53.09 186.347 53.09H178.769V45.5118C178.769 45.1865 178.505 44.9229 178.18 44.9229C173.352 44.9229 169.424 48.8509 169.424 53.679C169.424 58.5071 173.352 62.4352 178.18 62.4352C180.221 62.4352 182.101 61.7333 183.591 60.5584L184.591 62.1584C184.699 62.3306 184.888 62.4352 185.091 62.4352H190.745C191.07 62.4352 191.334 62.1716 191.334 61.8462C191.334 61.5208 191.07 61.2571 190.745 61.2571ZM182.449 56.5081C182.277 56.2321 181.913 56.1483 181.637 56.3207C181.362 56.4931 181.278 56.8565 181.45 57.1324L182.963 59.5529C181.658 60.6178 179.992 61.2573 178.18 61.2573C174.001 61.2573 170.602 57.8577 170.602 53.6791C170.602 49.6986 173.687 46.4251 177.591 46.1236V53.6791C177.591 54.0044 177.855 54.2681 178.18 54.2681H185.736C185.604 55.9713 184.907 57.5184 183.832 58.7215L182.449 56.5081Z" fill="#333333" fill-opacity="0.5"/>
<path d="M173.154 64.3984H168.128C167.803 64.3984 167.539 64.662 167.539 64.9874C167.539 65.3128 167.803 65.5764 168.128 65.5764H173.154C173.479 65.5764 173.743 65.3128 173.743 64.9874C173.743 64.662 173.479 64.3984 173.154 64.3984Z" fill="#333333" fill-opacity="0.5"/>
<path d="M180.693 64.3984H175.667C175.342 64.3984 175.078 64.662 175.078 64.9874C175.078 65.3128 175.342 65.5764 175.667 65.5764H180.693C181.018 65.5764 181.282 65.3128 181.282 64.9874C181.282 64.662 181.018 64.3984 180.693 64.3984Z" fill="#333333" fill-opacity="0.5"/>
<path d="M176.295 67.54H168.128C167.803 67.54 167.539 67.8036 167.539 68.129C167.539 68.4544 167.803 68.718 168.128 68.718H176.295C176.621 68.718 176.884 68.4544 176.884 68.129C176.884 67.8036 176.62 67.54 176.295 67.54Z" fill="#333333" fill-opacity="0.5"/>
<path d="M180.693 67.54H178.808C178.483 67.54 178.219 67.8036 178.219 68.129C178.219 68.4544 178.482 68.718 178.808 68.718H180.693C181.018 68.718 181.281 68.4544 181.281 68.129C181.281 67.8036 181.018 67.54 180.693 67.54Z" fill="#333333" fill-opacity="0.5"/>
<path d="M170.641 70.6807H168.128C167.803 70.6807 167.539 70.9443 167.539 71.2696C167.539 71.595 167.803 71.8586 168.128 71.8586H170.641C170.966 71.8586 171.23 71.595 171.23 71.2696C171.23 70.9443 170.966 70.6807 170.641 70.6807Z" fill="#333333" fill-opacity="0.5"/>
<path d="M180.692 70.6807H173.153C172.828 70.6807 172.564 70.9443 172.564 71.2696C172.564 71.595 172.828 71.8586 173.153 71.8586H180.692C181.018 71.8586 181.281 71.595 181.281 71.2696C181.281 70.9443 181.018 70.6807 180.692 70.6807Z" fill="#333333" fill-opacity="0.5"/>
<defs>
<filter id="filter0_d" x="315" y="3" width="110" height="110" filterUnits="userSpaceOnUse" color-interpolation-filters="sRGB">
<feFlood flood-opacity="0" result="BackgroundImageFix"/>
<feColorMatrix in="SourceAlpha" type="matrix" values="0 0 0 0 0 0 0 0 0 0 0 0 0 0 0 0 0 0 127 0"/>
<feOffset dy="4"/>
<feGaussianBlur stdDeviation="7.5"/>
<feColorMatrix type="matrix" values="0 0 0 0 0 0 0 0 0 0 0 0 0 0 0 0 0 0 0.25 0"/>
<feBlend mode="normal" in2="BackgroundImageFix" result="effect1_dropShadow"/>
<feBlend mode="normal" in="SourceGraphic" in2="effect1_dropShadow" result="shape"/>
</filter>
<filter id="filter1_d" x="315" y="211" width="110" height="110" filterUnits="userSpaceOnUse" color-interpolation-filters="sRGB">
<feFlood flood-opacity="0" result="BackgroundImageFix"/>
<feColorMatrix in="SourceAlpha" type="matrix" values="0 0 0 0 0 0 0 0 0 0 0 0 0 0 0 0 0 0 127 0"/>
<feOffset dy="4"/>
<feGaussianBlur stdDeviation="7.5"/>
<feColorMatrix type="matrix" values="0 0 0 0 0 0 0 0 0 0 0 0 0 0 0 0 0 0 0.25 0"/>
<feBlend mode="normal" in2="BackgroundImageFix" result="effect1_dropShadow"/>
<feBlend mode="normal" in="SourceGraphic" in2="effect1_dropShadow" result="shape"/>
</filter>
<filter id="filter2_d" x="125" y="211" width="110" height="110" filterUnits="userSpaceOnUse" color-interpolation-filters="sRGB">
<feFlood flood-opacity="0" result="BackgroundImageFix"/>
<feColorMatrix in="SourceAlpha" type="matrix" values="0 0 0 0 0 0 0 0 0 0 0 0 0 0 0 0 0 0 127 0"/>
<feOffset dy="4"/>
<feGaussianBlur stdDeviation="7.5"/>
<feColorMatrix type="matrix" values="0 0 0 0 0 0 0 0 0 0 0 0 0 0 0 0 0 0 0.25 0"/>
<feBlend mode="normal" in2="BackgroundImageFix" result="effect1_dropShadow"/>
<feBlend mode="normal" in="SourceGraphic" in2="effect1_dropShadow" result="shape"/>
</filter>
<filter id="filter3_d" x="125" y="4" width="110" height="110" filterUnits="userSpaceOnUse" color-interpolation-filters="sRGB">
<feFlood flood-opacity="0" result="BackgroundImageFix"/>
<feColorMatrix in="SourceAlpha" type="matrix" values="0 0 0 0 0 0 0 0 0 0 0 0 0 0 0 0 0 0 127 0"/>
<feOffset dy="4"/>
<feGaussianBlur stdDeviation="7.5"/>
<feColorMatrix type="matrix" values="0 0 0 0 0 0 0 0 0 0 0 0 0 0 0 0 0 0 0.25 0"/>
<feBlend mode="normal" in2="BackgroundImageFix" result="effect1_dropShadow"/>
<feBlend mode="normal" in="SourceGraphic" in2="effect1_dropShadow" result="shape"/>
</filter>
</defs>
</svg>
