<svg width="550" height="321" viewBox="0 0 550 321" fill="none" xmlns="http://www.w3.org/2000/svg">
<circle cx="270" cy="158" r="143" transform="rotate(5.65933 270 158)" stroke="#D3D3D3" stroke-width="2" stroke-miterlimit="16" stroke-dasharray="10 20"/>
<circle cx="270" cy="158" r="143" stroke="#C80030" stroke-width="2" stroke-miterlimit="16" stroke-dasharray="10 20"/>
<path d="M448.721 50V40.9H454.601V42.916H451.129V44.344H454.097V46.36H451.129V47.984H454.741V50H448.721ZM458.764 50.168C458.307 50.168 457.915 50.1027 457.588 49.972C457.271 49.832 457.005 49.636 456.79 49.384C456.585 49.132 456.431 48.8333 456.328 48.488C456.235 48.1333 456.188 47.7413 456.188 47.312V44.876H455.264V43.084L456.328 43L456.608 41.18H458.596V43H460.192V44.876H458.596V47.27C458.596 47.662 458.68 47.9327 458.848 48.082C459.016 48.222 459.212 48.292 459.436 48.292C459.548 48.292 459.656 48.2827 459.758 48.264C459.87 48.236 459.968 48.208 460.052 48.18L460.416 49.916C460.23 49.972 460.006 50.028 459.744 50.084C459.483 50.14 459.156 50.168 458.764 50.168ZM461.486 50V40.256H463.894V42.524L463.782 43.728C464.024 43.5133 464.314 43.3127 464.65 43.126C464.995 42.93 465.406 42.832 465.882 42.832C466.647 42.832 467.202 43.0933 467.548 43.616C467.893 44.1293 468.066 44.82 468.066 45.688V50H465.658V45.996C465.658 45.548 465.602 45.2493 465.49 45.1C465.378 44.9507 465.2 44.876 464.958 44.876C464.734 44.876 464.547 44.9227 464.398 45.016C464.248 45.1093 464.08 45.24 463.894 45.408V50H461.486ZM469.634 50V43H471.594L471.762 43.84H471.818C472.098 43.5693 472.416 43.336 472.77 43.14C473.134 42.9347 473.554 42.832 474.03 42.832C474.796 42.832 475.351 43.0933 475.696 43.616C476.042 44.1293 476.214 44.82 476.214 45.688V50H473.806V45.996C473.806 45.548 473.75 45.2493 473.638 45.1C473.526 44.9507 473.349 44.876 473.106 44.876C472.882 44.876 472.696 44.9227 472.546 45.016C472.397 45.1093 472.229 45.24 472.042 45.408V50H469.634ZM480.891 50.168C480.443 50.168 480.009 50.0887 479.589 49.93C479.169 49.762 478.795 49.524 478.469 49.216C478.151 48.8987 477.895 48.5113 477.699 48.054C477.512 47.5967 477.419 47.0787 477.419 46.5C477.419 45.9213 477.512 45.4033 477.699 44.946C477.895 44.4887 478.151 44.106 478.469 43.798C478.795 43.4807 479.169 43.2427 479.589 43.084C480.009 42.916 480.443 42.832 480.891 42.832C481.339 42.832 481.768 42.916 482.179 43.084C482.599 43.2427 482.967 43.4807 483.285 43.798C483.611 44.106 483.873 44.4887 484.069 44.946C484.265 45.4033 484.363 45.9213 484.363 46.5C484.363 47.0787 484.265 47.5967 484.069 48.054C483.873 48.5113 483.611 48.8987 483.285 49.216C482.967 49.524 482.599 49.762 482.179 49.93C481.768 50.0887 481.339 50.168 480.891 50.168ZM480.891 48.236C481.255 48.236 481.511 48.082 481.661 47.774C481.819 47.4567 481.899 47.032 481.899 46.5C481.899 45.968 481.819 45.548 481.661 45.24C481.511 44.9227 481.255 44.764 480.891 44.764C480.527 44.764 480.265 44.9227 480.107 45.24C479.957 45.548 479.883 45.968 479.883 46.5C479.883 47.032 479.957 47.4567 480.107 47.774C480.265 48.082 480.527 48.236 480.891 48.236ZM488.165 52.884C487.763 52.884 487.385 52.8513 487.031 52.786C486.676 52.73 486.363 52.632 486.093 52.492C485.831 52.352 485.621 52.17 485.463 51.946C485.304 51.7313 485.225 51.4653 485.225 51.148C485.225 50.5973 485.551 50.1493 486.205 49.804V49.748C486.018 49.6173 485.864 49.4587 485.743 49.272C485.621 49.0853 485.561 48.8427 485.561 48.544C485.561 48.3013 485.631 48.0633 485.771 47.83C485.911 47.5967 486.102 47.396 486.345 47.228V47.172C486.093 47.004 485.869 46.766 485.673 46.458C485.486 46.15 485.393 45.7907 485.393 45.38C485.393 44.9507 485.477 44.5773 485.645 44.26C485.813 43.9333 486.037 43.6673 486.317 43.462C486.597 43.2473 486.914 43.0887 487.269 42.986C487.633 42.8833 488.006 42.832 488.389 42.832C488.799 42.832 489.173 42.888 489.509 43H492.113V44.736H491.105C491.133 44.82 491.156 44.9273 491.175 45.058C491.203 45.1887 491.217 45.324 491.217 45.464C491.217 45.8747 491.142 46.2293 490.993 46.528C490.843 46.8173 490.643 47.0553 490.391 47.242C490.139 47.4287 489.84 47.5687 489.495 47.662C489.149 47.746 488.781 47.788 488.389 47.788C488.155 47.788 487.894 47.7553 487.605 47.69C487.53 47.7553 487.483 47.816 487.465 47.872C487.446 47.9187 487.437 47.9933 487.437 48.096C487.437 48.2547 487.511 48.3667 487.661 48.432C487.81 48.488 488.062 48.516 488.417 48.516H489.467C490.344 48.516 491.021 48.6607 491.497 48.95C491.982 49.23 492.225 49.692 492.225 50.336C492.225 50.7187 492.127 51.064 491.931 51.372C491.744 51.6893 491.473 51.96 491.119 52.184C490.773 52.408 490.349 52.5807 489.845 52.702C489.35 52.8233 488.79 52.884 488.165 52.884ZM488.389 46.36C488.613 46.36 488.795 46.2807 488.935 46.122C489.075 45.9633 489.145 45.716 489.145 45.38C489.145 45.0533 489.075 44.8153 488.935 44.666C488.795 44.5073 488.613 44.428 488.389 44.428C488.165 44.428 487.983 44.5073 487.843 44.666C487.703 44.8153 487.633 45.0533 487.633 45.38C487.633 45.716 487.703 45.9633 487.843 46.122C487.983 46.2807 488.165 46.36 488.389 46.36ZM488.557 51.4C488.949 51.4 489.275 51.3393 489.537 51.218C489.798 51.106 489.929 50.952 489.929 50.756C489.929 50.5693 489.845 50.4527 489.677 50.406C489.518 50.3593 489.289 50.336 488.991 50.336H488.445C488.165 50.336 487.95 50.3267 487.801 50.308C487.661 50.2987 487.539 50.28 487.437 50.252C487.353 50.336 487.287 50.4153 487.241 50.49C487.203 50.5647 487.185 50.6533 487.185 50.756C487.185 50.98 487.311 51.1433 487.563 51.246C487.815 51.3487 488.146 51.4 488.557 51.4ZM493.259 50V43H495.219L495.387 44.204H495.443C495.705 43.728 496.013 43.3827 496.367 43.168C496.731 42.944 497.086 42.832 497.431 42.832C497.646 42.832 497.819 42.846 497.949 42.874C498.08 42.8927 498.197 42.9253 498.299 42.972L497.907 45.044C497.777 45.016 497.651 44.9927 497.529 44.974C497.417 44.946 497.282 44.932 497.123 44.932C496.871 44.932 496.605 45.0207 496.325 45.198C496.055 45.366 495.835 45.6693 495.667 46.108V50H493.259ZM500.507 50.168C500.18 50.168 499.886 50.112 499.625 50C499.364 49.8787 499.14 49.72 498.953 49.524C498.776 49.328 498.64 49.0993 498.547 48.838C498.454 48.5767 498.407 48.3013 498.407 48.012C498.407 47.284 498.706 46.7147 499.303 46.304C499.9 45.884 500.871 45.604 502.215 45.464C502.159 44.9787 501.832 44.736 501.235 44.736C500.983 44.736 500.717 44.7873 500.437 44.89C500.157 44.9833 499.835 45.128 499.471 45.324L498.631 43.756C499.126 43.4573 499.625 43.2287 500.129 43.07C500.633 42.9113 501.16 42.832 501.711 42.832C502.616 42.832 503.326 43.0933 503.839 43.616C504.362 44.1293 504.623 44.96 504.623 46.108V50H502.663L502.495 49.328H502.439C502.159 49.58 501.86 49.7853 501.543 49.944C501.235 50.0933 500.89 50.168 500.507 50.168ZM501.347 48.32C501.543 48.32 501.702 48.278 501.823 48.194C501.954 48.1007 502.084 47.984 502.215 47.844V46.892C501.636 46.976 501.24 47.102 501.025 47.27C500.81 47.438 500.703 47.62 500.703 47.816C500.703 48.152 500.918 48.32 501.347 48.32ZM506.193 52.464V43H508.153L508.321 43.644H508.377C508.638 43.4013 508.932 43.2053 509.259 43.056C509.586 42.9067 509.926 42.832 510.281 42.832C510.692 42.832 511.065 42.916 511.401 43.084C511.737 43.252 512.022 43.49 512.255 43.798C512.498 44.106 512.68 44.4793 512.801 44.918C512.932 45.3567 512.997 45.8467 512.997 46.388C512.997 46.9947 512.913 47.5313 512.745 47.998C512.586 48.4647 512.372 48.8613 512.101 49.188C511.83 49.5053 511.518 49.748 511.163 49.916C510.818 50.084 510.458 50.168 510.085 50.168C509.506 50.168 508.984 49.9347 508.517 49.468L508.601 50.532V52.464H506.193ZM509.497 48.208C509.777 48.208 510.02 48.0773 510.225 47.816C510.43 47.5547 510.533 47.088 510.533 46.416C510.533 45.8373 510.449 45.422 510.281 45.17C510.122 44.918 509.88 44.792 509.553 44.792C509.366 44.792 509.198 44.8293 509.049 44.904C508.909 44.9787 508.76 45.1093 508.601 45.296V47.872C508.741 48.0027 508.886 48.0913 509.035 48.138C509.184 48.1847 509.338 48.208 509.497 48.208ZM514.314 50V40.256H516.722V42.524L516.61 43.728C516.853 43.5133 517.142 43.3127 517.478 43.126C517.823 42.93 518.234 42.832 518.71 42.832C519.475 42.832 520.031 43.0933 520.376 43.616C520.721 44.1293 520.894 44.82 520.894 45.688V50H518.486V45.996C518.486 45.548 518.43 45.2493 518.318 45.1C518.206 44.9507 518.029 44.876 517.786 44.876C517.562 44.876 517.375 44.9227 517.226 45.016C517.077 45.1093 516.909 45.24 516.722 45.408V50H514.314ZM522.462 50V43H524.87V50H522.462ZM523.666 42.132C523.274 42.132 522.952 42.02 522.7 41.796C522.448 41.572 522.322 41.2827 522.322 40.928C522.322 40.5733 522.448 40.284 522.7 40.06C522.952 39.836 523.274 39.724 523.666 39.724C524.058 39.724 524.38 39.836 524.632 40.06C524.884 40.284 525.01 40.5733 525.01 40.928C525.01 41.2827 524.884 41.572 524.632 41.796C524.38 42.02 524.058 42.132 523.666 42.132ZM529.66 50.168C529.165 50.168 528.703 50.0887 528.274 49.93C527.844 49.762 527.471 49.524 527.154 49.216C526.836 48.8987 526.584 48.5113 526.398 48.054C526.22 47.5967 526.132 47.0787 526.132 46.5C526.132 45.9213 526.234 45.4033 526.44 44.946C526.645 44.4887 526.92 44.106 527.266 43.798C527.611 43.4807 528.008 43.2427 528.456 43.084C528.913 42.916 529.389 42.832 529.884 42.832C530.304 42.832 530.682 42.8973 531.018 43.028C531.354 43.1587 531.657 43.336 531.928 43.56L530.808 45.1C530.649 44.9693 530.509 44.8807 530.388 44.834C530.276 44.7873 530.154 44.764 530.024 44.764C529.576 44.764 529.226 44.9227 528.974 45.24C528.722 45.548 528.596 45.968 528.596 46.5C528.596 47.032 528.722 47.4567 528.974 47.774C529.235 48.082 529.557 48.236 529.94 48.236C530.136 48.236 530.327 48.194 530.514 48.11C530.71 48.026 530.892 47.9187 531.06 47.788L531.984 49.356C531.629 49.664 531.242 49.8787 530.822 50C530.411 50.112 530.024 50.168 529.66 50.168ZM470.163 70.168C469.715 70.168 469.239 70.0793 468.735 69.902C468.241 69.7247 467.811 69.4867 467.447 69.188L468.511 67.704C469.146 68.1707 469.715 68.404 470.219 68.404C470.471 68.404 470.649 68.3713 470.751 68.306C470.863 68.2313 470.919 68.124 470.919 67.984C470.919 67.8907 470.882 67.8113 470.807 67.746C470.733 67.6713 470.63 67.606 470.499 67.55C470.378 67.4847 470.238 67.424 470.079 67.368C469.921 67.312 469.753 67.2467 469.575 67.172C469.37 67.088 469.16 66.99 468.945 66.878C468.74 66.7567 468.553 66.612 468.385 66.444C468.217 66.276 468.077 66.0847 467.965 65.87C467.863 65.646 467.811 65.3893 467.811 65.1C467.811 64.7547 467.877 64.442 468.007 64.162C468.147 63.882 468.339 63.644 468.581 63.448C468.824 63.252 469.113 63.1027 469.449 63C469.795 62.888 470.173 62.832 470.583 62.832C471.162 62.832 471.657 62.93 472.067 63.126C472.487 63.3127 472.851 63.5227 473.159 63.756L472.095 65.184C471.843 64.9973 471.596 64.8527 471.353 64.75C471.111 64.6473 470.882 64.596 470.667 64.596C470.257 64.596 470.051 64.7267 470.051 64.988C470.051 65.0813 470.084 65.1607 470.149 65.226C470.224 65.2913 470.322 65.352 470.443 65.408C470.565 65.464 470.705 65.52 470.863 65.576C471.022 65.6227 471.19 65.6787 471.367 65.744C471.573 65.8187 471.783 65.912 471.997 66.024C472.212 66.136 472.403 66.276 472.571 66.444C472.749 66.6027 472.889 66.7987 472.991 67.032C473.103 67.256 473.159 67.5267 473.159 67.844C473.159 68.1707 473.094 68.4787 472.963 68.768C472.833 69.048 472.641 69.2953 472.389 69.51C472.137 69.7153 471.825 69.8787 471.451 70C471.078 70.112 470.649 70.168 470.163 70.168ZM476.948 70.168C476.491 70.168 476.099 70.1027 475.772 69.972C475.455 69.832 475.189 69.636 474.974 69.384C474.769 69.132 474.615 68.8333 474.512 68.488C474.419 68.1333 474.372 67.7413 474.372 67.312V64.876H473.448V63.084L474.512 63L474.792 61.18H476.78V63H478.376V64.876H476.78V67.27C476.78 67.662 476.864 67.9327 477.032 68.082C477.2 68.222 477.396 68.292 477.62 68.292C477.732 68.292 477.839 68.2827 477.942 68.264C478.054 68.236 478.152 68.208 478.236 68.18L478.6 69.916C478.413 69.972 478.189 70.028 477.928 70.084C477.667 70.14 477.34 70.168 476.948 70.168ZM481.797 70.168C481.415 70.168 481.083 70.1027 480.803 69.972C480.533 69.832 480.309 69.6407 480.131 69.398C479.954 69.146 479.823 68.8473 479.739 68.502C479.655 68.1473 479.613 67.7507 479.613 67.312V63H482.021V67.004C482.021 67.452 482.077 67.7507 482.189 67.9C482.301 68.0493 482.479 68.124 482.721 68.124C482.945 68.124 483.127 68.0773 483.267 67.984C483.417 67.8907 483.571 67.732 483.729 67.508V63H486.137V70H484.177L484.009 69.076H483.953C483.673 69.412 483.361 69.678 483.015 69.874C482.679 70.07 482.273 70.168 481.797 70.168ZM490.311 70.168C489.873 70.168 489.476 70.084 489.121 69.916C488.776 69.748 488.477 69.5053 488.225 69.188C487.983 68.8707 487.791 68.488 487.651 68.04C487.521 67.5827 487.455 67.0693 487.455 66.5C487.455 65.9307 487.535 65.4173 487.693 64.96C487.861 64.5027 488.076 64.12 488.337 63.812C488.608 63.4947 488.916 63.252 489.261 63.084C489.607 62.916 489.957 62.832 490.311 62.832C490.694 62.832 491.007 62.8973 491.249 63.028C491.492 63.1493 491.721 63.3173 491.935 63.532L491.851 62.524V60.256H494.259V70H492.299L492.131 69.356H492.075C491.833 69.5987 491.553 69.7947 491.235 69.944C490.927 70.0933 490.619 70.168 490.311 70.168ZM490.955 68.208C491.142 68.208 491.305 68.1753 491.445 68.11C491.585 68.0353 491.721 67.9 491.851 67.704V65.128C491.711 64.9973 491.557 64.9087 491.389 64.862C491.221 64.8153 491.058 64.792 490.899 64.792C490.647 64.792 490.419 64.918 490.213 65.17C490.017 65.422 489.919 65.856 489.919 66.472C489.919 67.1067 490.008 67.5547 490.185 67.816C490.372 68.0773 490.629 68.208 490.955 68.208ZM495.884 70V63H498.292V70H495.884ZM497.088 62.132C496.696 62.132 496.374 62.02 496.122 61.796C495.87 61.572 495.744 61.2827 495.744 60.928C495.744 60.5733 495.87 60.284 496.122 60.06C496.374 59.836 496.696 59.724 497.088 59.724C497.48 59.724 497.802 59.836 498.054 60.06C498.306 60.284 498.432 60.5733 498.432 60.928C498.432 61.2827 498.306 61.572 498.054 61.796C497.802 62.02 497.48 62.132 497.088 62.132ZM503.165 70.168C502.652 70.168 502.176 70.0887 501.737 69.93C501.299 69.762 500.916 69.524 500.589 69.216C500.272 68.8987 500.02 68.5113 499.833 68.054C499.647 67.5967 499.553 67.0787 499.553 66.5C499.553 65.9307 499.647 65.422 499.833 64.974C500.029 64.5167 500.281 64.1293 500.589 63.812C500.907 63.4947 501.266 63.252 501.667 63.084C502.069 62.916 502.484 62.832 502.913 62.832C503.427 62.832 503.875 62.9207 504.257 63.098C504.64 63.2753 504.957 63.518 505.209 63.826C505.461 64.134 505.648 64.4933 505.769 64.904C505.9 65.3147 505.965 65.7533 505.965 66.22C505.965 66.4347 505.951 66.6353 505.923 66.822C505.905 67.0087 505.886 67.144 505.867 67.228H501.877C501.989 67.648 502.19 67.942 502.479 68.11C502.769 68.2687 503.109 68.348 503.501 68.348C503.744 68.348 503.977 68.3153 504.201 68.25C504.435 68.1753 504.677 68.068 504.929 67.928L505.713 69.356C505.331 69.6267 504.906 69.832 504.439 69.972C503.982 70.1027 503.557 70.168 503.165 70.168ZM501.849 65.66H503.921C503.921 65.3893 503.851 65.156 503.711 64.96C503.581 64.7547 503.333 64.652 502.969 64.652C502.699 64.652 502.461 64.7313 502.255 64.89C502.059 65.0487 501.924 65.3053 501.849 65.66ZM509.443 70.168C508.995 70.168 508.519 70.0793 508.015 69.902C507.52 69.7247 507.091 69.4867 506.727 69.188L507.791 67.704C508.425 68.1707 508.995 68.404 509.499 68.404C509.751 68.404 509.928 68.3713 510.031 68.306C510.143 68.2313 510.199 68.124 510.199 67.984C510.199 67.8907 510.161 67.8113 510.087 67.746C510.012 67.6713 509.909 67.606 509.779 67.55C509.657 67.4847 509.517 67.424 509.359 67.368C509.2 67.312 509.032 67.2467 508.855 67.172C508.649 67.088 508.439 66.99 508.225 66.878C508.019 66.7567 507.833 66.612 507.665 66.444C507.497 66.276 507.357 66.0847 507.245 65.87C507.142 65.646 507.091 65.3893 507.091 65.1C507.091 64.7547 507.156 64.442 507.287 64.162C507.427 63.882 507.618 63.644 507.861 63.448C508.103 63.252 508.393 63.1027 508.729 63C509.074 62.888 509.452 62.832 509.863 62.832C510.441 62.832 510.936 62.93 511.347 63.126C511.767 63.3127 512.131 63.5227 512.439 63.756L511.375 65.184C511.123 64.9973 510.875 64.8527 510.633 64.75C510.39 64.6473 510.161 64.596 509.947 64.596C509.536 64.596 509.331 64.7267 509.331 64.988C509.331 65.0813 509.363 65.1607 509.429 65.226C509.503 65.2913 509.601 65.352 509.723 65.408C509.844 65.464 509.984 65.52 510.143 65.576C510.301 65.6227 510.469 65.6787 510.647 65.744C510.852 65.8187 511.062 65.912 511.277 66.024C511.491 66.136 511.683 66.276 511.851 66.444C512.028 66.6027 512.168 66.7987 512.271 67.032C512.383 67.256 512.439 67.5267 512.439 67.844C512.439 68.1707 512.373 68.4787 512.243 68.768C512.112 69.048 511.921 69.2953 511.669 69.51C511.417 69.7153 511.104 69.8787 510.731 70C510.357 70.112 509.928 70.168 509.443 70.168Z" fill="#333333"/>
<g filter="url(#filter0_d)">
<circle cx="370" cy="54" r="40" fill="white"/>
</g>
<g opacity="0.5">
<path d="M364.375 46.5V52.125C364.375 52.2908 364.441 52.4497 364.558 52.5669C364.675 52.6842 364.834 52.75 365 52.75H366.25V51.5H365.625V46.5C365.626 46.0029 365.823 45.5263 366.175 45.1748C366.526 44.8233 367.003 44.6256 367.5 44.625H372.5C372.746 44.6245 372.99 44.6727 373.218 44.7668C373.446 44.8608 373.653 44.9989 373.827 45.1731C374.001 45.3473 374.139 45.5542 374.233 45.7819C374.327 46.0096 374.375 46.2536 374.375 46.5V48.375H375.625V46.5C375.626 46.0895 375.545 45.6829 375.388 45.3035C375.231 44.9241 375.001 44.5794 374.711 44.2891C374.421 43.9989 374.076 43.7687 373.696 43.6118C373.317 43.455 372.911 43.3745 372.5 43.375H372.484C372.898 42.8371 373.123 42.1783 373.125 41.5V40.25C373.125 39.4212 372.796 38.6263 372.21 38.0403C371.624 37.4542 370.829 37.125 370 37.125C369.171 37.125 368.376 37.4542 367.79 38.0403C367.204 38.6263 366.875 39.4212 366.875 40.25V41.5C366.877 42.1784 367.103 42.8372 367.516 43.375H367.5C366.671 43.376 365.877 43.7055 365.291 44.2914C364.706 44.8772 364.376 45.6715 364.375 46.5ZM368.125 41.5V40.25C368.125 39.7527 368.323 39.2758 368.674 38.9242C369.026 38.5725 369.503 38.375 370 38.375C370.497 38.375 370.974 38.5725 371.326 38.9242C371.677 39.2758 371.875 39.7527 371.875 40.25V41.5C371.875 41.9973 371.677 42.4742 371.326 42.8258C370.974 43.1775 370.497 43.375 370 43.375C369.503 43.375 369.026 43.1775 368.674 42.8258C368.323 42.4742 368.125 41.9973 368.125 41.5Z" fill="#333333"/>
<path d="M366.875 46.5H368.125V51.5H366.875V46.5Z" fill="#333333"/>
<path d="M371.875 46.5H373.125V49H371.875V46.5Z" fill="#333333"/>
<path d="M385.625 43.375H385.609C386.023 42.8371 386.248 42.1783 386.25 41.5V40.25C386.25 39.4212 385.921 38.6263 385.335 38.0403C384.749 37.4542 383.954 37.125 383.125 37.125C382.296 37.125 381.501 37.4542 380.915 38.0403C380.329 38.6263 380 39.4212 380 40.25V41.5C380.002 42.1783 380.227 42.8371 380.641 43.375H380.625C379.796 43.376 379.002 43.7055 378.416 44.2914C377.831 44.8772 377.501 45.6715 377.5 46.5V49H378.75V46.5C378.751 46.0029 378.948 45.5263 379.3 45.1748C379.651 44.8233 380.128 44.6256 380.625 44.625H385.625C385.871 44.6245 386.115 44.6727 386.343 44.7668C386.571 44.8608 386.778 44.9989 386.952 45.1731C387.126 45.3473 387.264 45.5542 387.358 45.7819C387.452 46.0096 387.5 46.2536 387.5 46.5V51.5H386.25V46.5H385V55.875H386.25V52.75H388.125C388.291 52.75 388.45 52.6842 388.567 52.5669C388.684 52.4497 388.75 52.2908 388.75 52.125V46.5C388.751 46.0895 388.67 45.6829 388.513 45.3035C388.356 44.9241 388.126 44.5794 387.836 44.2891C387.546 43.9989 387.201 43.7687 386.821 43.6118C386.442 43.455 386.036 43.3745 385.625 43.375ZM381.25 41.5V40.25C381.25 39.7527 381.448 39.2758 381.799 38.9242C382.151 38.5725 382.628 38.375 383.125 38.375C383.622 38.375 384.099 38.5725 384.451 38.9242C384.802 39.2758 385 39.7527 385 40.25V41.5C385 41.9973 384.802 42.4742 384.451 42.8258C384.099 43.1775 383.622 43.375 383.125 43.375C382.628 43.375 382.151 43.1775 381.799 42.8258C381.448 42.4742 381.25 41.9973 381.25 41.5Z" fill="#333333"/>
<path d="M380 46.5H381.25V49.625H380V46.5Z" fill="#333333"/>
<path d="M351.25 61.5C351.251 62.3285 351.581 63.1228 352.166 63.7086C352.752 64.2945 353.546 64.624 354.375 64.625H364.375V63.375H356.859C357.275 62.8383 357.5 62.1788 357.5 61.5C357.5 60.8212 357.275 60.1617 356.859 59.625H363.75V58.375H360V52.75H361.875C362.041 52.75 362.2 52.6842 362.317 52.5669C362.434 52.4497 362.5 52.2908 362.5 52.125V46.5C362.499 45.6715 362.169 44.8772 361.584 44.2914C360.998 43.7055 360.204 43.376 359.375 43.375H359.359C359.773 42.8371 359.998 42.1783 360 41.5V40.25C360 39.4212 359.671 38.6263 359.085 38.0403C358.499 37.4542 357.704 37.125 356.875 37.125C356.046 37.125 355.251 37.4542 354.665 38.0403C354.079 38.6263 353.75 39.4212 353.75 40.25V41.5C353.752 42.1783 353.977 42.8371 354.391 43.375H354.375C353.546 43.376 352.752 43.7055 352.166 44.2914C351.581 44.8772 351.251 45.6715 351.25 46.5V52.125C351.25 52.2908 351.316 52.4497 351.433 52.5669C351.55 52.6842 351.709 52.75 351.875 52.75H353.75V58.4382C353.045 58.5832 352.411 58.9669 351.956 59.5246C351.5 60.0823 351.251 60.78 351.25 61.5ZM356.25 61.5C356.25 61.8708 356.14 62.2334 355.934 62.5417C355.728 62.85 355.435 63.0904 355.093 63.2323C354.75 63.3742 354.373 63.4113 354.009 63.339C353.645 63.2666 353.311 63.088 353.049 62.8258C352.787 62.5636 352.608 62.2295 352.536 61.8658C352.464 61.5021 352.501 61.1251 352.643 60.7825C352.785 60.4399 353.025 60.147 353.333 59.941C353.642 59.735 354.004 59.625 354.375 59.625C354.872 59.6256 355.349 59.8233 355.7 60.1748C356.052 60.5263 356.249 61.0029 356.25 61.5ZM355 41.5V40.25C355 39.7527 355.198 39.2758 355.549 38.9242C355.901 38.5725 356.378 38.375 356.875 38.375C357.372 38.375 357.849 38.5725 358.201 38.9242C358.552 39.2758 358.75 39.7527 358.75 40.25V41.5C358.75 41.9973 358.552 42.4742 358.201 42.8258C357.849 43.1775 357.372 43.375 356.875 43.375C356.378 43.375 355.901 43.1775 355.549 42.8258C355.198 42.4742 355 41.9973 355 41.5ZM352.5 51.5V46.5C352.501 46.0029 352.698 45.5263 353.05 45.1748C353.401 44.8233 353.878 44.6256 354.375 44.625H359.375C359.872 44.6256 360.349 44.8233 360.7 45.1748C361.052 45.5263 361.249 46.0029 361.25 46.5V51.5H360V46.5H358.75V58.375H357.5V52.125H356.25V58.375H355V46.5H353.75V51.5H352.5Z" fill="#333333"/>
<path d="M386.406 58.4736L386.095 59.6839C386.575 59.8095 386.986 60.1205 387.238 60.5487C387.489 60.9768 387.56 61.4872 387.436 61.9679C387.312 62.4487 387.002 62.8605 386.575 63.1132C386.147 63.3659 385.637 63.4387 385.156 63.3158L384.845 64.5261C385.647 64.7332 386.499 64.6129 387.213 64.1917C387.927 63.7706 388.445 63.0831 388.652 62.2805C388.859 61.4779 388.738 60.6259 388.317 59.912C387.896 59.1981 387.209 58.6807 386.406 58.4736Z" fill="#333333"/>
<path d="M353.75 60.875H355V62.125H353.75V60.875Z" fill="#333333"/>
<path d="M358.75 60.875H360V62.125H358.75V60.875Z" fill="#333333"/>
<path d="M361.25 60.875H362.5V62.125H361.25V60.875Z" fill="#333333"/>
<path d="M385 60.875H386.25V62.125H385V60.875Z" fill="#333333"/>
<path d="M383.566 64.8083L383.486 64.8884C384.806 62.7673 385.287 60.2305 384.836 57.7735C384.386 55.3165 383.035 53.1158 381.049 51.6011C379.062 50.0865 376.583 49.3667 374.094 49.5824C371.605 49.7981 369.287 50.9338 367.59 52.7677C365.894 54.6015 364.943 57.0018 364.921 59.4997C364.9 61.9976 365.811 64.4137 367.475 66.2761C369.14 68.1385 371.439 69.3135 373.924 69.5715C376.409 69.8296 378.9 69.1521 380.912 67.6715L385.419 72.1789C385.692 72.4517 386.04 72.6375 386.418 72.7127C386.797 72.788 387.189 72.7493 387.545 72.6017C387.902 72.454 388.206 72.204 388.421 71.8832C388.635 71.5624 388.75 71.1853 388.75 70.7995C388.75 70.5432 388.7 70.2893 388.602 70.0525C388.504 69.8157 388.36 69.6008 388.178 69.4201L383.566 64.8083ZM366.25 59.6252C366.25 57.8946 366.763 56.2029 367.724 54.7639C368.686 53.325 370.052 52.2035 371.651 51.5412C373.25 50.879 375.009 50.7057 376.707 51.0433C378.404 51.3809 379.963 52.2143 381.187 53.438C382.41 54.6617 383.244 56.2208 383.581 57.9181C383.919 59.6155 383.746 61.3748 383.083 62.9736C382.421 64.5725 381.3 65.9391 379.861 66.9005C378.422 67.862 376.73 68.3752 375 68.3752C372.68 68.3726 370.456 67.4499 368.815 65.8095C367.175 64.1691 366.252 61.945 366.25 59.6252ZM386.799 71.5002C386.613 71.4996 386.435 71.4259 386.303 71.2951L381.875 66.8674C382.215 66.5453 382.532 66.2 382.824 65.8338L387.294 70.304C387.392 70.402 387.459 70.5269 387.486 70.6628C387.513 70.7987 387.499 70.9396 387.446 71.0676C387.393 71.1956 387.303 71.305 387.188 71.382C387.073 71.459 386.937 71.5001 386.799 71.5002Z" fill="#333333"/>
<path d="M375 52.125C373.517 52.125 372.067 52.5649 370.833 53.389C369.6 54.2131 368.639 55.3844 368.071 56.7549C367.503 58.1253 367.355 59.6333 367.644 61.0882C367.934 62.543 368.648 63.8794 369.697 64.9283C370.746 65.9772 372.082 66.6915 373.537 66.9809C374.992 67.2703 376.5 67.1217 377.87 66.5541C379.241 65.9864 380.412 65.0251 381.236 63.7918C382.06 62.5584 382.5 61.1084 382.5 59.625C382.498 57.6366 381.707 55.7302 380.301 54.3241C378.895 52.9181 376.988 52.1272 375 52.125ZM375 53.375C376.038 53.3738 377.06 53.6316 377.974 54.1249C378.887 54.6181 379.663 55.3314 380.231 56.2001C380.8 57.0688 381.142 58.0655 381.228 59.1001C381.315 60.1346 381.141 61.1743 380.725 62.125H369.276C368.859 61.1743 368.685 60.1346 368.772 59.1001C368.858 58.0655 369.2 57.0688 369.769 56.2001C370.337 55.3314 371.113 54.6181 372.026 54.1248C372.94 53.6315 373.962 53.3738 375 53.375ZM375 65.875C374.032 65.8741 373.077 65.6477 372.211 65.2138C371.345 64.7799 370.592 64.1503 370.012 63.375H379.988C379.408 64.1503 378.655 64.7799 377.789 65.2138C376.923 65.6477 375.968 65.8741 375 65.875Z" fill="#333333"/>
<path d="M370.625 57.125H371.875V60.875H370.625V57.125Z" fill="#333333"/>
<path d="M373.125 58.375H374.375V60.875H373.125V58.375Z" fill="#333333"/>
<path d="M375.625 55.25H376.875V60.875H375.625V55.25Z" fill="#333333"/>
<path d="M378.125 58.375H379.375V60.875H378.125V58.375Z" fill="#333333"/>
</g>
<path d="M432.889 267V257.9H436.221C436.716 257.9 437.187 257.951 437.635 258.054C438.083 258.147 438.475 258.315 438.811 258.558C439.147 258.791 439.413 259.104 439.609 259.496C439.814 259.879 439.917 260.355 439.917 260.924C439.917 261.484 439.814 261.965 439.609 262.366C439.413 262.767 439.147 263.099 438.811 263.36C438.475 263.612 438.088 263.803 437.649 263.934C437.21 264.055 436.753 264.116 436.277 264.116H435.297V267H432.889ZM435.297 262.212H436.165C436.641 262.212 436.991 262.1 437.215 261.876C437.448 261.652 437.565 261.335 437.565 260.924C437.565 260.513 437.439 260.224 437.187 260.056C436.935 259.888 436.576 259.804 436.109 259.804H435.297V262.212ZM444.185 267.168C443.672 267.168 443.196 267.089 442.757 266.93C442.318 266.762 441.936 266.524 441.609 266.216C441.292 265.899 441.04 265.511 440.853 265.054C440.666 264.597 440.573 264.079 440.573 263.5C440.573 262.931 440.666 262.422 440.853 261.974C441.049 261.517 441.301 261.129 441.609 260.812C441.926 260.495 442.286 260.252 442.687 260.084C443.088 259.916 443.504 259.832 443.933 259.832C444.446 259.832 444.894 259.921 445.277 260.098C445.66 260.275 445.977 260.518 446.229 260.826C446.481 261.134 446.668 261.493 446.789 261.904C446.92 262.315 446.985 262.753 446.985 263.22C446.985 263.435 446.971 263.635 446.943 263.822C446.924 264.009 446.906 264.144 446.887 264.228H442.897C443.009 264.648 443.21 264.942 443.499 265.11C443.788 265.269 444.129 265.348 444.521 265.348C444.764 265.348 444.997 265.315 445.221 265.25C445.454 265.175 445.697 265.068 445.949 264.928L446.733 266.356C446.35 266.627 445.926 266.832 445.459 266.972C445.002 267.103 444.577 267.168 444.185 267.168ZM442.869 262.66H444.941C444.941 262.389 444.871 262.156 444.731 261.96C444.6 261.755 444.353 261.652 443.989 261.652C443.718 261.652 443.48 261.731 443.275 261.89C443.079 262.049 442.944 262.305 442.869 262.66ZM448.306 267V260H450.266L450.434 261.204H450.49C450.751 260.728 451.059 260.383 451.414 260.168C451.778 259.944 452.133 259.832 452.478 259.832C452.693 259.832 452.865 259.846 452.996 259.874C453.127 259.893 453.243 259.925 453.346 259.972L452.954 262.044C452.823 262.016 452.697 261.993 452.576 261.974C452.464 261.946 452.329 261.932 452.17 261.932C451.918 261.932 451.652 262.021 451.372 262.198C451.101 262.366 450.882 262.669 450.714 263.108V267H448.306ZM456.177 267.168C455.729 267.168 455.253 267.079 454.749 266.902C454.254 266.725 453.825 266.487 453.461 266.188L454.525 264.704C455.16 265.171 455.729 265.404 456.233 265.404C456.485 265.404 456.662 265.371 456.765 265.306C456.877 265.231 456.933 265.124 456.933 264.984C456.933 264.891 456.896 264.811 456.821 264.746C456.746 264.671 456.644 264.606 456.513 264.55C456.392 264.485 456.252 264.424 456.093 264.368C455.934 264.312 455.766 264.247 455.589 264.172C455.384 264.088 455.174 263.99 454.959 263.878C454.754 263.757 454.567 263.612 454.399 263.444C454.231 263.276 454.091 263.085 453.979 262.87C453.876 262.646 453.825 262.389 453.825 262.1C453.825 261.755 453.89 261.442 454.021 261.162C454.161 260.882 454.352 260.644 454.595 260.448C454.838 260.252 455.127 260.103 455.463 260C455.808 259.888 456.186 259.832 456.597 259.832C457.176 259.832 457.67 259.93 458.081 260.126C458.501 260.313 458.865 260.523 459.173 260.756L458.109 262.184C457.857 261.997 457.61 261.853 457.367 261.75C457.124 261.647 456.896 261.596 456.681 261.596C456.27 261.596 456.065 261.727 456.065 261.988C456.065 262.081 456.098 262.161 456.163 262.226C456.238 262.291 456.336 262.352 456.457 262.408C456.578 262.464 456.718 262.52 456.877 262.576C457.036 262.623 457.204 262.679 457.381 262.744C457.586 262.819 457.796 262.912 458.011 263.024C458.226 263.136 458.417 263.276 458.585 263.444C458.762 263.603 458.902 263.799 459.005 264.032C459.117 264.256 459.173 264.527 459.173 264.844C459.173 265.171 459.108 265.479 458.977 265.768C458.846 266.048 458.655 266.295 458.403 266.51C458.151 266.715 457.838 266.879 457.465 267C457.092 267.112 456.662 267.168 456.177 267.168ZM463.459 267.168C463.011 267.168 462.577 267.089 462.157 266.93C461.737 266.762 461.364 266.524 461.037 266.216C460.72 265.899 460.463 265.511 460.267 265.054C460.08 264.597 459.987 264.079 459.987 263.5C459.987 262.921 460.08 262.403 460.267 261.946C460.463 261.489 460.72 261.106 461.037 260.798C461.364 260.481 461.737 260.243 462.157 260.084C462.577 259.916 463.011 259.832 463.459 259.832C463.907 259.832 464.336 259.916 464.747 260.084C465.167 260.243 465.536 260.481 465.853 260.798C466.18 261.106 466.441 261.489 466.637 261.946C466.833 262.403 466.931 262.921 466.931 263.5C466.931 264.079 466.833 264.597 466.637 265.054C466.441 265.511 466.18 265.899 465.853 266.216C465.536 266.524 465.167 266.762 464.747 266.93C464.336 267.089 463.907 267.168 463.459 267.168ZM463.459 265.236C463.823 265.236 464.08 265.082 464.229 264.774C464.388 264.457 464.467 264.032 464.467 263.5C464.467 262.968 464.388 262.548 464.229 262.24C464.08 261.923 463.823 261.764 463.459 261.764C463.095 261.764 462.834 261.923 462.675 262.24C462.526 262.548 462.451 262.968 462.451 263.5C462.451 264.032 462.526 264.457 462.675 264.774C462.834 265.082 463.095 265.236 463.459 265.236ZM468.185 267V260H470.145L470.313 260.84H470.369C470.649 260.569 470.966 260.336 471.321 260.14C471.685 259.935 472.105 259.832 472.581 259.832C473.346 259.832 473.902 260.093 474.247 260.616C474.592 261.129 474.765 261.82 474.765 262.688V267H472.357V262.996C472.357 262.548 472.301 262.249 472.189 262.1C472.077 261.951 471.9 261.876 471.657 261.876C471.433 261.876 471.246 261.923 471.097 262.016C470.948 262.109 470.78 262.24 470.593 262.408V267H468.185ZM478.153 267.168C477.827 267.168 477.533 267.112 477.271 267C477.01 266.879 476.786 266.72 476.599 266.524C476.422 266.328 476.287 266.099 476.193 265.838C476.1 265.577 476.053 265.301 476.053 265.012C476.053 264.284 476.352 263.715 476.949 263.304C477.547 262.884 478.517 262.604 479.861 262.464C479.805 261.979 479.479 261.736 478.881 261.736C478.629 261.736 478.363 261.787 478.083 261.89C477.803 261.983 477.481 262.128 477.117 262.324L476.277 260.756C476.772 260.457 477.271 260.229 477.775 260.07C478.279 259.911 478.807 259.832 479.357 259.832C480.263 259.832 480.972 260.093 481.485 260.616C482.008 261.129 482.269 261.96 482.269 263.108V267H480.309L480.141 266.328H480.085C479.805 266.58 479.507 266.785 479.189 266.944C478.881 267.093 478.536 267.168 478.153 267.168ZM478.993 265.32C479.189 265.32 479.348 265.278 479.469 265.194C479.6 265.101 479.731 264.984 479.861 264.844V263.892C479.283 263.976 478.886 264.102 478.671 264.27C478.457 264.438 478.349 264.62 478.349 264.816C478.349 265.152 478.564 265.32 478.993 265.32ZM489.19 267.168C488.751 267.168 488.355 267.084 488 266.916C487.655 266.748 487.356 266.505 487.104 266.188C486.861 265.871 486.67 265.488 486.53 265.04C486.399 264.583 486.334 264.069 486.334 263.5C486.334 262.931 486.413 262.417 486.572 261.96C486.74 261.503 486.955 261.12 487.216 260.812C487.487 260.495 487.795 260.252 488.14 260.084C488.485 259.916 488.835 259.832 489.19 259.832C489.573 259.832 489.885 259.897 490.128 260.028C490.371 260.149 490.599 260.317 490.814 260.532L490.73 259.524V257.256H493.138V267H491.178L491.01 266.356H490.954C490.711 266.599 490.431 266.795 490.114 266.944C489.806 267.093 489.498 267.168 489.19 267.168ZM489.834 265.208C490.021 265.208 490.184 265.175 490.324 265.11C490.464 265.035 490.599 264.9 490.73 264.704V262.128C490.59 261.997 490.436 261.909 490.268 261.862C490.1 261.815 489.937 261.792 489.778 261.792C489.526 261.792 489.297 261.918 489.092 262.17C488.896 262.422 488.798 262.856 488.798 263.472C488.798 264.107 488.887 264.555 489.064 264.816C489.251 265.077 489.507 265.208 489.834 265.208ZM498.011 267.168C497.498 267.168 497.022 267.089 496.583 266.93C496.145 266.762 495.762 266.524 495.435 266.216C495.118 265.899 494.866 265.511 494.679 265.054C494.493 264.597 494.399 264.079 494.399 263.5C494.399 262.931 494.493 262.422 494.679 261.974C494.875 261.517 495.127 261.129 495.435 260.812C495.753 260.495 496.112 260.252 496.513 260.084C496.915 259.916 497.33 259.832 497.759 259.832C498.273 259.832 498.721 259.921 499.103 260.098C499.486 260.275 499.803 260.518 500.055 260.826C500.307 261.134 500.494 261.493 500.615 261.904C500.746 262.315 500.811 262.753 500.811 263.22C500.811 263.435 500.797 263.635 500.769 263.822C500.751 264.009 500.732 264.144 500.713 264.228H496.723C496.835 264.648 497.036 264.942 497.325 265.11C497.615 265.269 497.955 265.348 498.347 265.348C498.59 265.348 498.823 265.315 499.047 265.25C499.281 265.175 499.523 265.068 499.775 264.928L500.559 266.356C500.177 266.627 499.752 266.832 499.285 266.972C498.828 267.103 498.403 267.168 498.011 267.168ZM496.695 262.66H498.767C498.767 262.389 498.697 262.156 498.557 261.96C498.427 261.755 498.179 261.652 497.815 261.652C497.545 261.652 497.307 261.731 497.101 261.89C496.905 262.049 496.77 262.305 496.695 262.66ZM502.47 267V261.876H501.546V260.084L502.47 260.014V259.916C502.47 259.543 502.517 259.188 502.61 258.852C502.704 258.507 502.858 258.203 503.072 257.942C503.296 257.681 503.581 257.475 503.926 257.326C504.281 257.167 504.72 257.088 505.242 257.088C505.569 257.088 505.858 257.116 506.11 257.172C506.362 257.228 506.568 257.284 506.726 257.34L506.306 259.104C506.194 259.057 506.078 259.025 505.956 259.006C505.835 258.978 505.718 258.964 505.606 258.964C505.382 258.964 505.205 259.029 505.074 259.16C504.944 259.281 504.878 259.505 504.878 259.832V260H506.054V261.876H504.878V267H502.47ZM507.095 267V260H509.503V267H507.095ZM508.299 259.132C507.907 259.132 507.585 259.02 507.333 258.796C507.081 258.572 506.955 258.283 506.955 257.928C506.955 257.573 507.081 257.284 507.333 257.06C507.585 256.836 507.907 256.724 508.299 256.724C508.691 256.724 509.013 256.836 509.265 257.06C509.517 257.284 509.643 257.573 509.643 257.928C509.643 258.283 509.517 258.572 509.265 258.796C509.013 259.02 508.691 259.132 508.299 259.132ZM511.128 267V260H513.088L513.256 260.84H513.312C513.592 260.569 513.91 260.336 514.264 260.14C514.628 259.935 515.048 259.832 515.524 259.832C516.29 259.832 516.845 260.093 517.19 260.616C517.536 261.129 517.708 261.82 517.708 262.688V267H515.3V262.996C515.3 262.548 515.244 262.249 515.132 262.1C515.02 261.951 514.843 261.876 514.6 261.876C514.376 261.876 514.19 261.923 514.04 262.016C513.891 262.109 513.723 262.24 513.536 262.408V267H511.128ZM519.277 267V260H521.685V267H519.277ZM520.481 259.132C520.089 259.132 519.767 259.02 519.515 258.796C519.263 258.572 519.137 258.283 519.137 257.928C519.137 257.573 519.263 257.284 519.515 257.06C519.767 256.836 520.089 256.724 520.481 256.724C520.873 256.724 521.195 256.836 521.447 257.06C521.699 257.284 521.825 257.573 521.825 257.928C521.825 258.283 521.699 258.572 521.447 258.796C521.195 259.02 520.873 259.132 520.481 259.132ZM526.194 267.168C525.737 267.168 525.345 267.103 525.018 266.972C524.701 266.832 524.435 266.636 524.22 266.384C524.015 266.132 523.861 265.833 523.758 265.488C523.665 265.133 523.618 264.741 523.618 264.312V261.876H522.694V260.084L523.758 260L524.038 258.18H526.026V260H527.622V261.876H526.026V264.27C526.026 264.662 526.11 264.933 526.278 265.082C526.446 265.222 526.642 265.292 526.866 265.292C526.978 265.292 527.085 265.283 527.188 265.264C527.3 265.236 527.398 265.208 527.482 265.18L527.846 266.916C527.659 266.972 527.435 267.028 527.174 267.084C526.913 267.14 526.586 267.168 526.194 267.168ZM528.916 267V260H531.324V267H528.916ZM530.12 259.132C529.728 259.132 529.406 259.02 529.154 258.796C528.902 258.572 528.776 258.283 528.776 257.928C528.776 257.573 528.902 257.284 529.154 257.06C529.406 256.836 529.728 256.724 530.12 256.724C530.512 256.724 530.834 256.836 531.086 257.06C531.338 257.284 531.464 257.573 531.464 257.928C531.464 258.283 531.338 258.572 531.086 258.796C530.834 259.02 530.512 259.132 530.12 259.132ZM536.057 267.168C535.609 267.168 535.175 267.089 534.755 266.93C534.335 266.762 533.961 266.524 533.635 266.216C533.317 265.899 533.061 265.511 532.865 265.054C532.678 264.597 532.585 264.079 532.585 263.5C532.585 262.921 532.678 262.403 532.865 261.946C533.061 261.489 533.317 261.106 533.635 260.798C533.961 260.481 534.335 260.243 534.755 260.084C535.175 259.916 535.609 259.832 536.057 259.832C536.505 259.832 536.934 259.916 537.345 260.084C537.765 260.243 538.133 260.481 538.451 260.798C538.777 261.106 539.039 261.489 539.235 261.946C539.431 262.403 539.529 262.921 539.529 263.5C539.529 264.079 539.431 264.597 539.235 265.054C539.039 265.511 538.777 265.899 538.451 266.216C538.133 266.524 537.765 266.762 537.345 266.93C536.934 267.089 536.505 267.168 536.057 267.168ZM536.057 265.236C536.421 265.236 536.677 265.082 536.827 264.774C536.985 264.457 537.065 264.032 537.065 263.5C537.065 262.968 536.985 262.548 536.827 262.24C536.677 261.923 536.421 261.764 536.057 261.764C535.693 261.764 535.431 261.923 535.273 262.24C535.123 262.548 535.049 262.968 535.049 263.5C535.049 264.032 535.123 264.457 535.273 264.774C535.431 265.082 535.693 265.236 536.057 265.236ZM540.783 267V260H542.743L542.911 260.84H542.967C543.247 260.569 543.564 260.336 543.919 260.14C544.283 259.935 544.703 259.832 545.179 259.832C545.944 259.832 546.499 260.093 546.845 260.616C547.19 261.129 547.363 261.82 547.363 262.688V267H544.955V262.996C544.955 262.548 544.899 262.249 544.787 262.1C544.675 261.951 544.497 261.876 544.255 261.876C544.031 261.876 543.844 261.923 543.695 262.016C543.545 262.109 543.377 262.24 543.191 262.408V267H540.783Z" fill="#333333"/>
<g filter="url(#filter1_d)">
<circle cx="370" cy="262" r="40" fill="white"/>
</g>
<g opacity="0.5">
<path d="M381.002 263.34L376.677 257.834C378.213 256.259 379.14 254.19 379.294 251.996H385.992V252.729C384.442 253.048 383.328 254.412 383.327 255.994C383.327 257.835 384.819 259.326 386.659 259.326C388.499 259.325 389.991 257.833 389.99 255.993C389.99 254.41 388.876 253.046 387.325 252.729V251.33C387.325 250.962 387.026 250.663 386.658 250.663H379.294C379.164 248.817 378.484 247.052 377.342 245.596L378.271 244.666H386.115C386.483 245.707 387.625 246.253 388.666 245.884C389.707 245.516 390.252 244.374 389.884 243.333C389.516 242.292 388.374 241.747 387.333 242.115C386.764 242.316 386.316 242.764 386.115 243.333H377.996C377.819 243.333 377.65 243.404 377.525 243.528L376.448 244.605C372.745 241.038 366.852 241.149 363.285 244.852C361.77 246.426 360.856 248.483 360.704 250.663H355.106L352.928 245.764C353.902 245.251 354.276 244.046 353.763 243.072C353.251 242.099 352.046 241.725 351.072 242.237C350.098 242.75 349.724 243.954 350.237 244.928C350.506 245.44 350.985 245.81 351.548 245.941L354.063 251.601C354.171 251.841 354.409 251.996 354.672 251.996H360.704C360.857 254.165 361.767 256.212 363.274 257.779L357.649 263.404C354.011 262.859 350.62 265.366 350.075 269.004C349.53 272.641 352.037 276.032 355.675 276.577C355.785 276.593 355.895 276.607 356.005 276.618V279.984C356.005 280.352 356.304 280.65 356.672 280.65H362.792C363.16 281.691 364.302 282.237 365.343 281.869C366.384 281.501 366.929 280.358 366.561 279.318C366.193 278.277 365.051 277.731 364.01 278.099C363.441 278.3 362.993 278.748 362.792 279.318H357.338V276.618C360.998 276.253 363.669 272.99 363.304 269.33C363.057 266.854 361.45 264.722 359.137 263.802L364.268 258.671C367.61 261.302 372.313 261.321 375.676 258.717L379.373 263.423C374.268 264.135 370.707 268.851 371.419 273.956C372.131 279.06 376.847 282.621 381.952 281.909C387.056 281.197 390.618 276.482 389.905 271.377C389.28 266.893 385.527 263.505 381.002 263.34ZM388.658 255.994C388.658 257.099 387.763 257.994 386.658 257.994C385.554 257.994 384.659 257.099 384.659 255.994C384.659 254.89 385.554 253.995 386.658 253.995C387.763 253.995 388.658 254.89 388.658 255.994ZM387.991 243.333C388.359 243.333 388.658 243.632 388.658 244C388.658 244.368 388.359 244.666 387.991 244.666C387.623 244.666 387.325 244.368 387.325 244C387.325 243.632 387.623 243.333 387.991 243.333ZM352.007 244.666C351.639 244.666 351.341 244.368 351.341 244C351.341 243.632 351.639 243.333 352.007 243.333C352.375 243.333 352.673 243.632 352.673 244C352.673 244.368 352.375 244.666 352.007 244.666ZM364.668 279.318C365.036 279.318 365.334 279.616 365.334 279.984C365.334 280.352 365.036 280.65 364.668 280.65C364.3 280.65 364.002 280.352 364.002 279.984C364.002 279.616 364.3 279.318 364.668 279.318ZM359.337 274.598C357.69 275.56 355.653 275.56 354.006 274.598V273.32C354.006 271.848 355.199 270.655 356.672 270.655C358.144 270.655 359.337 271.848 359.337 273.32V274.598ZM355.339 267.989C355.339 267.253 355.936 266.656 356.672 266.656C357.408 266.656 358.004 267.253 358.004 267.989C358.004 268.725 357.408 269.322 356.672 269.322C355.936 269.322 355.339 268.725 355.339 267.989ZM360.67 266.451C361.531 267.427 362.005 268.686 362.003 269.988C362.002 271.283 361.528 272.533 360.67 273.503V273.32C360.669 271.863 359.876 270.522 358.599 269.82C359.616 268.755 359.577 267.068 358.512 266.051C357.447 265.035 355.76 265.074 354.743 266.139C353.76 267.169 353.76 268.79 354.743 269.82C353.467 270.522 352.674 271.863 352.673 273.32V273.503C350.726 271.295 350.937 267.926 353.145 265.978C355.354 264.031 358.722 264.242 360.67 266.451ZM374.664 257.81C371.882 259.829 368.116 259.829 365.334 257.81V256.194C365.334 254.98 366.319 253.995 367.534 253.995H369.013L368.046 256.413C367.947 256.661 368.005 256.944 368.194 257.132L369.527 258.465C369.787 258.725 370.209 258.725 370.469 258.465L371.802 257.132C371.99 256.943 372.049 256.661 371.95 256.413L370.983 253.995H372.465C373.679 253.995 374.664 254.98 374.664 256.194V257.81ZM370.094 246.988C370.069 247.03 370.049 247.074 370.034 247.12C369.697 248.131 367.876 248.514 366.704 248.626C366.883 246.392 367.934 245.332 369.999 245.332C371.89 245.332 372.931 246.227 373.229 248.092L371.009 246.76C370.693 246.57 370.284 246.673 370.094 246.988ZM370.918 248.26L373.3 249.69C373.032 251.321 371.022 252.663 369.999 252.663C368.513 252.409 367.276 251.379 366.76 249.962C367.901 249.868 369.96 249.523 370.918 248.26ZM370.55 256.5L369.999 257.051L369.449 256.5L369.999 255.123L370.55 256.5ZM372.907 252.693C373.946 251.875 374.586 250.651 374.664 249.331C374.664 244.925 372.127 244 369.999 244C367.871 244 365.334 244.925 365.334 249.331C365.412 250.652 366.052 251.877 367.092 252.695C365.325 252.913 363.999 254.415 364.002 256.194V256.6C361.081 253.287 361.398 248.234 364.71 245.313C368.022 242.392 373.075 242.709 375.996 246.021C378.662 249.043 378.662 253.577 375.996 256.599V256.194C376 254.414 374.674 252.911 372.907 252.693ZM385.326 279.134C382.544 281.153 378.778 281.153 375.996 279.134V277.518C375.996 276.304 376.981 275.319 378.196 275.319H379.675L378.708 277.737C378.609 277.985 378.667 278.267 378.856 278.456L380.189 279.789C380.449 280.049 380.871 280.049 381.131 279.789L382.464 278.456C382.652 278.267 382.711 277.985 382.612 277.737L381.645 275.319H383.127C384.341 275.319 385.326 276.304 385.326 277.518V279.134ZM381.58 269.585V269.584L383.962 271.013C383.694 272.645 381.684 273.987 380.661 273.987C379.175 273.733 377.938 272.703 377.422 271.286C378.563 271.192 380.622 270.847 381.58 269.585ZM377.366 269.95C377.544 267.717 378.595 266.656 380.661 266.656C382.552 266.656 383.593 267.551 383.891 269.417L381.671 268.084C381.355 267.894 380.946 267.997 380.756 268.312C380.731 268.354 380.711 268.398 380.696 268.444C380.359 269.455 378.538 269.838 377.366 269.95ZM381.212 277.824L380.661 278.375L380.111 277.824L380.661 276.447L381.212 277.824ZM386.658 277.925V277.518C386.662 275.738 385.336 274.235 383.569 274.017C384.608 273.199 385.248 271.975 385.326 270.655C385.326 266.249 382.789 265.324 380.661 265.324C378.533 265.324 375.996 266.249 375.996 270.655C376.074 271.976 376.714 273.201 377.754 274.019C375.987 274.237 374.661 275.738 374.664 277.518V277.923C371.749 274.609 372.074 269.559 375.389 266.645C378.704 263.73 383.754 264.055 386.668 267.37C387.952 268.83 388.659 270.709 388.658 272.654C388.657 274.596 387.946 276.471 386.658 277.925Z" fill="#333333"/>
</g>
<path d="M1.8703 267V257.9H5.2023C5.69697 257.9 6.1683 257.951 6.6163 258.054C7.0643 258.147 7.45631 258.315 7.79231 258.558C8.12831 258.791 8.39431 259.104 8.59031 259.496C8.79564 259.879 8.8983 260.355 8.8983 260.924C8.8983 261.484 8.79564 261.965 8.59031 262.366C8.39431 262.767 8.12831 263.099 7.79231 263.36C7.45631 263.612 7.06897 263.803 6.63031 263.934C6.19164 264.055 5.7343 264.116 5.2583 264.116H4.2783V267H1.8703ZM4.2783 262.212H5.14631C5.62231 262.212 5.9723 262.1 6.1963 261.876C6.42964 261.652 6.5463 261.335 6.5463 260.924C6.5463 260.513 6.4203 260.224 6.1683 260.056C5.9163 259.888 5.55697 259.804 5.0903 259.804H4.2783V262.212ZM10.1919 267V260H12.1519L12.3199 261.204H12.3759C12.6372 260.728 12.9452 260.383 13.2999 260.168C13.6639 259.944 14.0185 259.832 14.3639 259.832C14.5785 259.832 14.7512 259.846 14.8819 259.874C15.0125 259.893 15.1292 259.925 15.2319 259.972L14.8399 262.044C14.7092 262.016 14.5832 261.993 14.4619 261.974C14.3499 261.946 14.2145 261.932 14.0559 261.932C13.8039 261.932 13.5379 262.021 13.2579 262.198C12.9872 262.366 12.7679 262.669 12.5999 263.108V267H10.1919ZM19.0147 267.168C18.5667 267.168 18.1327 267.089 17.7127 266.93C17.2927 266.762 16.9194 266.524 16.5927 266.216C16.2754 265.899 16.0187 265.511 15.8227 265.054C15.6361 264.597 15.5427 264.079 15.5427 263.5C15.5427 262.921 15.6361 262.403 15.8227 261.946C16.0187 261.489 16.2754 261.106 16.5927 260.798C16.9194 260.481 17.2927 260.243 17.7127 260.084C18.1327 259.916 18.5667 259.832 19.0147 259.832C19.4627 259.832 19.8921 259.916 20.3027 260.084C20.7227 260.243 21.0914 260.481 21.4087 260.798C21.7354 261.106 21.9967 261.489 22.1927 261.946C22.3887 262.403 22.4867 262.921 22.4867 263.5C22.4867 264.079 22.3887 264.597 22.1927 265.054C21.9967 265.511 21.7354 265.899 21.4087 266.216C21.0914 266.524 20.7227 266.762 20.3027 266.93C19.8921 267.089 19.4627 267.168 19.0147 267.168ZM19.0147 265.236C19.3787 265.236 19.6354 265.082 19.7847 264.774C19.9434 264.457 20.0227 264.032 20.0227 263.5C20.0227 262.968 19.9434 262.548 19.7847 262.24C19.6354 261.923 19.3787 261.764 19.0147 261.764C18.6507 261.764 18.3894 261.923 18.2307 262.24C18.0814 262.548 18.0067 262.968 18.0067 263.5C18.0067 264.032 18.0814 264.457 18.2307 264.774C18.3894 265.082 18.6507 265.236 19.0147 265.236ZM26.2009 267.168C25.7435 267.168 25.3515 267.103 25.0249 266.972C24.7075 266.832 24.4415 266.636 24.2269 266.384C24.0215 266.132 23.8675 265.833 23.7649 265.488C23.6715 265.133 23.6249 264.741 23.6249 264.312V261.876H22.7009V260.084L23.7649 260L24.0449 258.18H26.0329V260H27.6289V261.876H26.0329V264.27C26.0329 264.662 26.1169 264.933 26.2849 265.082C26.4529 265.222 26.6489 265.292 26.8729 265.292C26.9849 265.292 27.0922 265.283 27.1949 265.264C27.3069 265.236 27.4049 265.208 27.4889 265.18L27.8529 266.916C27.6662 266.972 27.4422 267.028 27.1809 267.084C26.9195 267.14 26.5929 267.168 26.2009 267.168ZM31.7569 267.168C31.3089 267.168 30.8749 267.089 30.4549 266.93C30.0349 266.762 29.6616 266.524 29.3349 266.216C29.0176 265.899 28.7609 265.511 28.5649 265.054C28.3782 264.597 28.2849 264.079 28.2849 263.5C28.2849 262.921 28.3782 262.403 28.5649 261.946C28.7609 261.489 29.0176 261.106 29.3349 260.798C29.6616 260.481 30.0349 260.243 30.4549 260.084C30.8749 259.916 31.3089 259.832 31.7569 259.832C32.2049 259.832 32.6342 259.916 33.0449 260.084C33.4649 260.243 33.8336 260.481 34.1509 260.798C34.4776 261.106 34.7389 261.489 34.9349 261.946C35.1309 262.403 35.2289 262.921 35.2289 263.5C35.2289 264.079 35.1309 264.597 34.9349 265.054C34.7389 265.511 34.4776 265.899 34.1509 266.216C33.8336 266.524 33.4649 266.762 33.0449 266.93C32.6342 267.089 32.2049 267.168 31.7569 267.168ZM31.7569 265.236C32.1209 265.236 32.3776 265.082 32.5269 264.774C32.6856 264.457 32.7649 264.032 32.7649 263.5C32.7649 262.968 32.6856 262.548 32.5269 262.24C32.3776 261.923 32.1209 261.764 31.7569 261.764C31.3929 261.764 31.1316 261.923 30.9729 262.24C30.8236 262.548 30.7489 262.968 30.7489 263.5C30.7489 264.032 30.8236 264.457 30.9729 264.774C31.1316 265.082 31.3929 265.236 31.7569 265.236ZM38.9431 267.168C38.4857 267.168 38.0937 267.103 37.7671 266.972C37.4497 266.832 37.1837 266.636 36.9691 266.384C36.7637 266.132 36.6097 265.833 36.5071 265.488C36.4137 265.133 36.3671 264.741 36.3671 264.312V261.876H35.4431V260.084L36.5071 260L36.7871 258.18H38.7751V260H40.3711V261.876H38.7751V264.27C38.7751 264.662 38.8591 264.933 39.0271 265.082C39.1951 265.222 39.3911 265.292 39.6151 265.292C39.7271 265.292 39.8344 265.283 39.9371 265.264C40.0491 265.236 40.1471 265.208 40.2311 265.18L40.5951 266.916C40.4084 266.972 40.1844 267.028 39.9231 267.084C39.6617 267.14 39.3351 267.168 38.9431 267.168ZM42.7005 269.632C42.4579 269.632 42.2572 269.618 42.0985 269.59C41.9492 269.571 41.7952 269.539 41.6365 269.492L42.0565 267.672C42.1219 267.691 42.1919 267.709 42.2665 267.728C42.3505 267.747 42.4299 267.756 42.5045 267.756C42.8312 267.756 43.0739 267.691 43.2325 267.56C43.4005 267.439 43.5219 267.271 43.5965 267.056L43.6805 266.748L41.0205 260H43.4285L44.2685 262.688C44.3712 263.015 44.4599 263.341 44.5345 263.668C44.6092 263.985 44.6885 264.321 44.7725 264.676H44.8285C44.9032 264.34 44.9732 264.009 45.0385 263.682C45.1132 263.355 45.1925 263.024 45.2765 262.688L45.9765 260H48.2725L45.9205 266.888C45.7339 267.364 45.5425 267.775 45.3465 268.12C45.1599 268.465 44.9405 268.75 44.6885 268.974C44.4365 269.198 44.1472 269.361 43.8205 269.464C43.5032 269.576 43.1299 269.632 42.7005 269.632ZM49.2524 269.464V260H51.2124L51.3804 260.644H51.4364C51.6978 260.401 51.9918 260.205 52.3184 260.056C52.6451 259.907 52.9858 259.832 53.3404 259.832C53.7511 259.832 54.1244 259.916 54.4604 260.084C54.7964 260.252 55.0811 260.49 55.3144 260.798C55.5571 261.106 55.7391 261.479 55.8604 261.918C55.9911 262.357 56.0564 262.847 56.0564 263.388C56.0564 263.995 55.9724 264.531 55.8044 264.998C55.6458 265.465 55.4311 265.861 55.1604 266.188C54.8898 266.505 54.5771 266.748 54.2224 266.916C53.8771 267.084 53.5178 267.168 53.1444 267.168C52.5658 267.168 52.0431 266.935 51.5764 266.468L51.6604 267.532V269.464H49.2524ZM52.5564 265.208C52.8364 265.208 53.0791 265.077 53.2844 264.816C53.4898 264.555 53.5924 264.088 53.5924 263.416C53.5924 262.837 53.5084 262.422 53.3404 262.17C53.1818 261.918 52.9391 261.792 52.6124 261.792C52.4258 261.792 52.2578 261.829 52.1084 261.904C51.9684 261.979 51.8191 262.109 51.6604 262.296V264.872C51.8004 265.003 51.9451 265.091 52.0944 265.138C52.2438 265.185 52.3978 265.208 52.5564 265.208ZM60.6215 267.168C60.1082 267.168 59.6322 267.089 59.1935 266.93C58.7549 266.762 58.3722 266.524 58.0455 266.216C57.7282 265.899 57.4762 265.511 57.2895 265.054C57.1029 264.597 57.0095 264.079 57.0095 263.5C57.0095 262.931 57.1029 262.422 57.2895 261.974C57.4855 261.517 57.7375 261.129 58.0455 260.812C58.3629 260.495 58.7222 260.252 59.1235 260.084C59.5249 259.916 59.9402 259.832 60.3695 259.832C60.8829 259.832 61.3309 259.921 61.7135 260.098C62.0962 260.275 62.4135 260.518 62.6655 260.826C62.9175 261.134 63.1042 261.493 63.2255 261.904C63.3562 262.315 63.4215 262.753 63.4215 263.22C63.4215 263.435 63.4075 263.635 63.3795 263.822C63.3609 264.009 63.3422 264.144 63.3235 264.228H59.3335C59.4455 264.648 59.6462 264.942 59.9355 265.11C60.2249 265.269 60.5655 265.348 60.9575 265.348C61.2002 265.348 61.4335 265.315 61.6575 265.25C61.8909 265.175 62.1335 265.068 62.3855 264.928L63.1695 266.356C62.7869 266.627 62.3622 266.832 61.8955 266.972C61.4382 267.103 61.0135 267.168 60.6215 267.168ZM59.3055 262.66H61.3775C61.3775 262.389 61.3075 262.156 61.1675 261.96C61.0369 261.755 60.7895 261.652 60.4255 261.652C60.1549 261.652 59.9169 261.731 59.7115 261.89C59.5155 262.049 59.3802 262.305 59.3055 262.66ZM70.7094 267.168C70.2147 267.168 69.7527 267.089 69.3234 266.93C68.8941 266.762 68.5207 266.524 68.2034 266.216C67.8861 265.899 67.6341 265.511 67.4474 265.054C67.2701 264.597 67.1814 264.079 67.1814 263.5C67.1814 262.921 67.2841 262.403 67.4894 261.946C67.6947 261.489 67.9701 261.106 68.3154 260.798C68.6607 260.481 69.0574 260.243 69.5054 260.084C69.9627 259.916 70.4387 259.832 70.9334 259.832C71.3534 259.832 71.7314 259.897 72.0674 260.028C72.4034 260.159 72.7067 260.336 72.9774 260.56L71.8574 262.1C71.6987 261.969 71.5587 261.881 71.4374 261.834C71.3254 261.787 71.2041 261.764 71.0734 261.764C70.6254 261.764 70.2754 261.923 70.0234 262.24C69.7714 262.548 69.6454 262.968 69.6454 263.5C69.6454 264.032 69.7714 264.457 70.0234 264.774C70.2847 265.082 70.6067 265.236 70.9894 265.236C71.1854 265.236 71.3767 265.194 71.5634 265.11C71.7594 265.026 71.9414 264.919 72.1094 264.788L73.0334 266.356C72.6787 266.664 72.2914 266.879 71.8714 267C71.4607 267.112 71.0734 267.168 70.7094 267.168ZM74.1489 267V260H76.1089L76.2769 261.204H76.3329C76.5942 260.728 76.9022 260.383 77.2569 260.168C77.6209 259.944 77.9756 259.832 78.3209 259.832C78.5356 259.832 78.7082 259.846 78.8389 259.874C78.9696 259.893 79.0862 259.925 79.1889 259.972L78.7969 262.044C78.6662 262.016 78.5402 261.993 78.4189 261.974C78.3069 261.946 78.1716 261.932 78.0129 261.932C77.7609 261.932 77.4949 262.021 77.2149 262.198C76.9442 262.366 76.7249 262.669 76.5569 263.108V267H74.1489ZM83.1118 267.168C82.5984 267.168 82.1224 267.089 81.6838 266.93C81.2451 266.762 80.8624 266.524 80.5358 266.216C80.2184 265.899 79.9664 265.511 79.7798 265.054C79.5931 264.597 79.4998 264.079 79.4998 263.5C79.4998 262.931 79.5931 262.422 79.7798 261.974C79.9758 261.517 80.2278 261.129 80.5358 260.812C80.8531 260.495 81.2124 260.252 81.6138 260.084C82.0151 259.916 82.4304 259.832 82.8598 259.832C83.3731 259.832 83.8211 259.921 84.2038 260.098C84.5864 260.275 84.9038 260.518 85.1558 260.826C85.4078 261.134 85.5944 261.493 85.7158 261.904C85.8464 262.315 85.9118 262.753 85.9118 263.22C85.9118 263.435 85.8978 263.635 85.8698 263.822C85.8511 264.009 85.8324 264.144 85.8138 264.228H81.8238C81.9358 264.648 82.1364 264.942 82.4258 265.11C82.7151 265.269 83.0558 265.348 83.4478 265.348C83.6904 265.348 83.9238 265.315 84.1478 265.25C84.3811 265.175 84.6238 265.068 84.8758 264.928L85.6598 266.356C85.2771 266.627 84.8524 266.832 84.3858 266.972C83.9284 267.103 83.5038 267.168 83.1118 267.168ZM81.7958 262.66H83.8678C83.8678 262.389 83.7978 262.156 83.6578 261.96C83.5271 261.755 83.2798 261.652 82.9158 261.652C82.6451 261.652 82.4071 261.731 82.2018 261.89C82.0058 262.049 81.8704 262.305 81.7958 262.66ZM88.9162 267.168C88.5895 267.168 88.2955 267.112 88.0342 267C87.7728 266.879 87.5488 266.72 87.3622 266.524C87.1848 266.328 87.0495 266.099 86.9562 265.838C86.8628 265.577 86.8162 265.301 86.8162 265.012C86.8162 264.284 87.1148 263.715 87.7122 263.304C88.3095 262.884 89.2802 262.604 90.6242 262.464C90.5682 261.979 90.2415 261.736 89.6442 261.736C89.3922 261.736 89.1262 261.787 88.8462 261.89C88.5662 261.983 88.2442 262.128 87.8802 262.324L87.0402 260.756C87.5348 260.457 88.0342 260.229 88.5382 260.07C89.0422 259.911 89.5695 259.832 90.1202 259.832C91.0255 259.832 91.7348 260.093 92.2482 260.616C92.7708 261.129 93.0322 261.96 93.0322 263.108V267H91.0722L90.9042 266.328H90.8482C90.5682 266.58 90.2695 266.785 89.9522 266.944C89.6442 267.093 89.2988 267.168 88.9162 267.168ZM89.7562 265.32C89.9522 265.32 90.1108 265.278 90.2322 265.194C90.3628 265.101 90.4935 264.984 90.6242 264.844V263.892C90.0455 263.976 89.6488 264.102 89.4342 264.27C89.2195 264.438 89.1122 264.62 89.1122 264.816C89.1122 265.152 89.3268 265.32 89.7562 265.32ZM97.2126 267.168C96.7553 267.168 96.3633 267.103 96.0366 266.972C95.7193 266.832 95.4533 266.636 95.2386 266.384C95.0333 266.132 94.8793 265.833 94.7766 265.488C94.6833 265.133 94.6366 264.741 94.6366 264.312V261.876H93.7126V260.084L94.7766 260L95.0566 258.18H97.0446V260H98.6406V261.876H97.0446V264.27C97.0446 264.662 97.1286 264.933 97.2966 265.082C97.4646 265.222 97.6606 265.292 97.8846 265.292C97.9966 265.292 98.1039 265.283 98.2066 265.264C98.3186 265.236 98.4166 265.208 98.5006 265.18L98.8646 266.916C98.6779 266.972 98.4539 267.028 98.1926 267.084C97.9313 267.14 97.6046 267.168 97.2126 267.168ZM99.9341 267V260H102.342V267H99.9341ZM101.138 259.132C100.746 259.132 100.424 259.02 100.172 258.796C99.9201 258.572 99.7941 258.283 99.7941 257.928C99.7941 257.573 99.9201 257.284 100.172 257.06C100.424 256.836 100.746 256.724 101.138 256.724C101.53 256.724 101.852 256.836 102.104 257.06C102.356 257.284 102.482 257.573 102.482 257.928C102.482 258.283 102.356 258.572 102.104 258.796C101.852 259.02 101.53 259.132 101.138 259.132ZM107.075 267.168C106.627 267.168 106.193 267.089 105.773 266.93C105.353 266.762 104.98 266.524 104.653 266.216C104.336 265.899 104.079 265.511 103.883 265.054C103.697 264.597 103.603 264.079 103.603 263.5C103.603 262.921 103.697 262.403 103.883 261.946C104.079 261.489 104.336 261.106 104.653 260.798C104.98 260.481 105.353 260.243 105.773 260.084C106.193 259.916 106.627 259.832 107.075 259.832C107.523 259.832 107.953 259.916 108.363 260.084C108.783 260.243 109.152 260.481 109.469 260.798C109.796 261.106 110.057 261.489 110.253 261.946C110.449 262.403 110.547 262.921 110.547 263.5C110.547 264.079 110.449 264.597 110.253 265.054C110.057 265.511 109.796 265.899 109.469 266.216C109.152 266.524 108.783 266.762 108.363 266.93C107.953 267.089 107.523 267.168 107.075 267.168ZM107.075 265.236C107.439 265.236 107.696 265.082 107.845 264.774C108.004 264.457 108.083 264.032 108.083 263.5C108.083 262.968 108.004 262.548 107.845 262.24C107.696 261.923 107.439 261.764 107.075 261.764C106.711 261.764 106.45 261.923 106.291 262.24C106.142 262.548 106.067 262.968 106.067 263.5C106.067 264.032 106.142 264.457 106.291 264.774C106.45 265.082 106.711 265.236 107.075 265.236ZM111.801 267V260H113.761L113.929 260.84H113.985C114.265 260.569 114.583 260.336 114.937 260.14C115.301 259.935 115.721 259.832 116.197 259.832C116.963 259.832 117.518 260.093 117.863 260.616C118.209 261.129 118.381 261.82 118.381 262.688V267H115.973V262.996C115.973 262.548 115.917 262.249 115.805 262.1C115.693 261.951 115.516 261.876 115.273 261.876C115.049 261.876 114.863 261.923 114.713 262.016C114.564 262.109 114.396 262.24 114.209 262.408V267H111.801Z" fill="#333333"/>
<g filter="url(#filter2_d)">
<circle cx="180" cy="262" r="40" fill="white"/>
</g>
<g clip-path="url(#clip0)">
<path d="M172.407 248.328H162.386C161.028 248.328 159.922 249.434 159.922 250.793V273.338C159.922 274.697 161.028 275.803 162.386 275.803H172.407C173.766 275.803 174.872 274.697 174.872 273.338V250.793C174.872 249.434 173.766 248.328 172.407 248.328ZM162.386 249.5H172.407C173.12 249.5 173.7 250.08 173.7 250.793V272.126H161.094V250.793C161.094 250.08 161.674 249.5 162.386 249.5ZM172.407 274.631H162.386C161.674 274.631 161.094 274.051 161.094 273.338V273.298H173.7V273.338C173.7 274.051 173.12 274.631 172.407 274.631Z" fill="#333333" fill-opacity="0.5"/>
<path d="M197.458 248.328H187.437C186.078 248.328 184.973 249.434 184.973 250.793V273.338C184.973 274.697 186.078 275.803 187.437 275.803H197.457C198.817 275.803 199.922 274.697 199.922 273.338V250.793C199.922 249.434 198.817 248.328 197.458 248.328ZM187.437 249.5H197.457C198.17 249.5 198.75 250.08 198.75 250.793V272.126H186.145V250.793C186.145 250.08 186.724 249.5 187.437 249.5ZM197.458 274.631H187.437C186.724 274.631 186.145 274.051 186.145 273.338V273.298H198.75V273.338C198.75 274.051 198.171 274.631 197.458 274.631Z" fill="#333333" fill-opacity="0.5"/>
<path d="M163.013 260.147H171.78C172.104 260.147 172.366 259.885 172.366 259.561V252.046C172.366 251.722 172.104 251.46 171.78 251.46H163.013C162.689 251.46 162.427 251.722 162.427 252.046V255.177C162.427 255.501 162.689 255.763 163.013 255.763C163.336 255.763 163.599 255.501 163.599 255.177V253.32L166.496 255.803L163.599 258.287V257.682C163.599 257.358 163.336 257.096 163.013 257.096C162.689 257.096 162.427 257.358 162.427 257.682V259.561C162.427 259.885 162.689 260.147 163.013 260.147ZM168.297 255.803L171.194 253.32V258.287L168.297 255.803ZM164.597 252.632H170.197L167.397 255.032L164.597 252.632ZM170.197 258.975H164.597L167.397 256.575L170.197 258.975Z" fill="#333333" fill-opacity="0.5"/>
<path d="M163.013 270.166H171.78C172.104 270.166 172.366 269.904 172.366 269.58V262.065C172.366 261.742 172.104 261.479 171.78 261.479H163.013C162.689 261.479 162.427 261.742 162.427 262.065V269.58C162.427 269.904 162.689 270.166 163.013 270.166ZM171.194 268.307L168.297 265.823L171.194 263.339V268.307ZM170.197 268.994H164.597L167.397 266.595L170.197 268.994ZM167.397 265.051L164.597 262.651H170.197L167.397 265.051ZM166.496 265.823L163.599 268.307V263.339L166.496 265.823Z" fill="#333333" fill-opacity="0.5"/>
<path d="M188.063 260.147H196.831C197.155 260.147 197.417 259.885 197.417 259.561V255.803C197.417 255.48 197.155 255.217 196.831 255.217C196.507 255.217 196.245 255.48 196.245 255.803V258.975H188.649V252.632H196.245V253.298C196.245 253.622 196.507 253.884 196.831 253.884C197.155 253.884 197.417 253.622 197.417 253.298V252.046C197.417 251.722 197.155 251.46 196.831 251.46H188.063C187.74 251.46 187.478 251.722 187.478 252.046V259.561C187.478 259.885 187.74 260.147 188.063 260.147Z" fill="#333333" fill-opacity="0.5"/>
<path d="M196.831 261.479H191.194C190.871 261.479 190.608 261.742 190.608 262.065C190.608 262.389 190.871 262.651 191.194 262.651H196.831C197.154 262.651 197.417 262.389 197.417 262.065C197.417 261.742 197.154 261.479 196.831 261.479Z" fill="#333333" fill-opacity="0.5"/>
<path d="M196.831 263.984H191.194C190.871 263.984 190.608 264.247 190.608 264.57C190.608 264.894 190.871 265.156 191.194 265.156H196.831C197.154 265.156 197.417 264.894 197.417 264.57C197.417 264.247 197.154 263.984 196.831 263.984Z" fill="#333333" fill-opacity="0.5"/>
<path d="M196.831 268.995H191.194C190.871 268.995 190.608 269.258 190.608 269.581C190.608 269.905 190.871 270.167 191.194 270.167H196.831C197.154 270.167 197.417 269.905 197.417 269.581C197.417 269.258 197.154 268.995 196.831 268.995Z" fill="#333333" fill-opacity="0.5"/>
<path d="M196.831 266.489H191.194C190.871 266.489 190.608 266.751 190.608 267.075C190.608 267.399 190.871 267.661 191.194 267.661H196.831C197.154 267.661 197.417 267.399 197.417 267.075C197.417 266.751 197.154 266.489 196.831 266.489Z" fill="#333333" fill-opacity="0.5"/>
<path d="M188.063 262.651H188.69C189.013 262.651 189.276 262.389 189.276 262.065C189.276 261.742 189.013 261.479 188.69 261.479H188.063C187.74 261.479 187.478 261.742 187.478 262.065C187.478 262.389 187.74 262.651 188.063 262.651Z" fill="#333333" fill-opacity="0.5"/>
<path d="M188.063 265.156H188.69C189.013 265.156 189.276 264.894 189.276 264.57C189.276 264.247 189.013 263.984 188.69 263.984H188.063C187.74 263.984 187.478 264.247 187.478 264.57C187.478 264.894 187.74 265.156 188.063 265.156Z" fill="#333333" fill-opacity="0.5"/>
<path d="M188.063 270.167H188.69C189.013 270.167 189.276 269.905 189.276 269.581C189.276 269.258 189.013 268.995 188.69 268.995H188.063C187.74 268.995 187.478 269.258 187.478 269.581C187.478 269.905 187.74 270.167 188.063 270.167Z" fill="#333333" fill-opacity="0.5"/>
<path d="M188.063 267.661H188.69C189.013 267.661 189.276 267.399 189.276 267.075C189.276 266.751 189.013 266.489 188.69 266.489H188.063C187.74 266.489 187.478 266.751 187.478 267.075C187.478 267.399 187.74 267.661 188.063 267.661Z" fill="#333333" fill-opacity="0.5"/>
<path d="M183.354 261.563L180.223 259.684C179.945 259.518 179.585 259.608 179.419 259.885C179.253 260.163 179.343 260.523 179.62 260.689L180.937 261.48H176.79C176.467 261.48 176.204 261.742 176.204 262.066C176.204 262.389 176.467 262.651 176.79 262.651H180.937L179.62 263.442C179.343 263.608 179.253 263.968 179.419 264.246C179.529 264.429 179.723 264.53 179.922 264.53C180.025 264.53 180.128 264.503 180.223 264.447L183.354 262.568C183.531 262.462 183.639 262.271 183.639 262.066C183.639 261.86 183.531 261.669 183.354 261.563Z" fill="#333333" fill-opacity="0.5"/>
</g>
<path d="M15.3629 60.168C14.0842 60.168 13.1322 59.7993 12.5069 59.062C11.8909 58.3153 11.5829 57.1627 11.5829 55.604V50.9H13.9909V55.884C13.9909 56.696 14.0982 57.27 14.3129 57.606C14.5369 57.9327 14.8869 58.096 15.3629 58.096C15.8389 58.096 16.1889 57.9327 16.4129 57.606C16.6462 57.27 16.7629 56.696 16.7629 55.884V50.9H19.0869V55.604C19.0869 57.1627 18.7835 58.3153 18.1769 59.062C17.5702 59.7993 16.6322 60.168 15.3629 60.168ZM22.8684 60.168C22.4204 60.168 21.9444 60.0793 21.4404 59.902C20.9457 59.7247 20.5164 59.4867 20.1524 59.188L21.2164 57.704C21.8511 58.1707 22.4204 58.404 22.9244 58.404C23.1764 58.404 23.3537 58.3713 23.4564 58.306C23.5684 58.2313 23.6244 58.124 23.6244 57.984C23.6244 57.8907 23.5871 57.8113 23.5124 57.746C23.4377 57.6713 23.3351 57.606 23.2044 57.55C23.0831 57.4847 22.9431 57.424 22.7844 57.368C22.6257 57.312 22.4577 57.2467 22.2804 57.172C22.0751 57.088 21.8651 56.99 21.6504 56.878C21.4451 56.7567 21.2584 56.612 21.0904 56.444C20.9224 56.276 20.7824 56.0847 20.6704 55.87C20.5677 55.646 20.5164 55.3893 20.5164 55.1C20.5164 54.7547 20.5817 54.442 20.7124 54.162C20.8524 53.882 21.0437 53.644 21.2864 53.448C21.5291 53.252 21.8184 53.1027 22.1544 53C22.4997 52.888 22.8777 52.832 23.2884 52.832C23.8671 52.832 24.3617 52.93 24.7724 53.126C25.1924 53.3127 25.5564 53.5227 25.8644 53.756L24.8004 55.184C24.5484 54.9973 24.3011 54.8527 24.0584 54.75C23.8157 54.6473 23.5871 54.596 23.3724 54.596C22.9617 54.596 22.7564 54.7267 22.7564 54.988C22.7564 55.0813 22.7891 55.1607 22.8544 55.226C22.9291 55.2913 23.0271 55.352 23.1484 55.408C23.2697 55.464 23.4097 55.52 23.5684 55.576C23.7271 55.6227 23.8951 55.6787 24.0724 55.744C24.2777 55.8187 24.4877 55.912 24.7024 56.024C24.9171 56.136 25.1084 56.276 25.2764 56.444C25.4537 56.6027 25.5937 56.7987 25.6964 57.032C25.8084 57.256 25.8644 57.5267 25.8644 57.844C25.8644 58.1707 25.7991 58.4787 25.6684 58.768C25.5377 59.048 25.3464 59.2953 25.0944 59.51C24.8424 59.7153 24.5297 59.8787 24.1564 60C23.7831 60.112 23.3537 60.168 22.8684 60.168ZM30.2905 60.168C29.7771 60.168 29.3011 60.0887 28.8625 59.93C28.4238 59.762 28.0411 59.524 27.7145 59.216C27.3971 58.8987 27.1451 58.5113 26.9585 58.054C26.7718 57.5967 26.6785 57.0787 26.6785 56.5C26.6785 55.9307 26.7718 55.422 26.9585 54.974C27.1545 54.5167 27.4065 54.1293 27.7145 53.812C28.0318 53.4947 28.3911 53.252 28.7925 53.084C29.1938 52.916 29.6091 52.832 30.0385 52.832C30.5518 52.832 30.9998 52.9207 31.3825 53.098C31.7651 53.2753 32.0825 53.518 32.3345 53.826C32.5865 54.134 32.7731 54.4933 32.8945 54.904C33.0251 55.3147 33.0905 55.7533 33.0905 56.22C33.0905 56.4347 33.0765 56.6353 33.0485 56.822C33.0298 57.0087 33.0111 57.144 32.9925 57.228H29.0025C29.1145 57.648 29.3151 57.942 29.6045 58.11C29.8938 58.2687 30.2345 58.348 30.6265 58.348C30.8691 58.348 31.1025 58.3153 31.3265 58.25C31.5598 58.1753 31.8025 58.068 32.0545 57.928L32.8385 59.356C32.4558 59.6267 32.0311 59.832 31.5645 59.972C31.1071 60.1027 30.6825 60.168 30.2905 60.168ZM28.9745 55.66H31.0465C31.0465 55.3893 30.9765 55.156 30.8365 54.96C30.7058 54.7547 30.4585 54.652 30.0945 54.652C29.8238 54.652 29.5858 54.7313 29.3805 54.89C29.1845 55.0487 29.0491 55.3053 28.9745 55.66ZM34.4116 60V53H36.3716L36.5396 54.204H36.5956C36.8569 53.728 37.1649 53.3827 37.5196 53.168C37.8836 52.944 38.2383 52.832 38.5836 52.832C38.7983 52.832 38.9709 52.846 39.1016 52.874C39.2323 52.8927 39.3489 52.9253 39.4516 52.972L39.0596 55.044C38.9289 55.016 38.8029 54.9927 38.6816 54.974C38.5696 54.946 38.4343 54.932 38.2756 54.932C38.0236 54.932 37.7576 55.0207 37.4776 55.198C37.2069 55.366 36.9876 55.6693 36.8196 56.108V60H34.4116ZM43.0659 60V53H45.4739V60H43.0659ZM44.2699 52.132C43.8779 52.132 43.5559 52.02 43.3039 51.796C43.0519 51.572 42.9259 51.2827 42.9259 50.928C42.9259 50.5733 43.0519 50.284 43.3039 50.06C43.5559 49.836 43.8779 49.724 44.2699 49.724C44.6619 49.724 44.9839 49.836 45.2359 50.06C45.4879 50.284 45.6139 50.5733 45.6139 50.928C45.6139 51.2827 45.4879 51.572 45.2359 51.796C44.9839 52.02 44.6619 52.132 44.2699 52.132ZM47.0991 60V53H49.0591L49.2271 53.84H49.2831C49.5631 53.5693 49.8804 53.336 50.2351 53.14C50.5991 52.9347 51.0191 52.832 51.4951 52.832C52.2604 52.832 52.8158 53.0933 53.1611 53.616C53.5064 54.1293 53.6791 54.82 53.6791 55.688V60H51.2711V55.996C51.2711 55.548 51.2151 55.2493 51.1031 55.1C50.9911 54.9507 50.8138 54.876 50.5711 54.876C50.3471 54.876 50.1604 54.9227 50.0111 55.016C49.8618 55.1093 49.6938 55.24 49.5071 55.408V60H47.0991ZM58.1315 60.168C57.6742 60.168 57.2822 60.1027 56.9555 59.972C56.6382 59.832 56.3722 59.636 56.1575 59.384C55.9522 59.132 55.7982 58.8333 55.6955 58.488C55.6022 58.1333 55.5555 57.7413 55.5555 57.312V54.876H54.6315V53.084L55.6955 53L55.9755 51.18H57.9635V53H59.5595V54.876H57.9635V57.27C57.9635 57.662 58.0475 57.9327 58.2155 58.082C58.3835 58.222 58.5795 58.292 58.8035 58.292C58.9155 58.292 59.0229 58.2827 59.1255 58.264C59.2375 58.236 59.3355 58.208 59.4195 58.18L59.7835 59.916C59.5969 59.972 59.3729 60.028 59.1115 60.084C58.8502 60.14 58.5235 60.168 58.1315 60.168ZM63.8276 60.168C63.3142 60.168 62.8382 60.0887 62.3996 59.93C61.9609 59.762 61.5782 59.524 61.2516 59.216C60.9342 58.8987 60.6822 58.5113 60.4956 58.054C60.3089 57.5967 60.2156 57.0787 60.2156 56.5C60.2156 55.9307 60.3089 55.422 60.4956 54.974C60.6916 54.5167 60.9436 54.1293 61.2516 53.812C61.5689 53.4947 61.9282 53.252 62.3296 53.084C62.7309 52.916 63.1462 52.832 63.5756 52.832C64.0889 52.832 64.5369 52.9207 64.9196 53.098C65.3022 53.2753 65.6196 53.518 65.8716 53.826C66.1236 54.134 66.3102 54.4933 66.4316 54.904C66.5622 55.3147 66.6276 55.7533 66.6276 56.22C66.6276 56.4347 66.6136 56.6353 66.5856 56.822C66.5669 57.0087 66.5482 57.144 66.5296 57.228H62.5396C62.6516 57.648 62.8522 57.942 63.1416 58.11C63.4309 58.2687 63.7716 58.348 64.1636 58.348C64.4062 58.348 64.6396 58.3153 64.8636 58.25C65.0969 58.1753 65.3396 58.068 65.5916 57.928L66.3756 59.356C65.9929 59.6267 65.5682 59.832 65.1016 59.972C64.6442 60.1027 64.2196 60.168 63.8276 60.168ZM62.5116 55.66H64.5836C64.5836 55.3893 64.5136 55.156 64.3736 54.96C64.2429 54.7547 63.9956 54.652 63.6316 54.652C63.3609 54.652 63.1229 54.7313 62.9176 54.89C62.7216 55.0487 62.5862 55.3053 62.5116 55.66ZM67.9487 60V53H69.9087L70.0767 54.204H70.1327C70.3941 53.728 70.7021 53.3827 71.0567 53.168C71.4207 52.944 71.7754 52.832 72.1207 52.832C72.3354 52.832 72.5081 52.846 72.6387 52.874C72.7694 52.8927 72.8861 52.9253 72.9887 52.972L72.5967 55.044C72.4661 55.016 72.3401 54.9927 72.2187 54.974C72.1067 54.946 71.9714 54.932 71.8127 54.932C71.5607 54.932 71.2947 55.0207 71.0147 55.198C70.7441 55.366 70.5247 55.6693 70.3567 56.108V60H67.9487ZM75.4523 60L73.1563 53H75.5643L76.3203 56.052C76.4883 56.752 76.6563 57.48 76.8243 58.236H76.8803C77.0483 57.48 77.2163 56.752 77.3843 56.052L78.1403 53H80.4363L78.2243 60H75.4523ZM81.4155 60V53H83.8235V60H81.4155ZM82.6195 52.132C82.2275 52.132 81.9055 52.02 81.6535 51.796C81.4015 51.572 81.2755 51.2827 81.2755 50.928C81.2755 50.5733 81.4015 50.284 81.6535 50.06C81.9055 49.836 82.2275 49.724 82.6195 49.724C83.0115 49.724 83.3335 49.836 83.5855 50.06C83.8375 50.284 83.9635 50.5733 83.9635 50.928C83.9635 51.2827 83.8375 51.572 83.5855 51.796C83.3335 52.02 83.0115 52.132 82.6195 52.132ZM88.6967 60.168C88.1834 60.168 87.7074 60.0887 87.2687 59.93C86.8301 59.762 86.4474 59.524 86.1207 59.216C85.8034 58.8987 85.5514 58.5113 85.3647 58.054C85.1781 57.5967 85.0847 57.0787 85.0847 56.5C85.0847 55.9307 85.1781 55.422 85.3647 54.974C85.5607 54.5167 85.8127 54.1293 86.1207 53.812C86.4381 53.4947 86.7974 53.252 87.1987 53.084C87.6001 52.916 88.0154 52.832 88.4447 52.832C88.9581 52.832 89.4061 52.9207 89.7887 53.098C90.1714 53.2753 90.4887 53.518 90.7407 53.826C90.9927 54.134 91.1794 54.4933 91.3007 54.904C91.4314 55.3147 91.4967 55.7533 91.4967 56.22C91.4967 56.4347 91.4827 56.6353 91.4547 56.822C91.4361 57.0087 91.4174 57.144 91.3987 57.228H87.4087C87.5207 57.648 87.7214 57.942 88.0107 58.11C88.3001 58.2687 88.6407 58.348 89.0327 58.348C89.2754 58.348 89.5087 58.3153 89.7327 58.25C89.9661 58.1753 90.2087 58.068 90.4607 57.928L91.2447 59.356C90.8621 59.6267 90.4374 59.832 89.9707 59.972C89.5134 60.1027 89.0887 60.168 88.6967 60.168ZM87.3807 55.66H89.4527C89.4527 55.3893 89.3827 55.156 89.2427 54.96C89.1121 54.7547 88.8647 54.652 88.5007 54.652C88.2301 54.652 87.9921 54.7313 87.7867 54.89C87.5907 55.0487 87.4554 55.3053 87.3807 55.66ZM93.8851 60L92.2051 53H94.5851L95.1171 55.94C95.1731 56.2947 95.2198 56.6493 95.2571 57.004C95.2945 57.3493 95.3411 57.704 95.3971 58.068H95.4531C95.5091 57.704 95.5651 57.3447 95.6211 56.99C95.6865 56.626 95.7611 56.276 95.8451 55.94L96.4891 53H98.5331L99.2051 55.94C99.2891 56.2947 99.3591 56.6493 99.4151 57.004C99.4805 57.3493 99.5505 57.704 99.6251 58.068H99.6811C99.7371 57.704 99.7838 57.3493 99.8211 57.004C99.8585 56.6493 99.9051 56.2947 99.9611 55.94L100.493 53H102.705L101.109 60H98.3091L97.8051 57.564C97.7491 57.2373 97.6931 56.9107 97.6371 56.584C97.5811 56.2573 97.5251 55.898 97.4691 55.506H97.4131C97.3571 55.898 97.3058 56.2573 97.2591 56.584C97.2125 56.9107 97.1611 57.2373 97.1051 57.564L96.6291 60H93.8851ZM106.007 60.168C105.559 60.168 105.083 60.0793 104.579 59.902C104.084 59.7247 103.655 59.4867 103.291 59.188L104.355 57.704C104.99 58.1707 105.559 58.404 106.063 58.404C106.315 58.404 106.492 58.3713 106.595 58.306C106.707 58.2313 106.763 58.124 106.763 57.984C106.763 57.8907 106.726 57.8113 106.651 57.746C106.576 57.6713 106.474 57.606 106.343 57.55C106.222 57.4847 106.082 57.424 105.923 57.368C105.764 57.312 105.596 57.2467 105.419 57.172C105.214 57.088 105.004 56.99 104.789 56.878C104.584 56.7567 104.397 56.612 104.229 56.444C104.061 56.276 103.921 56.0847 103.809 55.87C103.706 55.646 103.655 55.3893 103.655 55.1C103.655 54.7547 103.72 54.442 103.851 54.162C103.991 53.882 104.182 53.644 104.425 53.448C104.668 53.252 104.957 53.1027 105.293 53C105.638 52.888 106.016 52.832 106.427 52.832C107.006 52.832 107.5 52.93 107.911 53.126C108.331 53.3127 108.695 53.5227 109.003 53.756L107.939 55.184C107.687 54.9973 107.44 54.8527 107.197 54.75C106.954 54.6473 106.726 54.596 106.511 54.596C106.1 54.596 105.895 54.7267 105.895 54.988C105.895 55.0813 105.928 55.1607 105.993 55.226C106.068 55.2913 106.166 55.352 106.287 55.408C106.408 55.464 106.548 55.52 106.707 55.576C106.866 55.6227 107.034 55.6787 107.211 55.744C107.416 55.8187 107.626 55.912 107.841 56.024C108.056 56.136 108.247 56.276 108.415 56.444C108.592 56.6027 108.732 56.7987 108.835 57.032C108.947 57.256 109.003 57.5267 109.003 57.844C109.003 58.1707 108.938 58.4787 108.807 58.768C108.676 59.048 108.485 59.2953 108.233 59.51C107.981 59.7153 107.668 59.8787 107.295 60C106.922 60.112 106.492 60.168 106.007 60.168Z" fill="#333333"/>
<g filter="url(#filter3_d)">
<circle cx="180" cy="55" r="40" fill="white"/>
</g>
<g opacity="0.5">
<path d="M197.771 69.5948C197.631 69.3036 197.281 69.1812 196.99 69.3215C196.699 69.4616 196.576 69.8113 196.717 70.1025C197.224 71.157 197.482 72.2901 197.482 73.4702V73.6692C197.482 73.7577 197.41 73.8297 197.321 73.8297H173.364C173.275 73.8297 173.204 73.7577 173.204 73.6692V73.4702C173.204 69.1837 176.691 65.6963 180.977 65.6963H189.708C191.871 65.6963 193.88 66.5634 195.365 68.138C195.587 68.3731 195.957 68.384 196.192 68.1623C196.427 67.9405 196.438 67.5702 196.216 67.3351C194.62 65.6424 192.498 64.6607 190.195 64.5391V61.5978C190.388 61.4137 190.57 61.2197 190.74 61.0141C190.947 61.1166 191.178 61.1791 191.433 61.1979C191.475 61.2009 191.517 61.2025 191.559 61.2025C192.197 61.2025 192.818 60.8454 193.321 60.186C193.766 59.6016 194.063 58.8296 194.115 58.1211C194.209 56.8507 193.494 55.9284 192.267 55.678V52.6971C192.267 52.2367 192.38 51.7641 192.592 51.3305C192.869 50.7658 193.01 50.159 193.01 49.5268C193.01 47.6365 191.735 45.9993 189.909 45.5455C189.55 45.4564 189.172 45.6328 189.01 45.9659C188.641 46.7282 187.887 47.2017 187.041 47.2017H182.708C182.694 47.2017 182.68 47.2027 182.667 47.2027V44.8609C182.667 42.0751 180.4 39.8086 177.614 39.8086H173.935C171.15 39.8086 168.883 42.0751 168.883 44.8609V48.319C167.602 48.5426 166.851 49.4788 166.947 50.7791C167.052 52.2039 168.066 53.7191 169.327 53.8511C169.671 54.7655 170.2 55.5814 170.867 56.2577V57.0709H170.009C165.233 57.0709 161.348 60.9563 161.348 65.7322V67.0164C161.348 67.7363 161.933 68.322 162.653 68.322H173.667C172.639 69.7787 172.033 71.555 172.033 73.4701V73.6691C172.033 74.403 172.63 74.9999 173.364 74.9999H197.321C198.055 74.9999 198.652 74.403 198.652 73.6691V73.4701C198.652 72.1129 198.356 70.809 197.771 69.5948ZM178.296 59.4766C177.987 59.0715 177.773 58.5192 177.737 58.0352C177.691 57.4093 177.95 57.0147 178.508 56.8573C178.524 57.9948 178.825 59.0646 179.343 59.9984C179.29 60.0148 179.232 60.0259 179.166 60.0308C178.901 60.0497 178.575 59.8432 178.296 59.4766ZM189.025 64.526H181.66V62.4409C182.689 63.0845 183.902 63.4581 185.202 63.4581H185.571C186.834 63.4581 188.016 63.1063 189.025 62.4961V64.526ZM192.948 58.0352C192.913 58.5191 192.699 59.0715 192.39 59.4766C192.111 59.843 191.784 60.0503 191.519 60.0306C191.483 60.028 191.45 60.023 191.42 60.0173C191.94 59.0867 192.243 58.0203 192.264 56.8855C192.761 57.0588 192.992 57.4431 192.948 58.0352ZM187.041 48.372C188.209 48.372 189.3 47.7508 189.905 46.7654C191.058 47.1768 191.84 48.2738 191.84 49.5267C191.84 49.9787 191.739 50.4121 191.542 50.8149C191.251 51.4081 191.097 52.059 191.097 52.6971V56.7619C191.097 59.8089 188.618 62.2879 185.571 62.2879H185.202C182.155 62.2879 179.676 59.8089 179.676 56.7619V51.4034C179.676 49.732 181.036 48.372 182.708 48.372H187.041ZM173.935 40.9789H177.614C179.252 40.9789 180.655 41.9988 181.224 43.4363C180.72 43.1036 180.117 42.9093 179.469 42.9093H172.081C171.433 42.9093 170.83 43.1036 170.325 43.4363C170.895 41.9987 172.298 40.9789 173.935 40.9789ZM174.396 58.1691C174.435 58.1771 174.474 58.181 174.513 58.181C174.785 58.181 175.029 57.9897 175.086 57.7123C175.15 57.3955 174.946 57.0866 174.629 57.0223C172.571 56.604 170.912 55.0941 170.301 53.082C170.214 52.798 169.929 52.6238 169.637 52.6764C169.603 52.6826 169.572 52.6866 169.544 52.6887C168.936 52.7355 168.188 51.689 168.114 50.6931C168.058 49.9272 168.458 49.5073 169.304 49.4449C169.346 49.4419 169.386 49.4418 169.428 49.4447C169.589 49.4562 169.749 49.3994 169.867 49.2887C169.986 49.178 170.053 49.0232 170.053 48.8609V47.9877V46.1072C170.053 44.9891 170.963 44.0795 172.081 44.0795H179.468C180.587 44.0795 181.496 44.9891 181.496 46.1072V47.3803C180.642 47.6381 179.902 48.161 179.371 48.8533C179.372 48.8434 179.373 48.8337 179.373 48.8237C179.373 48.3459 178.985 47.9586 178.508 47.9586C178.03 47.9586 177.643 48.3459 177.643 48.8237C177.643 49.3014 178.03 49.6888 178.508 49.6888C178.657 49.6888 178.798 49.6509 178.92 49.5841C178.655 50.1348 178.506 50.752 178.506 51.4033V55.6616C177.225 55.8854 176.474 56.8209 176.57 58.1211C176.601 58.5388 176.717 58.9784 176.898 59.3888H173.923C172.883 59.3888 172.037 58.5428 172.037 57.503V57.2091C172.745 57.6655 173.542 57.9956 174.396 58.1691ZM174.547 67.1517H162.653C162.579 67.1517 162.518 67.091 162.518 67.0165V65.7323C162.518 61.6017 165.878 58.2413 170.009 58.2413H170.958C171.289 59.5709 172.493 60.5591 173.923 60.5591H177.516C177.574 60.5591 177.632 60.5569 177.69 60.5537C178.124 60.9766 178.62 61.2025 179.126 61.2025C179.168 61.2025 179.21 61.2009 179.252 61.1979C179.531 61.1773 179.785 61.1045 180.008 60.9824C180.16 61.1681 180.32 61.3459 180.49 61.5143V64.5395C178.212 64.6623 176.158 65.6416 174.644 67.1604C174.613 67.1551 174.581 67.1517 174.547 67.1517Z" fill="#333333"/>
<path d="M173.042 49.6891C173.52 49.6891 173.907 49.3018 173.907 48.8241C173.907 48.3463 173.52 47.959 173.042 47.959C172.564 47.959 172.177 48.3463 172.177 48.8241C172.177 49.3018 172.564 49.6891 173.042 49.6891Z" fill="#333333"/>
<path d="M177.674 52.9402C177.863 52.6781 177.803 52.3123 177.541 52.1233C177.279 51.9342 176.913 51.9935 176.724 52.2557C176.504 52.5608 176.149 52.743 175.774 52.743C175.4 52.743 175.044 52.5609 174.825 52.2557C174.636 51.9935 174.27 51.9343 174.008 52.1232C173.745 52.3122 173.686 52.6779 173.875 52.9401C174.314 53.5495 175.024 53.9133 175.774 53.9133C176.524 53.9134 177.234 53.5496 177.674 52.9402Z" fill="#333333"/>
<path d="M183.723 44.3973C183.676 44.7084 183.807 45.0138 184.064 45.1946C184.207 45.2946 184.372 45.3453 184.538 45.3453C184.672 45.3453 184.807 45.3123 184.93 45.2456L186.896 44.185C187.5 44.3107 188.163 44.3744 188.871 44.3744C190.54 44.3744 191.951 44.0153 192.951 43.336C194.136 42.532 194.762 41.2803 194.762 39.7166C194.762 36.7632 192.56 35 188.871 35C187.336 35 186.004 35.3179 185.018 35.9193C184.743 36.0876 184.655 36.4477 184.824 36.7236C184.992 36.9995 185.352 37.0866 185.628 36.9184C186.43 36.429 187.551 36.1704 188.871 36.1704C190.634 36.1704 193.592 36.6311 193.592 39.7166C193.592 42.7509 190.634 43.204 188.871 43.204C188.167 43.204 187.519 43.1344 186.947 42.9972C186.807 42.9635 186.66 42.9829 186.533 43.0512L184.983 43.8876L185.187 42.5227C185.215 42.337 185.152 42.1494 185.018 42.018C184.442 41.4531 184.15 40.6788 184.15 39.7166C184.15 39.3665 184.188 39.0369 184.265 38.7369C184.344 38.4237 184.155 38.1052 183.842 38.0255C183.529 37.9459 183.21 38.1352 183.131 38.4484C183.03 38.8427 182.979 39.2694 182.979 39.7166C182.979 40.8877 183.318 41.8664 183.988 42.6305L183.723 44.3973Z" fill="#333333"/>
</g>
<defs>
<filter id="filter0_d" x="315" y="3" width="110" height="110" filterUnits="userSpaceOnUse" color-interpolation-filters="sRGB">
<feFlood flood-opacity="0" result="BackgroundImageFix"/>
<feColorMatrix in="SourceAlpha" type="matrix" values="0 0 0 0 0 0 0 0 0 0 0 0 0 0 0 0 0 0 127 0"/>
<feOffset dy="4"/>
<feGaussianBlur stdDeviation="7.5"/>
<feColorMatrix type="matrix" values="0 0 0 0 0 0 0 0 0 0 0 0 0 0 0 0 0 0 0.25 0"/>
<feBlend mode="normal" in2="BackgroundImageFix" result="effect1_dropShadow"/>
<feBlend mode="normal" in="SourceGraphic" in2="effect1_dropShadow" result="shape"/>
</filter>
<filter id="filter1_d" x="315" y="211" width="110" height="110" filterUnits="userSpaceOnUse" color-interpolation-filters="sRGB">
<feFlood flood-opacity="0" result="BackgroundImageFix"/>
<feColorMatrix in="SourceAlpha" type="matrix" values="0 0 0 0 0 0 0 0 0 0 0 0 0 0 0 0 0 0 127 0"/>
<feOffset dy="4"/>
<feGaussianBlur stdDeviation="7.5"/>
<feColorMatrix type="matrix" values="0 0 0 0 0 0 0 0 0 0 0 0 0 0 0 0 0 0 0.25 0"/>
<feBlend mode="normal" in2="BackgroundImageFix" result="effect1_dropShadow"/>
<feBlend mode="normal" in="SourceGraphic" in2="effect1_dropShadow" result="shape"/>
</filter>
<filter id="filter2_d" x="125" y="211" width="110" height="110" filterUnits="userSpaceOnUse" color-interpolation-filters="sRGB">
<feFlood flood-opacity="0" result="BackgroundImageFix"/>
<feColorMatrix in="SourceAlpha" type="matrix" values="0 0 0 0 0 0 0 0 0 0 0 0 0 0 0 0 0 0 127 0"/>
<feOffset dy="4"/>
<feGaussianBlur stdDeviation="7.5"/>
<feColorMatrix type="matrix" values="0 0 0 0 0 0 0 0 0 0 0 0 0 0 0 0 0 0 0.25 0"/>
<feBlend mode="normal" in2="BackgroundImageFix" result="effect1_dropShadow"/>
<feBlend mode="normal" in="SourceGraphic" in2="effect1_dropShadow" result="shape"/>
</filter>
<filter id="filter3_d" x="125" y="4" width="110" height="110" filterUnits="userSpaceOnUse" color-interpolation-filters="sRGB">
<feFlood flood-opacity="0" result="BackgroundImageFix"/>
<feColorMatrix in="SourceAlpha" type="matrix" values="0 0 0 0 0 0 0 0 0 0 0 0 0 0 0 0 0 0 127 0"/>
<feOffset dy="4"/>
<feGaussianBlur stdDeviation="7.5"/>
<feColorMatrix type="matrix" values="0 0 0 0 0 0 0 0 0 0 0 0 0 0 0 0 0 0 0.25 0"/>
<feBlend mode="normal" in2="BackgroundImageFix" result="effect1_dropShadow"/>
<feBlend mode="normal" in="SourceGraphic" in2="effect1_dropShadow" result="shape"/>
</filter>
<clipPath id="clip0">
<rect width="40" height="40" fill="white" transform="translate(160 242)"/>
</clipPath>
</defs>
</svg>
