<svg width="375" height="666" viewBox="0 0 375 666" fill="none" xmlns="http://www.w3.org/2000/svg">
<g opacity="0.3">
<path opacity="0.3" fill-rule="evenodd" clip-rule="evenodd" d="M193.402 239.54C143.713 232.494 96.6188 213.067 55.9808 183.612C-4.71704 139.615 -131.74 64.7487 -252.911 102.04C-420.045 153.477 -420.792 302.277 -377.258 383.106C-333.724 463.935 -25.0078 700.633 375.221 662.97C733.361 629.272 803.157 243.492 612.141 173.685C446.476 113.138 389.952 267.407 193.402 239.54Z" fill="#4BAFB9"/>
<path opacity="0.3" fill-rule="evenodd" clip-rule="evenodd" d="M644.964 233.695C644.95 125.848 558.358 7.67409 450.582 0.537167C448.69 0.410232 446.777 0.301431 444.85 0.208672C290.35 -7.26093 278.578 188.148 138.788 210.188C-0.998779 232.226 -107.747 120.967 -275.013 193.558C-425.236 258.752 -465.925 625.091 -24.541 639.786C328.605 651.538 645.006 555.458 644.964 233.695Z" fill="#A5D6DB"/>
<path opacity="0.3" fill-rule="evenodd" clip-rule="evenodd" d="M5.69429 76.6258C5.69429 89.1185 -4.43541 99.248 -16.9282 99.248C-29.4232 99.248 -39.5508 89.1185 -39.5508 76.6258C-39.5508 64.1311 -29.4232 54.0029 -16.9282 54.0029C-4.43541 54.0029 5.69429 64.1311 5.69429 76.6258Z" fill="#A5D6DB"/>
</g>
<path d="M395.282 230.892H179.299C175.966 230.892 173.264 233.594 173.264 236.927V388.844C173.264 392.177 175.966 394.879 179.299 394.879H395.282C398.615 394.879 401.317 392.177 401.317 388.844V236.927C401.317 233.594 398.615 230.892 395.282 230.892Z" fill="#BEC6C4"/>
<path d="M390.058 234.494H184.523C181.19 234.494 178.488 237.196 178.488 240.529V385.257C178.488 388.59 181.19 391.292 184.523 391.292H390.058C393.391 391.292 396.093 388.59 396.093 385.257V240.529C396.093 237.196 393.391 234.494 390.058 234.494Z" fill="#FEFEFE"/>
<path d="M273.262 350.343H316.377" stroke="#BACCC6" stroke-width="1.42774" stroke-linecap="round" stroke-linejoin="round"/>
<path d="M273.262 356.604H316.377" stroke="#BACCC6" stroke-width="1.42774" stroke-linecap="round" stroke-linejoin="round"/>
<path d="M273.262 362.865H316.377" stroke="#BACCC6" stroke-width="1.42774" stroke-linecap="round" stroke-linejoin="round"/>
<path d="M273.262 369.11H316.377" stroke="#BACCC6" stroke-width="1.42774" stroke-linecap="round" stroke-linejoin="round"/>
<path d="M273.262 375.372H289.988" stroke="#BACCC6" stroke-width="1.42774" stroke-linecap="round" stroke-linejoin="round"/>
<path d="M237.244 264.685H298.785" stroke="#BACCC6" stroke-width="2.0383" stroke-linecap="round" stroke-linejoin="round"/>
<path d="M237.244 273.619H298.785" stroke="#BACCC6" stroke-width="2.0383" stroke-linecap="round" stroke-linejoin="round"/>
<path d="M237.244 282.539H298.785" stroke="#BACCC6" stroke-width="2.0383" stroke-linecap="round" stroke-linejoin="round"/>
<path d="M237.244 291.475H298.785" stroke="#BACCC6" stroke-width="2.0383" stroke-linecap="round" stroke-linejoin="round"/>
<path d="M237.244 300.41H261.115" stroke="#BACCC6" stroke-width="2.0383" stroke-linecap="round" stroke-linejoin="round"/>
<path d="M327.312 284.931H333.071C333.194 284.378 333.258 283.814 333.26 283.247V270.395H318.217V291.145H325.376C326.035 291.143 326.69 291.058 327.328 290.893L327.312 284.931Z" fill="#C80030"/>
<path d="M327.312 290.876C330.205 290.146 332.435 287.843 333.072 284.93H327.312V290.876Z" fill="#873946"/>
<path d="M353.511 343.972H365.863C366.124 342.783 366.256 341.57 366.257 340.353V312.744H333.983V357.265H349.341C350.748 357.261 352.149 357.081 353.511 356.73V343.972Z" fill="#333333"/>
<path d="M353.513 356.793C359.71 355.213 364.488 350.278 365.865 344.034H353.513V356.793Z" fill="black"/>
<path d="M363.079 279.33H375.432C375.692 278.141 375.824 276.928 375.825 275.712V248.118H343.552V292.639H358.925C360.332 292.635 361.733 292.455 363.095 292.104L363.079 279.33Z" fill="#333333"/>
<path d="M363.079 292.104C369.276 290.525 374.054 285.59 375.431 279.346H363.079V292.104Z" fill="black"/>
<path d="M250.949 209.166H202.263L175.702 226.471V153.177C175.702 138.452 189.392 126.527 206.276 126.527H250.949C267.833 126.527 281.523 138.452 281.523 153.177V182.517C281.523 197.242 267.833 209.166 250.949 209.166Z" fill="#C80030"/>
<path d="M204.577 192.381C204.565 192.282 204.565 192.181 204.577 192.082C206.04 189.187 203.649 187.787 202.232 186.025C201.997 185.792 201.655 185.702 201.335 185.789C200.879 185.789 200.438 185.915 199.982 185.947C198.204 186.088 198.204 186.088 197.464 184.484C196.901 183.237 196.454 181.942 196.127 180.614C195.97 179.984 196.033 179.465 196.646 179.229C198.818 178.395 199.117 176.696 199.18 174.604C199.365 173.458 198.82 172.316 197.811 171.741C197.48 171.536 197.213 171.237 196.898 171.017C196.53 170.782 196.39 170.314 196.568 169.916C197.127 168.178 197.904 166.518 198.881 164.976C199.061 164.565 199.538 164.376 199.951 164.551C202.169 165.495 203.727 164.551 205.254 162.978C206.017 162.362 206.39 161.382 206.229 160.414C205.883 158.164 205.962 158.149 208.086 157.268C209.198 156.8 210.345 156.421 211.516 156.135C212.114 155.978 212.555 156.135 212.822 156.623C213.493 158.325 215.22 159.369 217.039 159.171C218.41 159.364 219.769 158.752 220.533 157.598C221.461 156.198 221.571 156.277 223.16 156.874C224.402 157.363 225.606 157.942 226.764 158.605C227.472 158.998 227.802 159.502 227.503 160.178C226.873 161.742 227.325 163.535 228.621 164.614C229.519 165.903 231.151 166.458 232.649 165.983C233.624 165.716 234.065 166.125 234.443 166.958C235.118 168.401 235.645 169.909 236.016 171.458C236.142 172.008 236.111 172.464 235.56 172.685C233.31 173.55 232.948 175.28 232.948 177.404C232.78 178.486 233.292 179.56 234.238 180.11C234.569 180.299 234.836 180.614 235.167 180.834C235.587 181.063 235.759 181.578 235.56 182.014C235.011 183.717 234.261 185.349 233.325 186.875C233.117 187.344 232.572 187.561 232.098 187.362C230.053 186.544 228.684 187.362 227.094 188.731C226.009 189.659 225.597 191.154 226.056 192.507C226.168 192.863 226.13 193.25 225.953 193.579C225.775 193.908 225.471 194.151 225.112 194.253C223.67 194.931 222.162 195.458 220.611 195.826C220.013 195.968 219.541 195.92 219.305 195.338C218.424 193.199 216.772 192.853 214.585 192.743C213.332 192.651 212.144 193.312 211.563 194.426C210.588 195.637 210.588 195.622 209.156 195.102C207.745 194.596 206.395 193.936 205.128 193.136C204.813 193.042 204.435 192.821 204.577 192.381ZM216.079 165.967C210.53 165.976 206.037 170.477 206.04 176.025C206.043 181.573 210.541 186.07 216.09 186.072C221.639 186.075 226.141 181.583 226.15 176.036C226.211 173.353 225.173 170.761 223.278 168.861C221.383 166.96 218.795 165.915 216.111 165.967H216.079Z" fill="#FEFEFE"/>
<path d="M237.448 168.295C237.439 168.222 237.439 168.148 237.448 168.075C238.549 165.904 236.756 164.929 235.686 163.513C235.511 163.332 235.252 163.259 235.009 163.324L233.986 163.45C232.649 163.56 232.649 163.56 232.098 162.349C231.674 161.411 231.337 160.437 231.091 159.438C230.965 158.966 231.091 158.573 231.484 158.4C233.058 157.771 233.341 156.497 233.388 154.923C233.528 154.058 233.113 153.198 232.35 152.768C232.098 152.611 231.893 152.391 231.657 152.217C231.376 152.042 231.268 151.685 231.406 151.384C231.823 150.078 232.405 148.831 233.136 147.671C233.267 147.358 233.626 147.21 233.939 147.341C235.381 147.957 237.057 147.454 237.92 146.145C238.499 145.682 238.782 144.941 238.66 144.21C238.392 142.527 238.455 142.511 240.06 141.819C240.896 141.468 241.759 141.183 242.641 140.969C243.081 140.859 243.427 140.969 243.616 141.347C244.117 142.619 245.403 143.403 246.763 143.266C247.787 143.421 248.809 142.974 249.391 142.118C250.099 141.064 250.178 141.127 251.358 141.567C252.291 141.936 253.195 142.373 254.065 142.873C254.6 143.172 254.836 143.549 254.615 144.116C254.146 145.294 254.489 146.641 255.465 147.451C256.14 148.416 257.364 148.83 258.486 148.473C259.21 148.269 259.556 148.583 259.839 149.197C260.351 150.281 260.752 151.414 261.035 152.579C261.13 152.988 261.035 153.334 260.689 153.492C259.005 154.137 258.722 155.442 258.738 157.079C258.615 157.891 259.002 158.697 259.714 159.108C259.965 159.25 260.17 159.486 260.406 159.643C260.718 159.816 260.847 160.197 260.705 160.524C260.291 161.803 259.726 163.028 259.021 164.174C258.863 164.528 258.449 164.69 258.093 164.535C256.751 164.012 255.224 164.427 254.332 165.558C253.523 166.257 253.218 167.377 253.561 168.39C253.644 168.657 253.615 168.946 253.482 169.192C253.349 169.437 253.122 169.619 252.853 169.695C251.77 170.21 250.636 170.61 249.47 170.891C249.029 171.001 248.667 170.891 248.494 170.529C247.833 168.956 246.59 168.673 244.97 168.578C244.03 168.524 243.145 169.022 242.704 169.853C241.964 170.765 241.98 170.749 240.894 170.372C239.836 169.99 238.823 169.495 237.873 168.893C237.621 168.799 237.322 168.626 237.448 168.295ZM246.087 148.458C241.917 148.458 238.537 151.835 238.534 156.004C238.531 160.172 241.907 163.554 246.076 163.56C250.246 163.566 253.631 160.193 253.64 156.025C253.687 154.009 252.91 152.061 251.487 150.633C250.064 149.204 248.119 148.418 246.102 148.458H246.087Z" fill="#FEFEFE"/>
<path d="M90.1959 291.082H41.5106L14.9492 308.387V235.093C14.9492 220.368 28.639 208.443 45.5231 208.443H90.1959C107.08 208.443 120.77 220.368 120.77 235.093V264.433C120.77 279.158 107.017 291.082 90.1959 291.082Z" fill="#C80030"/>
<path d="M82.8604 252.805L90.016 259.938L72.2642 277.636C69.7733 280.119 65.7349 280.119 63.2442 277.636L60.5986 274.998L82.8604 252.805Z" fill="white"/>
<path d="M95.0518 254.791C97.5371 252.303 97.5392 248.265 95.0565 245.774L77.3632 228.018L70.2236 235.167L92.4122 257.435L95.0518 254.791Z" fill="white"/>
<path d="M63.1883 222.98C65.6791 220.496 69.7176 220.496 72.2084 222.98L74.8539 225.617L52.5921 247.811L45.4365 240.677L63.1883 222.98Z" fill="white"/>
<path d="M43.036 243.18L65.2297 265.442L58.0959 272.597L40.3985 254.845C37.9153 252.355 37.9153 248.316 40.3985 245.825L43.036 243.18Z" fill="white"/>
<path d="M64.8582 249.456L67.771 246.534L64.1775 243.059C63.9602 242.845 63.6657 242.726 63.3588 242.726C63.0518 242.726 62.7574 242.845 62.5401 243.059L56.0339 249.456C55.8171 249.67 55.6953 249.96 55.6953 250.262C55.6953 250.563 55.8171 250.853 56.0339 251.067L62.5401 257.464C62.7574 257.678 63.0518 257.797 63.3588 257.797C63.6657 257.797 63.9602 257.678 64.1775 257.464L67.771 253.989L64.8582 251.067C64.6414 250.853 64.5196 250.563 64.5196 250.262C64.5196 249.96 64.6414 249.67 64.8582 249.456Z" fill="white"/>
<path d="M71.2733 242.792L67.6797 246.39L70.5924 249.306C70.8092 249.523 70.931 249.818 70.931 250.125C70.931 250.432 70.8092 250.727 70.5924 250.945L67.6797 253.861L71.2733 257.458C71.4905 257.675 71.785 257.797 72.0919 257.797C72.3989 257.797 72.6932 257.675 72.9106 257.458L79.4169 250.945C79.6337 250.727 79.7553 250.432 79.7553 250.125C79.7553 249.818 79.6337 249.523 79.4169 249.306L72.9106 242.792C72.6932 242.575 72.3989 242.453 72.0919 242.453C71.785 242.453 71.4905 242.575 71.2733 242.792Z" fill="white"/>
<path d="M219.514 613.365C219.514 615.709 223.951 629.789 223.951 629.789H245.587C245.587 629.789 247.413 625.069 246.893 623.276C246.374 621.483 239.403 616.244 239.026 615.19C238.648 614.136 233.298 600.591 233.298 600.591C233.298 600.591 226.382 602.068 222.32 605.749C220.012 607.841 219.514 612.516 219.514 613.365Z" fill="#C80030"/>
<path d="M114.319 598.637C114.319 598.637 110.999 609.193 109.425 611.726C107.852 614.258 99.0928 620.719 98.4106 621.495C97.7283 622.271 97.0156 629.162 97.0156 629.162L126.734 629.502C126.734 629.502 128.103 618.49 128.103 616.209C128.103 613.928 127.128 607.415 127.128 607.415L126.341 599.785L114.319 598.637Z" fill="#C80030"/>
<path d="M106.402 618.704C107.932 618 109.106 617.647 109.925 617.647C110.744 617.647 111.918 618 113.448 618.704" stroke="#873946" stroke-linecap="round"/>
<path d="M109.925 615.796C111.739 615.084 113.066 614.729 113.907 614.729C114.748 614.729 115.861 615.084 117.249 615.796" stroke="#873946" stroke-linecap="round"/>
<path d="M137.654 434.318C137.654 434.318 129.786 459.332 129.314 466.112C128.842 472.892 121.572 517.225 120.691 521.299C116.316 541.373 111.596 585.579 111.596 585.579L114.743 589.653L111.596 595.726V603.592C114.026 602.916 116.511 602.458 119.023 602.223C121.367 602.223 127.819 604.96 127.819 604.96C127.819 604.96 134.79 585.799 134.79 582.936C134.79 580.073 137.937 578.767 137.654 576.643C137.37 574.52 136.646 569.092 137.654 566.748C140.265 557.333 142.263 547.759 143.633 538.085C144.026 532.61 150.273 515.415 150.273 515.415C150.273 515.415 157.7 493.517 158.881 490.402C160.061 487.287 161.917 470.863 169.187 470.863C176.457 470.863 188.196 494.319 190.147 502.924C192.098 511.53 204.608 553.738 206.575 556.869C208.541 559.999 216.016 570.555 216.016 570.555L213.12 581.929L215.103 597.504C215.103 597.504 216.378 605.574 216.582 607.336C216.787 609.098 223.285 607.336 223.285 607.336C223.285 607.336 235.386 604.772 237.337 603.796C239.288 602.821 239.493 598.526 239.1 597.158C238.395 595.389 237.868 593.555 237.526 591.683C237.526 590.314 229.108 534.781 228.321 530.471C227.534 526.16 220.988 510.963 219.556 504.671C217.989 496.178 217.053 487.58 216.755 478.949C216.755 474.23 215.969 469.18 215.969 467.229C215.969 465.278 204.954 430.873 204.954 430.873L137.654 434.318Z" fill="#333333"/>
<path d="M156.157 466.711C160.374 469.401 163.275 469.683 168.814 470.674C168.099 471.101 167.631 471.101 167.01 471.417C166.02 471.92 165.334 472.64 164.822 473.145C163.071 474.869 163.37 477.126 162.588 476.996C160.685 476.68 159.241 470.352 156.157 466.711Z" fill="black"/>
<path d="M134.864 581.568L128.82 582.728L133.368 588.541C133.484 587.986 133.767 587.156 134.215 586.049C134.664 584.943 134.88 583.522 134.864 581.787V581.568Z" fill="black"/>
<path d="M222.435 572.132L216.275 570.94L213.712 567.023L222.435 572.132Z" fill="black"/>
<path d="M144.955 320.437C142.674 321.696 142.265 321.539 134.853 324.213C132.253 325.035 129.705 326.012 127.222 327.139C123.052 330.852 125.648 337.003 123.571 346.757C122.485 351.838 118.504 356.62 118.85 358.744C119.197 360.868 125.727 360.616 130.841 360.569C136.521 360.569 137.418 359.185 138.929 360.05C144.94 363.479 133.343 386.227 134.208 409.825C134.287 412.059 134.68 419.264 134.208 428.986C133.988 433.454 133.673 437.12 133.421 439.542C145.45 442.785 157.757 444.892 170.179 445.835C185.553 446.968 192.523 445.646 198.723 442.311C202.748 440.125 206.329 437.207 209.282 433.706C207.839 430.644 207.041 427.319 206.937 423.936C206.937 420.68 207.551 419.469 207.33 415.331C207.147 412.827 206.752 410.343 206.15 407.906C204.892 402.006 204.089 399.898 203.412 396.894C202.594 393.338 199.589 380.344 206.15 371.094C206.739 370.263 207.391 369.479 208.102 368.749C209.234 369.442 210.194 371.55 211.485 370.842C212.775 370.134 214.632 356.573 216.3 352.467C218.026 349.142 219.095 345.515 219.447 341.785C220.296 336.193 217.845 330.613 213.153 327.454C212.13 326.651 210.006 325.062 201.43 321.161C198.487 319.84 197.024 319.179 195.56 318.691C192.391 317.607 189.115 316.864 185.789 316.473C171.926 314.742 168.7 318.534 158.74 316.473C156.462 315.855 154.067 315.812 151.769 316.347C148.999 317.149 148.653 318.392 144.955 320.437Z" fill="#C80030"/>
<path d="M141.304 341.063C141.304 341.063 142.28 351.698 142.28 358.95C142.28 361.814 139.589 359.108 139.337 360.366C138.487 364.818 137.465 367.571 135.561 369.475C141.76 373.219 150.824 358.762 141.304 341.063Z" fill="#873946"/>
<path d="M193.655 357.691C193.655 357.691 200.201 342.589 200.988 340.245C201.775 337.901 188.211 355.615 188.211 355.615L193.655 357.691Z" fill="#873946"/>
<path d="M169.188 296.729L165.805 318.628H185.348L182.201 296.21L169.188 296.729Z" fill="#BC6C56"/>
<g style="mix-blend-mode:multiply" opacity="0.5">
<path d="M173.001 308.718L183.933 309.312C183.933 309.312 184.809 313.511 184.809 315.606C184.809 316.823 183.858 316.015 181.398 316.015C174.954 316.015 173.011 309.312 173.011 309.312" fill="#BC6C56"/>
</g>
<path d="M151.863 316.409C153.902 326.533 162.536 333.995 172.851 334.547C183.165 335.099 192.547 328.602 195.655 318.753C181.753 312.998 166.3 312.171 151.863 316.409Z" fill="#BC6C56"/>
<path d="M162.406 290.61L161.431 273.415C164.408 267.186 170.748 263.269 177.652 263.395C184.556 263.52 190.751 267.664 193.499 273.997L192.319 291.79L162.406 290.61Z" fill="#282E5B"/>
<g style="mix-blend-mode:multiply" opacity="0.5">
<path d="M159.621 321.562L165.805 327.296L167.923 330.318L173.751 352.026L169.204 325.125L162.894 320.122L160.313 311.344L159.621 314.616V321.562Z" fill="#BC6C56"/>
</g>
<path d="M120.864 358.822C120.077 364.171 121.966 377.794 122.265 387.69C121.736 393.107 125.5 398.005 130.872 398.891C137.166 400.574 155.687 402.242 180.659 403.06L198.125 394.722C203.695 388.854 206.512 382.42 204.419 379.242C201.807 375.167 191.516 377.008 185.033 380.909C180.803 383.55 177.448 387.381 175.387 391.922C169.534 390.726 163.24 389.2 156.615 387.202C150.824 385.487 145.427 383.631 140.455 381.727C141.082 377.859 141.335 373.94 141.21 370.023C141.211 366.629 140.826 363.246 140.061 359.939C133.657 358.193 124.688 357.737 120.864 358.822Z" fill="#BC6C56"/>
<g opacity="0.5">
<g style="mix-blend-mode:multiply" opacity="0.5">
<path d="M120.865 358.822C121.098 358.362 126.379 357.972 130.658 358.384C133.511 358.659 136.646 359.177 140.062 359.939C140.293 360.787 140.44 361.421 140.501 361.839C140.562 362.258 140.612 362.661 140.648 363.051C135.933 363.156 132.394 363.22 130.034 363.242C127.673 363.265 124.554 363.265 120.675 363.242C120.646 360.602 120.709 359.128 120.865 358.822Z" fill="#BC6C56"/>
</g>
<g style="mix-blend-mode:multiply" opacity="0.5">
<path d="M180.407 384.524C180.407 384.524 184.373 390.034 191.328 389.247C198.283 388.46 204.994 380.744 204.994 380.744C204.597 379.298 204.058 378.372 203.376 377.967C202.168 377.249 200.25 376.551 197.623 375.875C194.787 376.761 192.507 377.416 190.782 377.841C187.947 378.541 184.488 380.768 180.407 384.524Z" fill="#BC6C56"/>
</g>
</g>
<path d="M189.974 276.718L190.493 287.73C191.33 287.486 192.23 287.6 192.979 288.045C194.348 289.004 194.097 291.191 193.955 292.402C193.975 293.445 193.579 294.453 192.854 295.203C192.244 295.693 191.48 295.949 190.698 295.926C190.197 299.663 188.739 303.207 186.465 306.215C184.687 308.528 181.194 313.09 176.489 312.854C172.209 312.649 169.361 308.575 167.299 305.617C165.159 302.525 163.754 298.984 163.192 295.266C162.576 295.388 161.936 295.246 161.43 294.872C161.084 294.573 160.895 294.102 161.037 291.553C161.225 288.281 161.619 287.777 161.871 287.526C162.449 287 163.197 286.698 163.979 286.676L165.93 274.751C168.867 272.303 172.527 270.888 176.347 270.724C181.537 270.685 186.496 272.866 189.974 276.718Z" fill="#BC6C56"/>
<g style="mix-blend-mode:multiply" opacity="0.5">
<path d="M169.779 328.211C170.409 332.663 171.101 333.528 171.715 337.492C175.098 335.825 178.859 340.065 182.683 337.926C180.401 332.75 180.165 328.698 179.52 326.763C179.913 323.35 180.369 320.612 180.731 318.709C181.093 316.805 181.345 315.798 181.644 313.895C181.98 311.758 182.206 309.605 182.321 307.445L178.904 308.299L176.631 311.769C175.372 310.196 174.642 308.798 173.037 307.225C171.432 305.651 169.89 304.283 168.473 303.056L165.72 305.809C166.05 308.609 170.598 312.259 170.928 315.059C173.792 317.906 166.9 325.395 169.779 328.211Z" fill="#BC6C56"/>
</g>
<path d="M196.819 359.529C199.384 361.181 201.366 361.543 205.159 363.965C206.759 364.983 208.284 366.113 209.722 367.348C208.148 376.441 202.405 383.662 194.852 385.785C191.399 386.709 187.755 386.638 184.341 385.581C183.342 385.193 182.404 384.663 181.556 384.008C179.032 381.864 177.33 378.912 176.741 375.654C175.435 370.242 172.287 352.875 168.873 329.135L160.266 320.672L159.29 312.271L167.567 303.996C169.03 305.223 170.557 306.608 172.13 308.165C173.704 309.722 175.183 311.311 176.426 312.885L179.069 308.873L181.414 308.385C181.299 310.545 181.073 312.698 180.737 314.835C180.438 316.739 180.187 317.761 179.825 319.649C179.463 321.537 178.991 324.29 178.613 327.704C179.793 331.291 184.042 343.609 190.257 352.497C191.924 355.277 194.161 357.674 196.819 359.529Z" fill="#BC6C56"/>
<path d="M302.875 540.775L303.678 540.87L302.812 541.216V540.791L302.875 540.775Z" fill="#363A68"/>
<path d="M290.964 629.486C291.034 629.344 291.13 629.216 291.247 629.109C291.555 628.841 291.881 628.594 292.222 628.369C294.231 626.712 296.133 624.931 297.919 623.036C298.123 622.832 298.532 622.658 298.878 622.328C299.151 622.037 299.342 621.679 299.429 621.29C299.539 620.912 299.602 620.535 299.649 620.22C299.884 618.21 299.837 616.176 299.508 614.179C299.13 610.75 297.934 601.452 297.934 600.209C297.934 599.973 297.934 599.58 297.934 599.187C297.949 598.781 297.917 598.374 297.84 597.975V597.739C298.364 597.781 298.89 597.781 299.413 597.739C302.401 597.639 305.363 597.153 308.225 596.292C309.526 595.964 310.795 595.522 312.017 594.971C312.379 594.798 312.946 594.562 313.056 594.105C313.065 593.549 312.912 593.003 312.615 592.532C312.854 592.693 313.1 592.84 313.355 592.973C313.969 593.287 314.63 593.555 315.054 593.791C315.728 594.125 316.357 594.542 316.927 595.034C317.672 595.747 318.256 596.61 318.642 597.566C318.926 598.222 319.153 598.901 319.319 599.596C320.168 603.057 319.539 606.644 319.932 610.466C320.247 613.503 320.735 616.523 321.286 619.528C321.427 620.314 321.758 621.935 321.758 621.935C321.758 622.234 322.057 622.91 322.198 623.508C322.198 623.65 322.198 623.791 322.277 623.886H322.183L321.459 624.09L321.018 624.184C321.018 623.996 320.924 623.744 320.892 623.524C320.861 623.303 320.892 623.13 320.798 622.989C319.948 619.528 318.201 612.59 318.201 612.59C318.201 612.354 318.06 611.583 317.887 610.875C317.821 610.584 317.726 610.299 317.604 610.026C317.488 609.752 317.29 609.521 317.037 609.365C316.84 609.258 316.609 609.23 316.392 609.287C315.708 609.529 315.101 609.947 314.63 610.498C314.169 610.993 313.743 611.518 313.355 612.071C312.733 612.962 312.264 613.951 311.97 614.997C311.347 617.731 310.926 620.508 310.711 623.303C310.671 624.315 310.338 625.294 309.752 626.119C308.731 626.977 307.506 627.557 306.195 627.803C305.267 628.07 304.323 628.322 303.379 628.558C301.239 629.077 299.067 629.518 296.927 630.021C296.487 630.131 295.826 630.336 295.086 630.524C294.458 630.69 293.815 630.795 293.166 630.839C292.627 630.905 292.08 630.812 291.593 630.572C291.364 630.437 291.192 630.225 291.105 629.974C290.96 629.858 290.903 629.662 290.964 629.486Z" fill="black"/>
<path d="M295.37 592.155C294.804 586.004 294.505 580.01 292.522 574.095C290.288 567.441 288.116 560.818 286.338 554.006C285.441 550.592 284.607 547.178 283.773 543.764C282.939 540.789 282.303 537.762 281.87 534.703C281.41 531.867 282.107 528.966 283.805 526.648C286.622 523.14 291.5 521.929 295.607 520.89C297.18 520.497 298.754 520.135 300.217 519.774V520.23C300.363 520.195 300.482 520.089 300.532 519.947C300.586 519.827 300.586 519.689 300.532 519.569H300.815C317.384 514.189 333.859 508.557 350.35 502.846C351.907 502.375 353.064 501.066 353.34 499.464C360.638 501.949 367.62 505.28 374.142 509.391C374.142 509.878 374.142 510.366 374.142 510.854C374.142 511.341 374.063 511.687 374 512.159C373.972 512.489 373.972 512.821 374 513.15L374.315 513.025C375.416 516.313 376.361 521.252 374.315 524.336C372.081 527.718 367.313 528.945 363.757 530.062C357.321 532.076 350.696 533.507 344.103 534.939C337.211 536.512 330.287 537.865 323.348 539.155C320.201 539.753 316.928 540.272 313.687 540.728C310.604 541.198 307.488 541.408 304.371 541.357C300.138 541.153 304.78 538.951 308.1 558.851C308.962 565.533 309.487 572.253 309.674 578.988C309.778 581.979 310.157 584.954 310.807 587.876C311.139 589.138 311.549 590.378 312.034 591.589C312.129 591.825 312.302 592.155 312.475 592.501C312.771 592.972 312.925 593.518 312.915 594.075C312.805 594.515 312.239 594.751 311.877 594.94C310.654 595.491 309.385 595.933 308.085 596.261C305.222 597.122 302.26 597.609 299.273 597.709C298.749 597.75 298.223 597.75 297.699 597.709C297.197 597.666 296.727 597.442 296.378 597.079C295.386 595.915 295.496 593.508 295.37 592.155Z" fill="black"/>
<path d="M306.056 542.946H372.801C373.619 542.946 374.282 542.283 374.282 541.465V531.119C374.282 530.3 373.619 529.637 372.801 529.637H306.056C305.238 529.637 304.574 530.3 304.574 531.119V541.465C304.574 542.283 305.238 542.946 306.056 542.946Z" fill="black"/>
<path d="M391.278 449.122V520.639C391.295 526.411 389.012 531.954 384.935 536.042C380.858 540.129 375.321 542.427 369.547 542.427H316.047" stroke="#333333" stroke-width="3.4431" stroke-linecap="round" stroke-linejoin="round"/>
<path d="M341.097 620.63H346.525V542.947H341.097V620.63Z" fill="#333333" stroke="#333333" stroke-width="0.973473" stroke-linecap="round" stroke-linejoin="round"/>
<path d="M336.77 604.992H350.869V578.421H336.77V604.992Z" fill="#333333" stroke="#333333" stroke-width="0.973473" stroke-linecap="round" stroke-linejoin="round"/>
<path d="M296.361 623.226C325.107 604.076 362.548 604.076 391.293 623.226V618.821C362.337 600.381 325.318 600.381 296.361 618.821V623.226Z" fill="#333333" stroke="#333333" stroke-width="0.973473" stroke-linecap="round" stroke-linejoin="round"/>
<path d="M296.361 629.298C299.715 629.298 302.435 626.579 302.435 623.226C302.435 619.872 299.715 617.153 296.361 617.153C293.006 617.153 290.287 619.872 290.287 623.226C290.287 626.579 293.006 629.298 296.361 629.298Z" fill="#333333" stroke="#333333" stroke-width="0.973473" stroke-linecap="round" stroke-linejoin="round"/>
<path d="M343.819 628.952C346.983 628.952 349.547 626.388 349.547 623.225C349.547 620.063 346.983 617.499 343.819 617.499C340.656 617.499 338.092 620.063 338.092 623.225C338.092 626.388 340.656 628.952 343.819 628.952Z" fill="#333333" stroke="#333333" stroke-width="0.973473" stroke-linecap="round" stroke-linejoin="round"/>
<path d="M248.023 626.121C248.148 625.98 248.297 625.863 248.463 625.775C248.896 625.557 249.343 625.368 249.801 625.208C252.596 623.898 255.307 622.416 257.92 620.772C258.219 620.599 258.739 620.52 259.226 620.237C259.622 619.986 259.943 619.633 260.155 619.215C260.357 618.847 260.541 618.469 260.705 618.082C261.557 615.889 262.087 613.584 262.279 611.239C262.798 607.29 264.104 596.514 264.325 595.082C264.325 594.815 264.482 594.374 264.608 593.918C264.735 593.467 264.809 593.002 264.828 592.534V592.25C265.448 592.47 266.085 592.638 266.732 592.754C270.231 593.456 273.805 593.715 277.369 593.525C278.953 593.506 280.532 593.353 282.09 593.068C282.546 592.974 283.286 592.864 283.537 592.392C283.741 591.763 283.741 591.086 283.537 590.457C283.766 590.701 284.007 590.932 284.261 591.149C284.891 591.684 285.567 592.156 286.008 592.534C286.688 593.09 287.296 593.73 287.818 594.437C288.478 595.438 288.913 596.571 289.092 597.757C289.239 598.566 289.312 599.388 289.312 600.211C289.312 604.332 287.581 608.202 286.952 612.592C286.464 616.084 286.165 619.624 285.961 623.148C285.961 624.06 285.835 625.979 285.835 625.979C285.835 626.341 285.835 627.159 285.835 627.82C285.835 627.993 285.835 628.15 285.835 628.276H285.709H284.812H284.246V628.182C284.246 627.961 284.246 627.663 284.246 627.411C284.246 627.159 284.246 626.955 284.246 626.797C284.246 622.676 284.167 614.401 284.167 614.401C284.167 614.118 284.277 613.221 284.293 612.387C284.297 612.044 284.265 611.701 284.198 611.365C284.148 611.016 283.981 610.695 283.726 610.452C283.527 610.276 283.269 610.181 283.002 610.185C282.148 610.271 281.33 610.574 280.626 611.066C279.956 611.484 279.315 611.946 278.707 612.45C277.735 613.276 276.911 614.26 276.268 615.36C274.774 618.26 273.501 621.268 272.46 624.359C272.123 625.49 271.461 626.496 270.556 627.254C269.124 627.936 267.545 628.249 265.961 628.166C264.797 628.166 263.632 628.166 262.468 628.166C259.84 628.166 257.196 628.072 254.6 628.04H254.521C253.986 628.04 253.152 628.04 252.24 628.04C251.465 628.054 250.691 627.996 249.927 627.867C249.316 627.788 248.74 627.543 248.259 627.159C248.029 626.95 247.884 626.665 247.85 626.357C247.883 626.263 247.943 626.181 248.023 626.121Z" fill="#D08B73"/>
<path d="M291.762 523.864L304.576 532.823V541.783C304.576 541.783 292.769 530.991 291.762 523.864Z" fill="black"/>
<path d="M263.694 585.36C264.764 578.28 266.118 571.469 265.488 564.279C264.764 556.177 264.135 548.154 263.915 540.021C263.915 535.946 263.836 531.872 263.82 527.797C263.691 524.222 263.807 520.643 264.167 517.084C264.45 513.743 266.087 510.662 268.698 508.557C272.947 505.411 278.958 505.411 284.025 505.317C285.913 505.317 287.801 505.317 289.689 505.317V505.836C289.867 505.838 290.033 505.749 290.13 505.6C290.195 505.46 290.195 505.299 290.13 505.159H290.476C311.231 503.586 331.97 501.793 352.694 499.921C354.613 499.838 356.326 498.691 357.131 496.947C364.845 501.777 371.968 507.49 378.358 513.969C378.232 514.52 378.107 515.07 377.949 515.542C377.792 516.014 377.619 516.455 377.414 516.958C377.271 517.32 377.16 517.694 377.084 518.075H377.477C377.823 522.071 377.477 527.876 374.33 530.802C370.79 533.948 364.889 534.074 360.451 534.357C352.411 534.861 344.323 534.656 336.266 534.467C327.832 534.263 319.398 533.964 310.979 533.524C307.093 533.319 303.206 533.02 299.335 532.564C295.62 532.251 291.936 531.635 288.32 530.723C287.722 530.55 286.589 530.11 286.589 530.11C287.822 537.133 288.197 544.281 287.707 551.395C286.847 559.148 285.587 566.851 283.93 574.473C283.206 577.862 282.806 581.313 282.734 584.778C282.763 586.289 282.89 587.797 283.112 589.293C283.112 589.576 283.269 590.001 283.364 590.441C283.567 591.07 283.567 591.747 283.364 592.376C283.112 592.848 282.372 592.958 281.916 593.052C280.358 593.337 278.779 593.49 277.195 593.509C273.631 593.699 270.058 593.44 266.558 592.738C265.911 592.622 265.274 592.454 264.654 592.234C264.092 592.056 263.612 591.682 263.301 591.18C262.624 589.623 263.443 586.917 263.694 585.36Z" fill="#333333"/>
<path d="M357.46 418.602C351.932 421.579 346.593 424.894 341.473 428.529C341.522 428.389 341.508 428.235 341.436 428.106C341.364 427.977 341.24 427.885 341.096 427.853C341.073 427.754 341.073 427.652 341.096 427.554C341.113 427.23 341.16 426.909 341.237 426.594C341.741 424.171 342.386 421.701 342.984 419.263C343.207 418.141 343.645 417.072 344.274 416.117C344.544 415.761 344.85 415.434 345.187 415.141C345.376 414.984 345.58 414.842 345.816 414.654C346.113 414.416 346.286 414.058 346.288 413.678V413.427C346.117 412.499 345.679 411.641 345.03 410.957C344.366 410.157 343.393 409.677 342.355 409.635C341.694 409.635 341.725 409.981 340.561 410.359C339.715 410.743 338.758 410.804 337.87 410.532C337.366 410.287 336.94 409.905 336.643 409.431C336.478 409.217 336.33 408.991 336.202 408.754C335.878 408.134 335.66 407.464 335.557 406.772C335.447 405.954 334.55 403.626 331.717 397.616C331.359 397.168 330.85 396.866 330.285 396.767C329.865 396.722 329.452 396.622 329.058 396.468C328.89 396.403 328.75 396.28 328.665 396.122C328.575 395.941 328.532 395.741 328.539 395.54C328.547 395.164 328.633 394.795 328.791 394.454C329.215 393.479 330.238 392.661 330.789 391.308C331.11 390.173 331.238 388.992 331.167 387.815C331.293 385.723 331.859 383.552 332.095 381.334C332.311 378.903 332.721 376.494 333.322 374.129C333.558 373.232 333.889 372.367 334.219 371.47V371.218C334.163 370.801 334.132 370.381 334.125 369.96C334.125 369.252 334.125 368.67 334.518 368.387C342.244 362.928 381.504 359.451 365.501 399.174C365.315 399.779 365.189 400.4 365.124 401.03C365.076 401.515 364.897 401.977 364.604 402.367L364.494 402.461C364.338 402.412 364.167 402.439 364.033 402.535C363.9 402.631 363.82 402.785 363.818 402.949C363.821 403.706 363.868 404.463 363.959 405.215C363.959 405.325 363.959 405.576 363.959 405.828C363.962 406.127 364.044 406.42 364.195 406.678C364.271 406.807 364.373 406.919 364.494 407.008C364.63 407.095 364.789 407.139 364.951 407.134H365.344C365.746 407.111 366.137 407.267 366.414 407.559C366.944 408.207 367.31 408.973 367.484 409.792C367.709 410.682 367.825 411.596 367.83 412.514C367.83 412.671 367.83 412.813 367.83 412.955C367.83 413.096 367.751 413.427 367.704 413.788C367.657 414.15 367.704 414.04 367.704 414.15C367.7 414.213 367.7 414.276 367.704 414.339C366.06 414.761 364.475 415.385 362.984 416.195C361.096 416.887 359.252 417.691 357.46 418.602Z" fill="#D08B73"/>
<path d="M341.773 409.935C341.773 409.935 348.618 406.05 351.042 402.07L353.465 398.152L345.046 412.72L341.773 409.935Z" fill="#BC6C56"/>
<path d="M359.444 443.318C359.577 443.47 359.688 443.639 359.774 443.822C359.625 443.692 359.493 443.544 359.381 443.381L359.444 443.318Z" fill="#D08B73"/>
<path d="M378.469 513.97C378.729 512.874 378.892 511.758 378.957 510.634V510.32C378.957 507.991 377.824 505.946 377.289 503.413C376.297 498.6 379.523 509.706 377.068 468.804C377.068 461.064 384.118 455.369 376.565 433.486C375.118 429.246 373.383 425.109 371.372 421.105C370.381 419.154 369.311 417.235 368.225 415.363C368.068 415.111 368.225 414.388 368.115 414.199C368.005 414.01 367.769 414.466 367.753 414.309C366.179 414.718 363.567 413.412 362.057 414.199C359.98 414.768 357.937 415.451 355.936 416.244C350.365 418.934 346.699 425.101 341.459 428.483C339.225 435.311 331.341 440.644 334.441 456.533C335.675 461.936 336.61 467.404 337.242 472.91C337.368 474.388 337.478 475.899 337.478 477.425C337.478 478.196 337.478 478.998 337.384 479.737C337.124 481.302 336.777 482.852 336.345 484.378C336.109 485.542 335.936 486.722 335.794 487.902C335.794 488.311 335.212 493.109 335.181 493.518C337.683 493.974 340.625 490.12 343.048 490.749C356.581 494.336 368.414 504.169 378.469 513.97ZM359.382 443.318C359.515 443.47 359.626 443.639 359.712 443.822C359.581 443.669 359.47 443.5 359.382 443.318Z" fill="#C80030"/>
<path d="M353.465 443.506C353.465 443.506 345.597 465.153 344.464 476.149C343.332 487.146 343.804 489.631 343.804 489.631L356.124 483.968L353.465 443.506Z" fill="#873946"/>
<path d="M368.083 414.229C371.469 419.529 374.216 425.211 376.265 431.157C378.706 437.12 380.183 443.434 380.639 449.862C380.712 452.501 380.485 455.14 379.963 457.728C379.381 460.654 378.232 463.438 377.76 466.38C377.493 468.927 377.493 471.495 377.76 474.042C377.917 477.188 378.311 480.334 378.578 483.481C378.852 486.698 378.957 489.927 378.893 493.156C378.931 495.638 378.634 498.115 378.012 500.518C377.02 503.806 379.396 506.59 379.444 509.957C379.403 512.251 378.999 514.523 378.248 516.69C375.998 523.77 370.569 513.103 353.339 513.088C341.144 513.088 343.897 503.759 337.934 504.089L355.431 488.357L368.083 414.229Z" fill="#C80030"/>
<path d="M372.284 447.172C372.284 447.172 371.277 492.306 370.286 495.641C369.294 498.976 338.626 504.341 338.626 504.341L364.967 485.463L372.284 447.172Z" fill="#873946"/>
<path d="M282.31 593.766C281.991 595.068 281.581 596.345 281.083 597.589C279.375 601.019 277.38 604.297 275.119 607.39C272.885 610.804 270.807 614.343 268.542 617.741C267.599 619.511 265.902 620.756 263.931 621.124C262.945 621.274 261.943 621.274 260.957 621.124C260.359 621.014 259.745 620.62 259.147 620.573C258.638 620.606 257.909 620.67 257.493 620.967C255.919 621.848 254.245 622.838 252.672 623.751C251.098 624.663 250.037 624.957 248.589 625.65C248.133 625.87 247.551 626.41 247.393 626.945C247.157 627.731 247.975 628.518 248.589 628.864C250.414 629.871 253.168 629.462 255.166 629.477C259.455 629.729 263.755 629.692 268.038 629.367C269.438 629.346 270.775 628.782 271.767 627.794C273.482 625.702 274.065 622.555 275.056 620.117C275.794 617.973 276.955 615.999 278.471 614.312C279.654 613.164 281.071 612.284 282.625 611.732C283.16 611.543 283.411 611.37 283.679 611.936C283.882 613.076 283.882 614.242 283.679 615.382C283.679 617.364 283.758 627.369 283.758 628.077C283.758 628.36 283.616 629.1 283.758 629.351C283.899 629.603 283.758 629.477 284.245 629.587C284.844 629.693 285.456 629.693 286.055 629.587C286.401 629.336 286.228 627.322 286.244 626.756C286.317 624.774 286.433 622.797 286.59 620.825C286.775 616.984 287.302 613.167 288.164 609.419C289.168 606.589 289.699 603.613 289.737 600.61C289.724 598.88 289.321 597.175 288.557 595.623C287.077 593.532 285.258 591.703 283.175 590.211L282.31 593.766Z" fill="#C80030"/>
<path d="M362.654 407.134C358.578 408.11 354.605 409.474 350.79 411.209C348.229 412.141 345.903 413.623 343.976 415.551C342.277 417.611 342.104 420.679 341.506 423.165C341.349 423.825 339.539 428.12 341.081 428.403C342.623 428.687 344.401 426.343 345.157 425.635C348.138 422.629 351.522 420.051 355.211 417.973C357.958 416.407 361.003 415.437 364.149 415.126C365.392 415.126 367.627 415.503 368.209 413.977C368.559 412.163 368.322 410.284 367.532 408.613C367.404 407.987 367.031 407.437 366.497 407.086C365.962 406.735 365.31 406.611 364.684 406.741C364.001 406.836 363.324 406.967 362.654 407.134Z" fill="#873946"/>
<path d="M356.706 392.741C357.367 395.054 357.846 397.416 358.138 399.804C359.287 409.133 356.675 411.776 358.799 415.536C361.632 420.554 367.674 418.415 370.459 423.701C372.489 427.571 369.798 429.757 371.797 434.194C373.795 438.63 378.909 442.374 383.504 441.556C389.609 440.471 393.685 431.22 391.954 424.865C390.05 417.864 382.088 417.801 380.294 409.872C379.255 405.295 381.741 404.571 380.467 399.379C378.972 393.37 375.258 392.851 373.984 386.92C373.056 382.594 374.912 382.295 374.472 376.726C374.267 374.098 373.638 366.185 367.674 362.079C364.741 360.16 361.229 359.325 357.745 359.72C353.411 357.162 348.178 356.616 343.41 358.225C339.155 359.954 335.809 363.373 334.173 367.664C333.355 369.599 332.175 373.422 333.292 374.161C333.575 374.35 333.78 374.161 334.268 374.256C336.062 374.507 336.801 377.056 338.044 378.975C339.362 380.679 341.081 382.03 343.048 382.908C347.187 384.89 351.781 383.364 353.654 382.594L356.706 392.741Z" fill="#333333"/>
<path d="M351.041 392.786C351.158 393.489 351.567 394.108 352.167 394.492C352.767 394.876 353.501 394.988 354.188 394.8C355.888 394.407 356.989 392.535 357.697 391.103C358.745 389.23 359.232 387.094 359.098 384.952C358.72 382.105 355.95 380.689 353.653 382.608L351.041 392.786Z" fill="#D08B73"/>
<path d="M354.347 384.952C353.985 386.321 355.795 386.116 355.559 387.312C355.323 388.507 353.985 387.768 353.655 388.791C353.324 389.813 356.251 390.615 356.944 387.217C357.636 383.819 354.646 383.788 354.347 384.952Z" fill="#BC6C56"/>
<path d="M352.364 443.019C351.955 444.592 351.436 446.936 350.964 449.673C350.151 454.742 349.704 459.863 349.626 464.996C349.484 469.716 349.484 475.82 349.957 482.977C345.236 485.809 341.066 487.949 337.903 489.475C334.112 491.358 330.213 493.018 326.228 494.446C322.386 495.745 318.452 496.75 314.457 497.451C313.12 497.718 313.057 498.552 313.309 499.779C313.891 502.611 315.402 505.191 315.59 508.101C315.669 509.391 315.59 510.713 317.164 510.854C319.902 511.074 323.002 509.564 325.535 508.746C329.92 507.33 334.289 505.862 338.643 504.341C342.75 502.894 346.825 501.352 350.885 499.748C354.945 498.143 359.083 496.711 363.001 494.808C367.297 492.715 368.383 488.405 369.169 483.984C369.799 480.492 370.114 476.952 370.444 473.413L372.175 454.833C372.505 451.325 372.899 447.817 372.93 444.293C372.919 439.92 372.39 435.564 371.357 431.314L352.364 443.019Z" fill="#C80030"/>
<path d="M313.151 498.379C300.563 497.702 308.273 491.362 293.387 500.282C292.805 500.628 286.196 506.15 291.971 505.096C301.711 503.318 303.647 506.182 309.642 507.267C311.581 507.561 313.557 507.513 315.48 507.125L313.151 498.379Z" fill="#D08B73"/>
<path d="M-9.20197 533.13H57.543C58.3612 533.13 59.0244 532.467 59.0244 531.648V521.302C59.0244 520.484 58.3612 519.821 57.543 519.821H-9.20197C-10.0201 519.821 -10.6834 520.484 -10.6834 521.302V531.648C-10.6834 532.467 -10.0201 533.13 -9.20197 533.13Z" fill="#333333"/>
<path d="M59.0242 532.171H-10.6836" stroke="black" stroke-width="3.05337" stroke-linecap="round" stroke-linejoin="round"/>
<path d="M21.4482 620.614H26.877L26.877 533.13H21.4482L21.4482 620.614Z" fill="black" stroke="black" stroke-width="1.03312" stroke-linecap="round" stroke-linejoin="round"/>
<path d="M17.1208 604.992H31.2197L31.2197 578.421H17.1208L17.1208 604.992Z" fill="black" stroke="black" stroke-width="0.973473" stroke-linecap="round" stroke-linejoin="round"/>
<path d="M-23.2871 623.226C5.45835 604.076 42.8991 604.076 71.6445 623.226V618.821C42.6881 600.381 5.66933 600.381 -23.2871 618.821V623.226Z" fill="black" stroke="black" stroke-width="0.973473" stroke-linecap="round" stroke-linejoin="round"/>
<path d="M71.6285 629.298C74.983 629.298 77.7024 626.579 77.7024 623.226C77.7024 619.872 74.983 617.153 71.6285 617.153C68.274 617.153 65.5547 619.872 65.5547 623.226C65.5547 626.579 68.274 629.298 71.6285 629.298Z" fill="#034C8A" stroke="#034C8A" stroke-width="0.973473" stroke-linecap="round" stroke-linejoin="round"/>
<path d="M24.1711 628.952C27.3344 628.952 29.8987 626.388 29.8987 623.225C29.8987 620.063 27.3344 617.499 24.1711 617.499C21.0077 617.499 18.4434 620.063 18.4434 623.225C18.4434 626.388 21.0077 628.952 24.1711 628.952Z" fill="black" stroke="black" stroke-width="0.973473" stroke-linecap="round" stroke-linejoin="round"/>
<path d="M63.0838 595.915C63.0838 595.915 57.4348 612.323 56.6637 619.513C55.8927 626.702 57.6865 630.289 59.8108 630.289C61.9351 630.289 83.2468 629.298 83.2468 629.298C83.2468 629.298 89.3296 628.796 89.1432 621.904C88.9569 615.011 82.6429 610.294 82.6429 606.959C82.6429 603.624 79.4958 595.947 79.4958 595.947L63.0838 595.915Z" fill="#C80030"/>
<path d="M-3.61818 480.523C-3.61818 480.523 -19.0074 487.697 -24.6564 495.657C-30.3054 503.617 -32.351 502.83 -34.9159 506.166C-37.4808 509.501 -38.063 512.065 -36.2062 516.171C-34.3494 520.277 -33.3896 591.573 -33.3896 591.573V601.327C-33.3896 601.327 -27.4258 599.533 -24.6092 599.754C-21.7926 599.974 -14.1609 601.327 -11.3285 601.799C-8.49616 602.271 -9.53469 593.083 -9.53469 593.083L-7.22158 585.642C-7.22158 585.642 -5.17599 537.173 -3.63392 533.067C-2.09185 528.961 10.7325 521.787 10.7325 521.787C10.7325 521.787 10.7325 519.742 24.5796 521.787C38.4268 523.832 50.9897 517.527 54.0738 521.114C57.1579 524.701 58.4422 542.301 58.4422 552.055C58.4422 561.809 59.465 568.463 58.4422 574.08C57.4194 579.696 60.4878 594.531 61.0071 596.655C61.3231 598.111 61.4395 599.603 61.3533 601.091C63.75 599.746 66.4751 599.098 69.221 599.219C74.3507 599.219 83.0681 598.7 83.0681 598.7C83.0681 598.7 79.4804 586.901 83.0681 579.208C86.6558 571.515 88.1978 542.789 88.1978 534.577C88.1978 526.365 91.7855 510.476 88.1978 504.309C84.6102 498.142 50.2283 480.46 50.2283 480.46L-3.61818 480.523Z" fill="#333333"/>
<path d="M11.5706 521.104C11.5706 521.104 -9.92225 529.669 -10.6837 533.131C-11.4451 536.592 -5.40745 548.793 -5.07384 546.627C-4.78671 544.763 -4.81057 541.673 -4.46339 538.331C-4.30325 536.789 -4.30325 535.396 -3.78435 533.634C-3.01124 531.009 0.659606 528.365 3.88547 526.101C6.17404 524.496 8.68219 523.149 10.1275 522.245C11.23 521.556 11.5706 521.104 11.5706 521.104Z" fill="black"/>
<path d="M51.5273 519.838C51.5273 519.838 65.3079 523.583 70.7051 523.583C76.1023 523.583 57.85 528.559 57.85 534.521C57.85 538.524 56.973 530.137 55.5674 524.457C55.2783 523.289 54.9127 522.122 54.1508 521.353C53.0984 520.292 51.5273 519.838 51.5273 519.838Z" fill="black"/>
<path d="M58.5977 581.613C58.5977 581.613 59.6454 586.296 65.0426 586.296C70.4399 586.296 60.8586 586.222 60.8586 592.184C60.8586 595.828 60.1742 592.969 59.3741 587.876C58.8649 584.634 58.5977 581.613 58.5977 581.613Z" fill="black"/>
<path d="M11.0313 390.113C-4.23201 396.296 -22.7841 400.701 -27.3001 418.43C-28.4016 422.788 -28.9838 427.256 -30.1482 431.598C-30.9507 434.571 -34.0821 439.369 -32.6187 442.468C-30.636 446.637 -20.2507 447.896 -16.2853 448.211L11.0313 492.574L46.436 484.11L66.892 445.127L73.312 443.208C73.312 443.208 77.1672 443.585 77.1672 441.54C77.1672 436.538 74.9642 430.874 73.8313 426.06C72.2577 418.981 71.5024 409.967 68.3081 403.501C64.626 396.013 55.0589 395.745 47.8521 394.062C42.4182 392.74 36.979 391.456 31.5345 390.208L11.0313 390.113Z" fill="#C80030"/>
<path d="M52.9356 447.154C52.2369 446.984 51.7056 446.415 51.5823 445.707C50.8585 441.475 48.4353 426.829 48.6398 423.179C48.8916 418.821 46.8303 441.9 48.6398 448.822C49.6912 452.917 51.7215 456.696 54.5563 459.834L54.1 447.422L52.9356 447.154Z" fill="#034C8A"/>
<path d="M23.2098 417.42C33.2857 417.42 41.4538 410.722 41.4538 402.46C41.4538 394.198 33.2857 387.5 23.2098 387.5C13.1339 387.5 4.96582 394.198 4.96582 402.46C4.96582 410.722 13.1339 417.42 23.2098 417.42Z" stroke="#873946" stroke-width="0.903384"/>
<path d="M8.43558 390.758C8.0422 390.852 8.43558 400.496 8.43558 401.345C8.2637 402.662 8.43722 404.001 8.93912 405.231C10.5462 408.486 13.654 410.74 17.2474 411.256C25.1475 413.07 33.2894 409.405 37.1684 402.289V383.836L8.43558 390.758Z" fill="#ED997A"/>
<path d="M8.26074 401.217C14.0356 405.071 16.5393 405.121 22.7233 404.555C28.9073 403.988 37.1684 395.36 37.1684 395.36V386.155L8.26074 396.073V401.217Z" fill="#C55F4C"/>
<path d="M1.26008 353.647C1.26008 353.647 0.740815 376.993 1.26008 383.915C1.77935 390.837 9.47396 398.797 14.3362 399.552C19.1984 400.307 24.8474 402.887 27.6798 399.552C30.5122 396.217 37.6875 391.875 38.9621 386.227C40.2367 380.579 38.4428 364.675 38.9621 362.881C39.4814 361.088 37.6718 347.999 34.8551 345.435C32.0385 342.87 23.8404 342.1 20.2212 342.1C16.6021 342.1 3.57319 343.83 1.26008 353.647Z" fill="#333333"/>
<path d="M6.64104 361.009C6.64104 361.009 4.07617 372.289 4.32794 375.891C4.57971 379.494 4.5797 386.4 7.66383 386.148C10.748 385.897 14.0839 378.455 19.9846 378.455C25.8854 378.455 28.4503 384.607 32.3055 384.355C36.1606 384.103 36.9159 379.745 37.1834 372.556C37.4509 365.367 31.4872 353.646 27.931 353.646C24.3748 353.646 25.6179 357.233 20.7399 357.233C15.862 357.233 15.6259 353.646 12.29 353.646C8.95413 353.646 6.64104 361.009 6.64104 361.009Z" fill="#ED997A"/>
<path d="M54.0981 447.44C54.0981 447.44 57.8432 441.729 62.4694 441.352C66.7066 441.199 70.9492 441.335 75.1678 441.761L70.2584 472.438C70.2584 472.438 71.8319 475.899 70.636 477.629C69.4401 479.359 63.7125 481.483 63.7125 481.483L32.3518 499.764H29.6611L28.0875 496.114L23.8547 495.343L20.5817 499.764H16.7266V488.61L22.6903 484.96L27.1119 487.839C27.1119 487.839 47.8984 474.97 50.5891 471.399L53.2799 467.828L54.0981 447.44Z" fill="#D08B73"/>
<path d="M49.2211 454.881C49.2211 454.881 55.8929 447.44 62.5647 446.936C69.2365 446.433 79.7477 446.685 79.7477 446.685L80.7706 438.74L59.4806 436.176L45.9639 448.761L49.2211 454.881Z" fill="#BC6C56"/>
<path d="M-7.07995 446.857L-6.30893 467.434L16.7749 488.593V499.747H20.6301L23.903 495.327L28.1358 496.097L29.7094 499.747C29.7094 499.747 34.5244 500.896 34.9021 502.249C35.2797 503.601 32.2113 513.402 30.6692 513.796C29.1272 514.189 18.3484 512.836 18.3484 512.836L8.9072 506.543C8.9072 506.543 9.28485 494.996 8.9072 493.266C8.52955 491.535 -17.843 480.759 -20.3449 477.691C-21.3834 476.401 -21.9184 473.947 -23.2245 469.228C-25.7033 460.727 -27.6167 452.071 -28.9521 443.317C-26.9223 442.798 -23.492 443.317 -20.7383 443.223C-14.5857 442.956 -10.3214 445.646 -7.07995 446.857Z" fill="#BC6C56"/>
<path d="M301.083 475.378H-123.821C-125.272 475.378 -126.448 476.554 -126.448 478.005V487.806C-126.448 489.257 -125.272 490.433 -123.821 490.433H301.083C302.534 490.433 303.71 489.257 303.71 487.806V478.005C303.71 476.554 302.534 475.378 301.083 475.378Z" fill="#333333"/>
<g style="mix-blend-mode:multiply" opacity="0.5">
<path d="M298.046 487.145H-120.783C-123.912 487.145 -126.448 484.609 -126.448 481.481V484.769C-126.448 487.897 -123.912 490.433 -120.783 490.433H298.046C301.174 490.433 303.71 487.897 303.71 484.769V481.481C303.71 484.609 301.174 487.145 298.046 487.145Z" fill="#C4422B"/>
</g>
<path d="M261.287 498.473L274.489 629.518H280.311V490.434H260.484L261.287 498.473Z" fill="#333333"/>
<path d="M-12.2255 471.163H-58.4561L-41.336 415.473H4.89465L-12.2255 471.163Z" fill="#C80030"/>
<path d="M-54.6006 469.475L-37.4805 415.473H8.73437L-8.38575 469.475H-54.6006Z" fill="#333333"/>
<path d="M116.16 415.473H45.7441V471.147H116.16V415.473Z" fill="#890424"/>
<path d="M122.029 415.473H47.9941V471.147H122.029V415.473Z" fill="#333333"/>
<path d="M119.716 471.162H48.2617V475.394H119.716V471.162Z" fill="#890424"/>
<path d="M83.9961 448.886C87.0725 448.886 89.5665 446.393 89.5665 443.317C89.5665 440.241 87.0725 437.748 83.9961 437.748C80.9197 437.748 78.4258 440.241 78.4258 443.317C78.4258 446.393 80.9197 448.886 83.9961 448.886Z" fill="#BEC6C4"/>
<path d="M204.372 471.163H250.587L233.467 415.473H187.252L204.372 471.163Z" fill="#C80030"/>
<path d="M200.517 471.163H246.731L229.611 415.473H183.396L200.517 471.163Z" fill="#333333"/>
<path d="M210.367 475.378H295.212V469.494H210.367V475.378Z" fill="#C80030"/>
<path d="M203.979 475.378H252.774V469.494H203.979V475.378Z" fill="#890424"/>
<path d="M209.848 444.388C209.172 441.241 210.069 438.347 211.863 437.749C213.656 437.151 215.639 439.181 216.316 442.264C216.992 445.347 216.095 448.305 214.302 448.903C212.508 449.501 210.525 447.455 209.848 444.388Z" fill="#BEC6C4"/>
<path d="M-324.982 630.965H581.376" stroke="#333333" stroke-width="4.28696" stroke-linecap="round" stroke-linejoin="round"/>
<path fill-rule="evenodd" clip-rule="evenodd" d="M57.3184 627.109C57.8505 628.569 58.2918 629.299 58.642 629.299C58.9922 629.299 67.732 629.299 84.8613 629.299L87.0919 627.109H57.3184Z" fill="#873946" stroke="#873946"/>
<path d="M69.489 613.396C72.1655 611.718 74.1495 610.801 75.4408 610.646C76.7321 610.491 78.3994 610.969 80.4425 612.08" stroke="#873946" stroke-linecap="round"/>
<path d="M72.4079 616.315C75.0845 614.637 77.0684 613.72 78.3597 613.565C79.6511 613.41 81.3183 613.888 83.3615 614.999" stroke="#873946" stroke-linecap="round"/>
<path fill-rule="evenodd" clip-rule="evenodd" d="M97.4443 627.108C97.1826 628.401 97.1826 629.047 97.4443 629.047C97.7061 629.047 107.37 629.047 126.437 629.047L126.698 627.108H97.4443Z" fill="#873946" stroke="#873946"/>
<path fill-rule="evenodd" clip-rule="evenodd" d="M223.357 626.863L224.053 629.077H245.519L246.143 626.863H223.357Z" fill="#873946" stroke="#873946"/>
<path d="M235.196 619.227C235.831 618.656 236.367 618.283 236.805 618.111C237.243 617.938 238.003 617.799 239.085 617.693" stroke="#873946" stroke-linecap="round"/>
<path d="M238.734 621.411C239.326 620.952 239.794 620.67 240.14 620.566C240.485 620.462 240.954 620.462 241.545 620.566" stroke="#873946" stroke-linecap="round"/>
</svg>
